G75*
%MOIN*%
%OFA0B0*%
%FSLAX25Y25*%
%IPPOS*%
%LPD*%
%AMOC8*
5,1,8,0,0,1.08239X$1,22.5*
%
%ADD10C,0.01100*%
%ADD11C,0.00800*%
%ADD12R,0.00787X0.03937*%
%ADD13C,0.00500*%
%ADD14C,0.00400*%
D10*
X0043536Y0074227D02*
X0045505Y0074227D01*
X0044520Y0074227D02*
X0044520Y0078163D01*
X0045505Y0078163D01*
X0044520Y0080132D02*
X0044520Y0081116D01*
X0047923Y0078163D02*
X0050876Y0076195D01*
X0047923Y0074227D01*
X0050876Y0074227D02*
X0050876Y0080132D01*
X0053385Y0078163D02*
X0056337Y0078163D01*
X0057321Y0077179D01*
X0056337Y0076195D01*
X0054369Y0076195D01*
X0053385Y0075211D01*
X0054369Y0074227D01*
X0057321Y0074227D01*
X0059830Y0075211D02*
X0059830Y0078163D01*
X0059830Y0075211D02*
X0060814Y0074227D01*
X0061799Y0075211D01*
X0062783Y0074227D01*
X0063767Y0075211D01*
X0063767Y0078163D01*
X0066276Y0077179D02*
X0066276Y0076195D01*
X0070212Y0076195D01*
X0070212Y0075211D02*
X0070212Y0077179D01*
X0069228Y0078163D01*
X0067260Y0078163D01*
X0066276Y0077179D01*
X0067260Y0074227D02*
X0069228Y0074227D01*
X0070212Y0075211D01*
X0072541Y0074227D02*
X0074509Y0074227D01*
X0073525Y0074227D02*
X0073525Y0080132D01*
X0074509Y0080132D01*
X0077018Y0077179D02*
X0078002Y0078163D01*
X0080955Y0078163D01*
X0080955Y0080132D02*
X0080955Y0074227D01*
X0078002Y0074227D01*
X0077018Y0075211D01*
X0077018Y0077179D01*
X0083464Y0077179D02*
X0083464Y0075211D01*
X0084448Y0074227D01*
X0086416Y0074227D01*
X0087400Y0075211D01*
X0087400Y0077179D01*
X0086416Y0078163D01*
X0084448Y0078163D01*
X0083464Y0077179D01*
X0089819Y0078163D02*
X0090803Y0078163D01*
X0092772Y0076195D01*
X0092772Y0074227D02*
X0092772Y0078163D01*
X0095280Y0080132D02*
X0095280Y0074227D01*
X0097249Y0076195D01*
X0099217Y0074227D01*
X0099217Y0080132D01*
X0103874Y0083743D02*
X0104859Y0082758D01*
X0105843Y0082758D01*
X0106827Y0084727D02*
X0103874Y0084727D01*
X0103874Y0083743D02*
X0103874Y0088663D01*
X0107811Y0088663D02*
X0107811Y0085711D01*
X0106827Y0084727D01*
X0110230Y0088663D02*
X0111214Y0088663D01*
X0113182Y0086695D01*
X0113182Y0084727D02*
X0113182Y0088663D01*
X0115601Y0088663D02*
X0116585Y0088663D01*
X0118554Y0086695D01*
X0118554Y0084727D02*
X0118554Y0088663D01*
X0121062Y0087679D02*
X0121062Y0084727D01*
X0124015Y0084727D01*
X0124999Y0085711D01*
X0124015Y0086695D01*
X0121062Y0086695D01*
X0121062Y0087679D02*
X0122047Y0088663D01*
X0124015Y0088663D01*
X0127508Y0087679D02*
X0131445Y0087679D01*
X0131445Y0084727D02*
X0131445Y0090632D01*
X0127508Y0090632D02*
X0127508Y0084727D01*
X0127508Y0080132D02*
X0129476Y0080132D01*
X0128492Y0080132D02*
X0128492Y0075211D01*
X0129476Y0074227D01*
X0130460Y0074227D01*
X0131445Y0075211D01*
X0124999Y0075211D02*
X0124015Y0074227D01*
X0122047Y0074227D01*
X0121062Y0075211D01*
X0121062Y0077179D01*
X0122047Y0078163D01*
X0124015Y0078163D01*
X0124999Y0077179D01*
X0124999Y0075211D01*
X0118554Y0074227D02*
X0115601Y0074227D01*
X0114617Y0075211D01*
X0115601Y0076195D01*
X0117569Y0076195D01*
X0118554Y0077179D01*
X0117569Y0078163D01*
X0114617Y0078163D01*
X0112108Y0077179D02*
X0111124Y0078163D01*
X0109156Y0078163D01*
X0108171Y0077179D01*
X0108171Y0074227D01*
X0112108Y0074227D02*
X0112108Y0080132D01*
X0094920Y0085711D02*
X0093936Y0084727D01*
X0092952Y0084727D01*
X0091968Y0085711D01*
X0091968Y0090632D01*
X0092952Y0090632D02*
X0090983Y0090632D01*
X0088475Y0088663D02*
X0088475Y0085711D01*
X0087490Y0084727D01*
X0084538Y0084727D01*
X0084538Y0088663D01*
X0082029Y0088663D02*
X0079077Y0088663D01*
X0078092Y0087679D01*
X0078092Y0084727D01*
X0075584Y0085711D02*
X0074599Y0084727D01*
X0071647Y0084727D01*
X0071647Y0083743D02*
X0071647Y0088663D01*
X0074599Y0088663D01*
X0075584Y0087679D01*
X0075584Y0085711D01*
X0073615Y0082758D02*
X0072631Y0082758D01*
X0071647Y0083743D01*
X0082029Y0084727D02*
X0082029Y0088663D01*
X0083374Y0095227D02*
X0085342Y0095227D01*
X0086326Y0096211D01*
X0086326Y0098179D01*
X0085342Y0099163D01*
X0083374Y0099163D01*
X0082389Y0098179D01*
X0082389Y0097195D01*
X0086326Y0097195D01*
X0088835Y0097195D02*
X0088835Y0098179D01*
X0089819Y0099163D01*
X0091787Y0099163D01*
X0092772Y0098179D01*
X0092772Y0096211D01*
X0091787Y0095227D01*
X0089819Y0095227D01*
X0088835Y0097195D02*
X0092772Y0097195D01*
X0095280Y0095227D02*
X0099217Y0095227D01*
X0099217Y0101132D01*
X0098503Y0105727D02*
X0098503Y0111632D01*
X0100472Y0109663D01*
X0102440Y0111632D01*
X0102440Y0105727D01*
X0095994Y0106711D02*
X0095994Y0108679D01*
X0095010Y0109663D01*
X0093042Y0109663D01*
X0092058Y0108679D01*
X0092058Y0106711D01*
X0093042Y0105727D01*
X0095010Y0105727D01*
X0095994Y0106711D01*
X0089549Y0105727D02*
X0087581Y0105727D01*
X0088565Y0105727D02*
X0088565Y0111632D01*
X0089549Y0111632D01*
X0085252Y0108679D02*
X0085252Y0106711D01*
X0084268Y0105727D01*
X0082299Y0105727D01*
X0081315Y0106711D01*
X0081315Y0108679D01*
X0082299Y0109663D01*
X0084268Y0109663D01*
X0085252Y0108679D01*
X0084538Y0116227D02*
X0087490Y0116227D01*
X0088475Y0117211D01*
X0088475Y0119179D01*
X0087490Y0120163D01*
X0084538Y0120163D01*
X0084538Y0122132D02*
X0084538Y0116227D01*
X0090983Y0118195D02*
X0094920Y0118195D01*
X0094920Y0117211D02*
X0094920Y0119179D01*
X0093936Y0120163D01*
X0091968Y0120163D01*
X0090983Y0119179D01*
X0090983Y0118195D01*
X0091968Y0116227D02*
X0093936Y0116227D01*
X0094920Y0117211D01*
X0097429Y0116227D02*
X0097429Y0119179D01*
X0098413Y0120163D01*
X0101366Y0120163D01*
X0101366Y0116227D01*
X0103874Y0116227D02*
X0106827Y0116227D01*
X0107811Y0117211D01*
X0107811Y0119179D01*
X0106827Y0120163D01*
X0103874Y0120163D01*
X0103874Y0115243D01*
X0104859Y0114258D01*
X0105843Y0114258D01*
X0110140Y0116227D02*
X0112108Y0116227D01*
X0111124Y0116227D02*
X0111124Y0120163D01*
X0112108Y0120163D01*
X0111124Y0122132D02*
X0111124Y0123116D01*
X0114617Y0120163D02*
X0117569Y0120163D01*
X0118554Y0119179D01*
X0117569Y0118195D01*
X0115601Y0118195D01*
X0114617Y0117211D01*
X0115601Y0116227D01*
X0118554Y0116227D01*
X0121062Y0118195D02*
X0124999Y0118195D01*
X0124999Y0117211D02*
X0124999Y0119179D01*
X0124015Y0120163D01*
X0122047Y0120163D01*
X0121062Y0119179D01*
X0121062Y0118195D01*
X0122047Y0116227D02*
X0124015Y0116227D01*
X0124999Y0117211D01*
X0127508Y0117211D02*
X0127508Y0121148D01*
X0128492Y0122132D01*
X0131445Y0122132D01*
X0131445Y0116227D01*
X0128492Y0116227D01*
X0127508Y0117211D01*
X0124015Y0112616D02*
X0124015Y0111632D01*
X0124015Y0109663D02*
X0124015Y0105727D01*
X0124999Y0105727D02*
X0123031Y0105727D01*
X0120702Y0106711D02*
X0119718Y0105727D01*
X0116765Y0105727D01*
X0114257Y0105727D02*
X0114257Y0111632D01*
X0116765Y0109663D02*
X0119718Y0109663D01*
X0120702Y0108679D01*
X0120702Y0106711D01*
X0124015Y0109663D02*
X0124999Y0109663D01*
X0127508Y0111632D02*
X0127508Y0105727D01*
X0131445Y0111632D01*
X0131445Y0105727D01*
X0129476Y0101132D02*
X0127508Y0101132D01*
X0128492Y0101132D02*
X0128492Y0096211D01*
X0129476Y0095227D01*
X0130460Y0095227D01*
X0131445Y0096211D01*
X0124999Y0096211D02*
X0124015Y0095227D01*
X0122047Y0095227D01*
X0121062Y0096211D01*
X0121062Y0098179D01*
X0122047Y0099163D01*
X0124015Y0099163D01*
X0124999Y0098179D01*
X0124999Y0096211D01*
X0118554Y0095227D02*
X0118554Y0101132D01*
X0117569Y0099163D02*
X0115601Y0099163D01*
X0114617Y0098179D01*
X0114617Y0095227D01*
X0112108Y0095227D02*
X0112108Y0099163D01*
X0109156Y0099163D01*
X0108171Y0098179D01*
X0108171Y0095227D01*
X0117569Y0099163D02*
X0118554Y0098179D01*
X0114257Y0107695D02*
X0111304Y0105727D01*
X0114257Y0107695D02*
X0111304Y0109663D01*
X0116585Y0126727D02*
X0114617Y0130663D01*
X0118554Y0130663D02*
X0116585Y0126727D01*
X0121062Y0128695D02*
X0121062Y0129679D01*
X0122047Y0130663D01*
X0124015Y0130663D01*
X0124999Y0129679D01*
X0124999Y0127711D01*
X0124015Y0126727D01*
X0122047Y0126727D01*
X0121062Y0128695D02*
X0124999Y0128695D01*
X0127508Y0129679D02*
X0128492Y0128695D01*
X0131445Y0128695D01*
X0131445Y0126727D02*
X0131445Y0132632D01*
X0128492Y0132632D01*
X0127508Y0131648D01*
X0127508Y0129679D01*
X0129476Y0128695D02*
X0127508Y0126727D01*
X0127508Y0137227D02*
X0131445Y0137227D01*
X0131445Y0143132D01*
X0127508Y0143132D01*
X0124999Y0142148D02*
X0124999Y0138211D01*
X0124015Y0137227D01*
X0122047Y0137227D01*
X0121062Y0138211D01*
X0118554Y0137227D02*
X0114617Y0137227D01*
X0116585Y0140179D02*
X0118554Y0140179D01*
X0118554Y0137227D02*
X0118554Y0143132D01*
X0114617Y0143132D01*
X0121062Y0142148D02*
X0122047Y0143132D01*
X0124015Y0143132D01*
X0124999Y0142148D01*
X0129476Y0140179D02*
X0131445Y0140179D01*
X0105663Y0140179D02*
X0101726Y0140179D01*
X0102710Y0137227D02*
X0102710Y0143132D01*
X0105663Y0140179D01*
X0099217Y0138211D02*
X0099217Y0137227D01*
X0099217Y0138211D02*
X0095280Y0142148D01*
X0095280Y0143132D01*
X0099217Y0143132D01*
X0092772Y0143132D02*
X0088835Y0143132D01*
X0088835Y0142148D01*
X0092772Y0138211D01*
X0092772Y0137227D01*
X0094026Y0132632D02*
X0094026Y0126727D01*
X0095994Y0126727D02*
X0092058Y0126727D01*
X0095994Y0130663D02*
X0094026Y0132632D01*
X0098233Y0127711D02*
X0098233Y0126727D01*
X0099217Y0126727D01*
X0099217Y0127711D01*
X0098233Y0127711D01*
X0101726Y0126727D02*
X0105663Y0126727D01*
X0103694Y0126727D02*
X0103694Y0132632D01*
X0105663Y0130663D01*
X0079881Y0138211D02*
X0078896Y0137227D01*
X0076928Y0137227D01*
X0075944Y0138211D01*
X0075944Y0140179D01*
X0077912Y0140179D01*
X0079881Y0138211D02*
X0079881Y0142148D01*
X0078896Y0143132D01*
X0076928Y0143132D01*
X0075944Y0142148D01*
X0073435Y0141163D02*
X0073435Y0137227D01*
X0073435Y0139195D02*
X0071467Y0141163D01*
X0070483Y0141163D01*
X0068064Y0140179D02*
X0068064Y0138211D01*
X0067080Y0137227D01*
X0065111Y0137227D01*
X0064127Y0138211D01*
X0064127Y0140179D01*
X0065111Y0141163D01*
X0067080Y0141163D01*
X0068064Y0140179D01*
X0061618Y0141163D02*
X0061618Y0138211D01*
X0060634Y0137227D01*
X0057682Y0137227D01*
X0057682Y0141163D01*
X0055173Y0141163D02*
X0052220Y0141163D01*
X0051236Y0140179D01*
X0051236Y0138211D01*
X0052220Y0137227D01*
X0055173Y0137227D01*
X0055173Y0135258D02*
X0055173Y0141163D01*
X0042282Y0140179D02*
X0038345Y0140179D01*
X0039329Y0137227D02*
X0039329Y0143132D01*
X0042282Y0140179D01*
X0065201Y0120163D02*
X0065201Y0115243D01*
X0066186Y0114258D01*
X0067170Y0114258D01*
X0068154Y0116227D02*
X0065201Y0116227D01*
X0068154Y0116227D02*
X0069138Y0117211D01*
X0069138Y0120163D01*
X0071647Y0119179D02*
X0072631Y0120163D01*
X0075584Y0120163D01*
X0075584Y0122132D02*
X0075584Y0116227D01*
X0072631Y0116227D01*
X0071647Y0117211D01*
X0071647Y0119179D01*
D11*
X0044967Y0031669D02*
X0044967Y0020252D01*
X0051857Y0012378D02*
X0110912Y0012378D01*
X0117802Y0020252D02*
X0117802Y0031669D01*
X0112880Y0031669D01*
X0116613Y0050603D02*
X0124487Y0050603D01*
X0121534Y0053359D02*
X0119172Y0051784D01*
X0119172Y0054933D01*
X0121534Y0053359D01*
X0120943Y0053359D02*
X0119762Y0052571D01*
X0119762Y0054146D01*
X0120943Y0053359D01*
X0120841Y0053427D02*
X0119762Y0053427D01*
X0119762Y0052628D02*
X0119848Y0052628D01*
X0116613Y0056115D02*
X0124487Y0056115D01*
X0107987Y0056126D02*
X0100113Y0056126D01*
X0102672Y0054945D02*
X0102672Y0051795D01*
X0105034Y0053370D01*
X0102672Y0054945D01*
X0103262Y0054157D02*
X0103262Y0052582D01*
X0104443Y0053370D01*
X0103262Y0054157D01*
X0103262Y0053427D02*
X0104358Y0053427D01*
X0103331Y0052628D02*
X0103262Y0052628D01*
X0100113Y0050614D02*
X0107987Y0050614D01*
X0049888Y0031669D02*
X0044967Y0031669D01*
D12*
X0105428Y0053370D03*
X0121928Y0053359D03*
D13*
X0024632Y0073244D02*
X0024632Y0104740D01*
X0009081Y0104740D01*
X0009081Y0108677D01*
X0009081Y0104740D02*
X0009081Y0073244D01*
X0024632Y0073244D01*
X0009081Y0073244D02*
X0009081Y0069307D01*
D14*
X0034491Y0085070D02*
X0040396Y0085070D01*
X0040396Y0090976D02*
X0034491Y0090976D01*
M02*
