G75*
%MOIN*%
%OFA0B0*%
%FSLAX25Y25*%
%IPPOS*%
%LPD*%
%AMOC8*
5,1,8,0,0,1.08239X$1,22.5*
%
%ADD10C,0.04143*%
%ADD11R,0.04931X0.04537*%
%ADD12R,0.04537X0.04931*%
%ADD13R,0.05915X0.03750*%
%ADD14R,0.01584X0.04931*%
%ADD15R,0.07293X0.06506*%
%ADD16R,0.04734X0.06112*%
%ADD17R,0.05915X0.02175*%
%ADD18R,0.06899X0.08868*%
%ADD19R,0.08080X0.08080*%
%ADD20R,0.03356X0.02372*%
%ADD21C,0.08000*%
%ADD22C,0.03500*%
%ADD23C,0.04000*%
D10*
X0125813Y0147850D03*
D11*
X0138384Y0143661D03*
X0138384Y0136968D03*
X0138884Y0089661D03*
X0138884Y0082968D03*
X0098884Y0045661D03*
X0098884Y0038968D03*
X0079719Y0036945D03*
X0074317Y0036931D03*
X0068999Y0036933D03*
X0068999Y0043626D03*
X0074317Y0043624D03*
X0079719Y0043637D03*
X0023884Y0046968D03*
X0023884Y0053661D03*
X0023884Y0029661D03*
X0023884Y0022968D03*
X0138884Y0022968D03*
X0138884Y0029661D03*
X0023884Y0136968D03*
X0023884Y0143661D03*
D12*
X0103884Y0045661D03*
X0108884Y0045661D03*
X0113825Y0045526D03*
X0113825Y0038833D03*
X0108884Y0038968D03*
X0103884Y0038968D03*
X0062170Y0037133D03*
X0057355Y0037133D03*
X0057355Y0043826D03*
X0062170Y0043826D03*
D13*
X0099050Y0053370D03*
X0109050Y0053370D03*
X0115550Y0053359D03*
X0125550Y0053359D03*
D14*
X0109928Y0031669D03*
X0107959Y0031669D03*
X0105991Y0031669D03*
X0104022Y0031669D03*
X0102054Y0031669D03*
X0100085Y0031669D03*
X0098117Y0031669D03*
X0096148Y0031669D03*
X0094180Y0031669D03*
X0092211Y0031669D03*
X0090243Y0031669D03*
X0088274Y0031669D03*
X0086306Y0031669D03*
X0084337Y0031669D03*
X0082369Y0031669D03*
X0080400Y0031669D03*
X0078432Y0031669D03*
X0076463Y0031669D03*
X0074495Y0031669D03*
X0072526Y0031669D03*
X0070558Y0031669D03*
X0068589Y0031669D03*
X0066621Y0031669D03*
X0064652Y0031669D03*
X0062684Y0031669D03*
X0060715Y0031669D03*
X0058747Y0031669D03*
X0056778Y0031669D03*
X0054810Y0031669D03*
X0052841Y0031669D03*
D15*
X0046345Y0016315D03*
X0116424Y0016315D03*
D16*
X0144400Y0022850D03*
X0150109Y0022850D03*
X0150109Y0037023D03*
X0144400Y0037023D03*
X0144400Y0081905D03*
X0150109Y0081905D03*
X0150109Y0096078D03*
X0144400Y0096078D03*
X0144400Y0137023D03*
X0150109Y0137023D03*
X0150109Y0151196D03*
X0144400Y0151196D03*
X0018644Y0151196D03*
X0012936Y0151196D03*
X0012936Y0137023D03*
X0018644Y0137023D03*
X0018644Y0060645D03*
X0012936Y0060645D03*
X0012936Y0046472D03*
X0018644Y0046472D03*
X0018644Y0037023D03*
X0012936Y0037023D03*
X0012936Y0022850D03*
X0018644Y0022850D03*
D17*
X0025321Y0083874D03*
X0025321Y0086433D03*
X0025321Y0088992D03*
X0025321Y0091551D03*
X0025321Y0094110D03*
D18*
X0024829Y0101196D03*
X0024829Y0076787D03*
D19*
X0014790Y0072850D03*
X0014790Y0084267D03*
X0014790Y0093716D03*
X0014790Y0105133D03*
D20*
X0034392Y0089598D03*
X0034392Y0086448D03*
X0040495Y0086448D03*
X0040495Y0089598D03*
D21*
X0014884Y0012315D03*
X0034884Y0044315D03*
X0034884Y0054315D03*
X0034884Y0064315D03*
X0034884Y0074315D03*
X0147884Y0012315D03*
X0047884Y0159315D03*
X0037884Y0159315D03*
X0014884Y0160315D03*
X0147884Y0160315D03*
D22*
X0090884Y0151315D03*
X0089884Y0157315D03*
X0089884Y0163315D03*
X0069884Y0153915D03*
X0083884Y0145315D03*
X0077284Y0139315D03*
X0083884Y0132315D03*
X0074884Y0124315D03*
X0072884Y0121315D03*
X0083884Y0122315D03*
X0074884Y0107315D03*
X0069884Y0096315D03*
X0070884Y0090315D03*
X0064884Y0089315D03*
X0068884Y0085315D03*
X0060884Y0079315D03*
X0054884Y0089315D03*
X0040884Y0080315D03*
X0048884Y0065315D03*
X0048884Y0058315D03*
X0048884Y0052315D03*
X0057884Y0052315D03*
X0066884Y0058315D03*
X0071884Y0057315D03*
X0077884Y0056315D03*
X0071884Y0064315D03*
X0067884Y0067315D03*
X0080884Y0068315D03*
X0092884Y0068315D03*
X0093884Y0074315D03*
X0090884Y0077315D03*
X0091884Y0081315D03*
X0099884Y0088315D03*
X0104884Y0083815D03*
X0107884Y0085815D03*
X0110884Y0083815D03*
X0113884Y0081815D03*
X0125884Y0081315D03*
X0138884Y0096315D03*
X0123884Y0104315D03*
X0107884Y0113315D03*
X0104884Y0110315D03*
X0110884Y0118815D03*
X0113884Y0121315D03*
X0123884Y0116315D03*
X0080884Y0078315D03*
X0101884Y0068315D03*
X0103884Y0059315D03*
X0090884Y0059315D03*
X0090884Y0052315D03*
X0125884Y0029315D03*
X0125884Y0016315D03*
X0138884Y0016315D03*
X0102884Y0016315D03*
X0081884Y0023315D03*
X0076884Y0023315D03*
X0076884Y0016315D03*
X0065884Y0024315D03*
X0061884Y0027115D03*
X0060884Y0016315D03*
X0034884Y0017315D03*
X0023884Y0017315D03*
X0034884Y0028315D03*
X0023884Y0041315D03*
X0035884Y0098315D03*
X0044884Y0103315D03*
X0029884Y0121315D03*
X0011884Y0115315D03*
D23*
X0047884Y0132315D03*
X0120884Y0129315D03*
X0142184Y0129315D03*
X0147884Y0129315D03*
X0145884Y0076315D03*
X0120884Y0036315D03*
M02*
