G75*
%MOIN*%
%OFA0B0*%
%FSLAX25Y25*%
%IPPOS*%
%LPD*%
%AMOC8*
5,1,8,0,0,1.08239X$1,22.5*
%
%ADD10R,0.04331X0.03937*%
%ADD11R,0.03937X0.04331*%
%ADD12R,0.05315X0.03150*%
%ADD13R,0.00984X0.04331*%
%ADD14R,0.06693X0.05906*%
%ADD15R,0.04134X0.05512*%
%ADD16R,0.05315X0.01575*%
%ADD17R,0.06299X0.08268*%
%ADD18R,0.07480X0.07480*%
%ADD19R,0.02756X0.01772*%
%ADD20C,0.07400*%
%ADD21C,0.01000*%
%ADD22C,0.02900*%
%ADD23C,0.01600*%
%ADD24C,0.03400*%
%ADD25C,0.01200*%
D10*
X0023884Y0022968D03*
X0023884Y0029661D03*
X0023884Y0046968D03*
X0023884Y0053661D03*
X0068999Y0043626D03*
X0074317Y0043624D03*
X0079719Y0043637D03*
X0079719Y0036945D03*
X0074317Y0036931D03*
X0068999Y0036933D03*
X0098884Y0038968D03*
X0098884Y0045661D03*
X0138884Y0029661D03*
X0138884Y0022968D03*
X0138884Y0082968D03*
X0138884Y0089661D03*
X0138384Y0136968D03*
X0138384Y0143661D03*
X0023884Y0143661D03*
X0023884Y0136968D03*
D11*
X0103884Y0045661D03*
X0108884Y0045661D03*
X0113825Y0045526D03*
X0113825Y0038833D03*
X0108884Y0038968D03*
X0103884Y0038968D03*
X0062170Y0037133D03*
X0057355Y0037133D03*
X0057355Y0043826D03*
X0062170Y0043826D03*
D12*
X0099050Y0053370D03*
X0109050Y0053370D03*
X0115550Y0053359D03*
X0125550Y0053359D03*
D13*
X0109928Y0031669D03*
X0107959Y0031669D03*
X0105991Y0031669D03*
X0104022Y0031669D03*
X0102054Y0031669D03*
X0100085Y0031669D03*
X0098117Y0031669D03*
X0096148Y0031669D03*
X0094180Y0031669D03*
X0092211Y0031669D03*
X0090243Y0031669D03*
X0088274Y0031669D03*
X0086306Y0031669D03*
X0084337Y0031669D03*
X0082369Y0031669D03*
X0080400Y0031669D03*
X0078432Y0031669D03*
X0076463Y0031669D03*
X0074495Y0031669D03*
X0072526Y0031669D03*
X0070558Y0031669D03*
X0068589Y0031669D03*
X0066621Y0031669D03*
X0064652Y0031669D03*
X0062684Y0031669D03*
X0060715Y0031669D03*
X0058747Y0031669D03*
X0056778Y0031669D03*
X0054810Y0031669D03*
X0052841Y0031669D03*
D14*
X0046345Y0016315D03*
X0116424Y0016315D03*
D15*
X0144400Y0022850D03*
X0150109Y0022850D03*
X0150109Y0037023D03*
X0144400Y0037023D03*
X0144400Y0081905D03*
X0150109Y0081905D03*
X0150109Y0096078D03*
X0144400Y0096078D03*
X0144400Y0137023D03*
X0150109Y0137023D03*
X0150109Y0151196D03*
X0144400Y0151196D03*
X0018644Y0151196D03*
X0012936Y0151196D03*
X0012936Y0137023D03*
X0018644Y0137023D03*
X0018644Y0060645D03*
X0012936Y0060645D03*
X0012936Y0046472D03*
X0018644Y0046472D03*
X0018644Y0037023D03*
X0012936Y0037023D03*
X0012936Y0022850D03*
X0018644Y0022850D03*
D16*
X0025321Y0083874D03*
X0025321Y0086433D03*
X0025321Y0088992D03*
X0025321Y0091551D03*
X0025321Y0094110D03*
D17*
X0024829Y0101196D03*
X0024829Y0076787D03*
D18*
X0014790Y0072850D03*
X0014790Y0084267D03*
X0014790Y0093716D03*
X0014790Y0105133D03*
D19*
X0034392Y0089598D03*
X0034392Y0086448D03*
X0040495Y0086448D03*
X0040495Y0089598D03*
D20*
X0034884Y0074315D03*
X0034884Y0064315D03*
X0034884Y0054315D03*
X0034884Y0044315D03*
X0014884Y0012315D03*
X0147884Y0012315D03*
X0047884Y0159315D03*
X0037884Y0159315D03*
X0014884Y0160315D03*
X0147884Y0160315D03*
D21*
X0018954Y0009596D02*
X0017673Y0008315D01*
X0145096Y0008315D01*
X0143815Y0009596D01*
X0143084Y0011360D01*
X0143084Y0013269D01*
X0143815Y0015034D01*
X0145165Y0016384D01*
X0146930Y0017115D01*
X0148839Y0017115D01*
X0150603Y0016384D01*
X0151884Y0015103D01*
X0151884Y0018994D01*
X0147586Y0018994D01*
X0147254Y0019326D01*
X0146923Y0018994D01*
X0141878Y0018994D01*
X0141233Y0019638D01*
X0141233Y0019900D01*
X0136263Y0019900D01*
X0135619Y0020544D01*
X0135619Y0025392D01*
X0136263Y0026037D01*
X0141233Y0026037D01*
X0141233Y0026062D01*
X0141407Y0026235D01*
X0141247Y0026193D01*
X0139369Y0026193D01*
X0139369Y0029177D01*
X0139369Y0030145D01*
X0142550Y0030145D01*
X0142550Y0031827D01*
X0142447Y0032209D01*
X0142250Y0032551D01*
X0141971Y0032830D01*
X0141629Y0033027D01*
X0141247Y0033130D01*
X0139369Y0033130D01*
X0139369Y0030145D01*
X0138400Y0030145D01*
X0138400Y0029177D01*
X0135219Y0029177D01*
X0135219Y0027495D01*
X0135321Y0027114D01*
X0135519Y0026772D01*
X0135798Y0026492D01*
X0136140Y0026295D01*
X0136522Y0026193D01*
X0138400Y0026193D01*
X0138400Y0029177D01*
X0139369Y0029177D01*
X0142550Y0029177D01*
X0142550Y0027495D01*
X0142447Y0027114D01*
X0142250Y0026772D01*
X0142184Y0026706D01*
X0142682Y0026706D01*
X0142682Y0033167D01*
X0141878Y0033167D01*
X0141233Y0033812D01*
X0141233Y0040235D01*
X0141878Y0040879D01*
X0143284Y0040879D01*
X0143284Y0071652D01*
X0142222Y0072715D01*
X0095891Y0072715D01*
X0095329Y0072153D01*
X0094392Y0071765D01*
X0093377Y0071765D01*
X0092440Y0072153D01*
X0091723Y0072870D01*
X0091334Y0073807D01*
X0091334Y0074765D01*
X0090377Y0074765D01*
X0089440Y0075153D01*
X0088723Y0075870D01*
X0088334Y0076807D01*
X0088334Y0077822D01*
X0088723Y0078759D01*
X0089440Y0079476D01*
X0089918Y0079674D01*
X0089723Y0079870D01*
X0089334Y0080807D01*
X0089334Y0081822D01*
X0089723Y0082759D01*
X0090440Y0083476D01*
X0091377Y0083865D01*
X0092392Y0083865D01*
X0093329Y0083476D01*
X0093891Y0082915D01*
X0094547Y0082915D01*
X0095547Y0081915D01*
X0103178Y0081915D01*
X0102723Y0082370D01*
X0102334Y0083307D01*
X0102334Y0084322D01*
X0102723Y0085259D01*
X0103284Y0085821D01*
X0103284Y0108308D01*
X0102723Y0108870D01*
X0102334Y0109807D01*
X0102334Y0110822D01*
X0102723Y0111759D01*
X0103440Y0112476D01*
X0104377Y0112865D01*
X0105334Y0112865D01*
X0105334Y0113822D01*
X0105723Y0114759D01*
X0106440Y0115476D01*
X0107377Y0115865D01*
X0108392Y0115865D01*
X0109284Y0115495D01*
X0109284Y0116808D01*
X0108723Y0117370D01*
X0108334Y0118307D01*
X0108334Y0119322D01*
X0108723Y0120259D01*
X0109440Y0120976D01*
X0110377Y0121365D01*
X0111334Y0121365D01*
X0111334Y0121822D01*
X0111723Y0122759D01*
X0112440Y0123476D01*
X0113377Y0123865D01*
X0114392Y0123865D01*
X0115329Y0123476D01*
X0116046Y0122759D01*
X0116434Y0121822D01*
X0116434Y0120807D01*
X0116046Y0119870D01*
X0115484Y0119308D01*
X0115484Y0083821D01*
X0116046Y0083259D01*
X0116434Y0082322D01*
X0116434Y0081307D01*
X0116046Y0080370D01*
X0115591Y0079915D01*
X0132222Y0079915D01*
X0132284Y0079977D01*
X0132284Y0099977D01*
X0134284Y0101977D01*
X0135222Y0102915D01*
X0142422Y0102915D01*
X0143484Y0103977D01*
X0143484Y0126822D01*
X0142741Y0126515D01*
X0141627Y0126515D01*
X0140598Y0126941D01*
X0140125Y0127415D01*
X0122944Y0127415D01*
X0122470Y0126941D01*
X0121441Y0126515D01*
X0120327Y0126515D01*
X0119298Y0126941D01*
X0118511Y0127729D01*
X0118084Y0128758D01*
X0118084Y0129872D01*
X0118511Y0130901D01*
X0119298Y0131688D01*
X0120327Y0132115D01*
X0121441Y0132115D01*
X0122470Y0131688D01*
X0122944Y0131215D01*
X0140125Y0131215D01*
X0140598Y0131688D01*
X0141627Y0132115D01*
X0142741Y0132115D01*
X0143484Y0131807D01*
X0143484Y0133167D01*
X0141878Y0133167D01*
X0141233Y0133812D01*
X0141233Y0134127D01*
X0141005Y0133900D01*
X0135763Y0133900D01*
X0135119Y0134544D01*
X0135119Y0139392D01*
X0135763Y0140037D01*
X0141005Y0140037D01*
X0141233Y0139809D01*
X0141233Y0140235D01*
X0141878Y0140879D01*
X0142800Y0140879D01*
X0142800Y0147341D01*
X0141878Y0147341D01*
X0141233Y0147985D01*
X0141233Y0154408D01*
X0141878Y0155052D01*
X0146923Y0155052D01*
X0147254Y0154721D01*
X0147586Y0155052D01*
X0151884Y0155052D01*
X0151884Y0157526D01*
X0150603Y0156245D01*
X0148839Y0155515D01*
X0146930Y0155515D01*
X0145165Y0156245D01*
X0143815Y0157596D01*
X0143084Y0159360D01*
X0143084Y0161269D01*
X0143815Y0163034D01*
X0145096Y0164315D01*
X0140889Y0164315D01*
X0140784Y0147915D01*
X0129585Y0147915D01*
X0129585Y0147100D01*
X0129011Y0145714D01*
X0127950Y0144653D01*
X0126564Y0144078D01*
X0125063Y0144078D01*
X0123677Y0144653D01*
X0122616Y0145714D01*
X0122042Y0147100D01*
X0122042Y0147915D01*
X0094784Y0147915D01*
X0094873Y0164315D01*
X0049323Y0164315D01*
X0049880Y0164134D01*
X0050610Y0163762D01*
X0051272Y0163281D01*
X0051851Y0162702D01*
X0052332Y0162040D01*
X0052703Y0161311D01*
X0052956Y0160532D01*
X0053070Y0159815D01*
X0048384Y0159815D01*
X0048384Y0158815D01*
X0053070Y0158815D01*
X0052956Y0158097D01*
X0052703Y0157318D01*
X0052332Y0156589D01*
X0051851Y0155927D01*
X0051272Y0155348D01*
X0050610Y0154867D01*
X0049880Y0154496D01*
X0049102Y0154243D01*
X0048384Y0154129D01*
X0048384Y0158815D01*
X0047384Y0158815D01*
X0042699Y0158815D01*
X0042812Y0158097D01*
X0043065Y0157318D01*
X0043437Y0156589D01*
X0043918Y0155927D01*
X0044497Y0155348D01*
X0045159Y0154867D01*
X0045888Y0154496D01*
X0046667Y0154243D01*
X0047384Y0154129D01*
X0047384Y0158815D01*
X0047384Y0159815D01*
X0042699Y0159815D01*
X0042812Y0160532D01*
X0043065Y0161311D01*
X0043437Y0162040D01*
X0043918Y0162702D01*
X0044497Y0163281D01*
X0045159Y0163762D01*
X0045888Y0164134D01*
X0046445Y0164315D01*
X0017673Y0164315D01*
X0018954Y0163034D01*
X0019684Y0161269D01*
X0019684Y0159360D01*
X0018954Y0157596D01*
X0017603Y0156245D01*
X0015839Y0155515D01*
X0013930Y0155515D01*
X0012165Y0156245D01*
X0010884Y0157526D01*
X0010884Y0155052D01*
X0015458Y0155052D01*
X0015790Y0154721D01*
X0016122Y0155052D01*
X0021167Y0155052D01*
X0021811Y0154408D01*
X0021811Y0147985D01*
X0021167Y0147341D01*
X0020244Y0147341D01*
X0020244Y0145921D01*
X0020321Y0146209D01*
X0020519Y0146551D01*
X0020798Y0146830D01*
X0021140Y0147027D01*
X0021522Y0147130D01*
X0023400Y0147130D01*
X0023400Y0144145D01*
X0024369Y0144145D01*
X0027550Y0144145D01*
X0027550Y0145827D01*
X0027447Y0146209D01*
X0027250Y0146551D01*
X0026971Y0146830D01*
X0026629Y0147027D01*
X0026247Y0147130D01*
X0024369Y0147130D01*
X0024369Y0144145D01*
X0024369Y0143177D01*
X0027550Y0143177D01*
X0027550Y0141495D01*
X0027447Y0141114D01*
X0068284Y0141114D01*
X0068284Y0142112D02*
X0027550Y0142112D01*
X0027550Y0143111D02*
X0068284Y0143111D01*
X0068284Y0144109D02*
X0024369Y0144109D01*
X0024369Y0143177D02*
X0024369Y0140193D01*
X0026247Y0140193D01*
X0026629Y0140295D01*
X0026971Y0140492D01*
X0027250Y0140772D01*
X0027447Y0141114D01*
X0026505Y0140037D02*
X0021811Y0140037D01*
X0021811Y0140193D01*
X0023400Y0140193D01*
X0023400Y0143177D01*
X0024369Y0143177D01*
X0024369Y0143111D02*
X0023400Y0143111D01*
X0023400Y0142112D02*
X0024369Y0142112D01*
X0024369Y0141114D02*
X0023400Y0141114D01*
X0021811Y0140115D02*
X0068284Y0140115D01*
X0068284Y0139117D02*
X0027150Y0139117D01*
X0027150Y0139392D02*
X0026505Y0140037D01*
X0027150Y0139392D02*
X0027150Y0138568D01*
X0057894Y0138568D01*
X0059547Y0136915D01*
X0060484Y0135977D01*
X0060484Y0129652D01*
X0058547Y0127715D01*
X0050547Y0127715D01*
X0042484Y0119652D01*
X0042484Y0104184D01*
X0042723Y0104759D01*
X0043440Y0105476D01*
X0044377Y0105865D01*
X0045392Y0105865D01*
X0046329Y0105476D01*
X0047046Y0104759D01*
X0047434Y0103822D01*
X0047434Y0102807D01*
X0047046Y0101870D01*
X0046819Y0101643D01*
X0051547Y0096915D01*
X0067373Y0096915D01*
X0067723Y0097759D01*
X0068440Y0098476D01*
X0069377Y0098865D01*
X0070392Y0098865D01*
X0071329Y0098476D01*
X0071891Y0097915D01*
X0076222Y0097915D01*
X0077284Y0098977D01*
X0077284Y0119652D01*
X0075434Y0121502D01*
X0075434Y0120807D01*
X0075046Y0119870D01*
X0074329Y0119153D01*
X0073392Y0118765D01*
X0072377Y0118765D01*
X0071440Y0119153D01*
X0070723Y0119870D01*
X0070334Y0120807D01*
X0070334Y0121092D01*
X0069400Y0121715D01*
X0069222Y0121715D01*
X0068865Y0122071D01*
X0068445Y0122351D01*
X0068410Y0122526D01*
X0068284Y0122652D01*
X0068284Y0123156D01*
X0068185Y0123651D01*
X0068284Y0123799D01*
X0068284Y0151908D01*
X0067723Y0152470D01*
X0067334Y0153407D01*
X0067334Y0154422D01*
X0067723Y0155359D01*
X0068440Y0156076D01*
X0069377Y0156465D01*
X0070392Y0156465D01*
X0071329Y0156076D01*
X0072046Y0155359D01*
X0072434Y0154422D01*
X0072434Y0153407D01*
X0072046Y0152470D01*
X0071484Y0151908D01*
X0071484Y0124171D01*
X0072110Y0123754D01*
X0072334Y0123847D01*
X0072334Y0124822D01*
X0072723Y0125759D01*
X0073284Y0126321D01*
X0073284Y0155977D01*
X0074222Y0156915D01*
X0076222Y0158915D01*
X0087878Y0158915D01*
X0088440Y0159476D01*
X0089377Y0159865D01*
X0090392Y0159865D01*
X0091329Y0159476D01*
X0092046Y0158759D01*
X0092434Y0157822D01*
X0092434Y0156807D01*
X0092046Y0155870D01*
X0091329Y0155153D01*
X0090392Y0154765D01*
X0089377Y0154765D01*
X0088440Y0155153D01*
X0087878Y0155715D01*
X0077547Y0155715D01*
X0076484Y0154652D01*
X0076484Y0141743D01*
X0076777Y0141865D01*
X0077792Y0141865D01*
X0078729Y0141476D01*
X0079446Y0140759D01*
X0079834Y0139822D01*
X0079834Y0138807D01*
X0079446Y0137870D01*
X0078729Y0137153D01*
X0077792Y0136765D01*
X0076777Y0136765D01*
X0076484Y0136886D01*
X0076484Y0126321D01*
X0077046Y0125759D01*
X0077434Y0124822D01*
X0077434Y0124027D01*
X0080484Y0120977D01*
X0080484Y0097652D01*
X0079547Y0096715D01*
X0077547Y0094715D01*
X0071891Y0094715D01*
X0071329Y0094153D01*
X0070392Y0093765D01*
X0069597Y0093765D01*
X0069547Y0093715D01*
X0050222Y0093715D01*
X0049284Y0094652D01*
X0043284Y0100652D01*
X0043284Y0101308D01*
X0042723Y0101870D01*
X0042484Y0102445D01*
X0042484Y0099977D01*
X0052424Y0090038D01*
X0052723Y0090759D01*
X0053440Y0091476D01*
X0054377Y0091865D01*
X0055392Y0091865D01*
X0056329Y0091476D01*
X0056891Y0090915D01*
X0062878Y0090915D01*
X0063440Y0091476D01*
X0064377Y0091865D01*
X0065392Y0091865D01*
X0066329Y0091476D01*
X0067046Y0090759D01*
X0067434Y0089822D01*
X0067434Y0088807D01*
X0067046Y0087870D01*
X0066329Y0087153D01*
X0065392Y0086765D01*
X0064377Y0086765D01*
X0063440Y0087153D01*
X0062878Y0087715D01*
X0056891Y0087715D01*
X0056329Y0087153D01*
X0055608Y0086854D01*
X0059547Y0082915D01*
X0059547Y0082915D01*
X0060597Y0081865D01*
X0061392Y0081865D01*
X0062329Y0081476D01*
X0063046Y0080759D01*
X0063434Y0079822D01*
X0063434Y0078807D01*
X0063046Y0077870D01*
X0062329Y0077153D01*
X0061392Y0076765D01*
X0060377Y0076765D01*
X0059440Y0077153D01*
X0058723Y0077870D01*
X0058334Y0078807D01*
X0058334Y0079602D01*
X0057284Y0080652D01*
X0057284Y0080652D01*
X0039284Y0098652D01*
X0039284Y0120977D01*
X0040222Y0121915D01*
X0040222Y0121915D01*
X0047822Y0129515D01*
X0047771Y0129515D01*
X0046671Y0128415D01*
X0014097Y0128415D01*
X0012984Y0129528D01*
X0011036Y0131476D01*
X0011036Y0133167D01*
X0010884Y0133167D01*
X0010884Y0117660D01*
X0011377Y0117865D01*
X0012392Y0117865D01*
X0013329Y0117476D01*
X0014046Y0116759D01*
X0014434Y0115822D01*
X0014434Y0115169D01*
X0014589Y0115015D01*
X0030589Y0115015D01*
X0031584Y0114019D01*
X0032584Y0113019D01*
X0032584Y0095019D01*
X0032589Y0095015D01*
X0037589Y0095015D01*
X0038584Y0094019D01*
X0039184Y0093419D01*
X0039184Y0091584D01*
X0042328Y0091584D01*
X0042714Y0091198D01*
X0045264Y0091198D01*
X0066826Y0069636D01*
X0067377Y0069865D01*
X0068392Y0069865D01*
X0069329Y0069476D01*
X0070046Y0068759D01*
X0070434Y0067822D01*
X0070434Y0066807D01*
X0070196Y0066233D01*
X0070440Y0066476D01*
X0071377Y0066865D01*
X0072392Y0066865D01*
X0073329Y0066476D01*
X0074046Y0065759D01*
X0074434Y0064822D01*
X0074434Y0063807D01*
X0074065Y0062915D01*
X0082547Y0062915D01*
X0090597Y0054865D01*
X0091392Y0054865D01*
X0092329Y0054476D01*
X0093046Y0053759D01*
X0093434Y0052822D01*
X0093434Y0051807D01*
X0093046Y0050870D01*
X0092329Y0050153D01*
X0091392Y0049765D01*
X0090377Y0049765D01*
X0089440Y0050153D01*
X0088723Y0050870D01*
X0088334Y0051807D01*
X0088334Y0052602D01*
X0081222Y0059715D01*
X0072754Y0059715D01*
X0073329Y0059476D01*
X0074046Y0058759D01*
X0074434Y0057822D01*
X0074434Y0056807D01*
X0074046Y0055870D01*
X0073484Y0055308D01*
X0073484Y0053977D01*
X0073547Y0053915D01*
X0085547Y0053915D01*
X0086484Y0052977D01*
X0087906Y0051556D01*
X0087906Y0034934D01*
X0089222Y0034934D01*
X0089258Y0034898D01*
X0089295Y0034934D01*
X0091190Y0034934D01*
X0091227Y0034898D01*
X0091263Y0034934D01*
X0093159Y0034934D01*
X0093195Y0034898D01*
X0093232Y0034934D01*
X0095127Y0034934D01*
X0095164Y0034898D01*
X0095200Y0034934D01*
X0097096Y0034934D01*
X0097132Y0034898D01*
X0097169Y0034934D01*
X0098802Y0034934D01*
X0098384Y0035352D01*
X0098384Y0035900D01*
X0096263Y0035900D01*
X0095619Y0036544D01*
X0095619Y0041392D01*
X0096263Y0042037D01*
X0101263Y0042037D01*
X0101329Y0042102D01*
X0100995Y0042295D01*
X0100716Y0042575D01*
X0100705Y0042593D01*
X0096263Y0042593D01*
X0095619Y0043237D01*
X0095619Y0048085D01*
X0096263Y0048730D01*
X0097284Y0048730D01*
X0097284Y0048912D01*
X0097257Y0048942D01*
X0097284Y0049570D01*
X0097284Y0050198D01*
X0097313Y0050226D01*
X0097333Y0050695D01*
X0095937Y0050695D01*
X0095292Y0051339D01*
X0095292Y0055400D01*
X0095937Y0056045D01*
X0102163Y0056045D01*
X0102807Y0055400D01*
X0102807Y0051339D01*
X0102163Y0050695D01*
X0100536Y0050695D01*
X0100484Y0049500D01*
X0100484Y0048730D01*
X0100705Y0048730D01*
X0100716Y0048747D01*
X0100995Y0049027D01*
X0101337Y0049224D01*
X0101718Y0049326D01*
X0103400Y0049326D01*
X0103400Y0046145D01*
X0104369Y0046145D01*
X0108400Y0046145D01*
X0108400Y0045177D01*
X0107353Y0045177D01*
X0104369Y0045177D01*
X0104369Y0046145D01*
X0104369Y0049326D01*
X0106050Y0049326D01*
X0106384Y0049237D01*
X0106718Y0049326D01*
X0108400Y0049326D01*
X0108400Y0046145D01*
X0109369Y0046145D01*
X0110357Y0046145D01*
X0110357Y0046011D01*
X0113341Y0046011D01*
X0113341Y0049192D01*
X0111659Y0049192D01*
X0111542Y0049160D01*
X0111432Y0049224D01*
X0111050Y0049326D01*
X0109369Y0049326D01*
X0109369Y0046145D01*
X0109369Y0045177D01*
X0112353Y0045177D01*
X0112353Y0045042D01*
X0113341Y0045042D01*
X0113341Y0046011D01*
X0114310Y0046011D01*
X0117294Y0046011D01*
X0117294Y0047889D01*
X0117192Y0048271D01*
X0116994Y0048613D01*
X0116715Y0048892D01*
X0116373Y0049090D01*
X0115991Y0049192D01*
X0114310Y0049192D01*
X0114310Y0046011D01*
X0114310Y0045042D01*
X0117294Y0045042D01*
X0117294Y0043164D01*
X0117192Y0042782D01*
X0116994Y0042440D01*
X0116715Y0042161D01*
X0116381Y0041968D01*
X0116894Y0041454D01*
X0116894Y0038215D01*
X0118825Y0038215D01*
X0119298Y0038688D01*
X0120327Y0039115D01*
X0121441Y0039115D01*
X0122470Y0038688D01*
X0123258Y0037901D01*
X0123684Y0036872D01*
X0123684Y0035758D01*
X0123258Y0034729D01*
X0122470Y0033941D01*
X0121441Y0033515D01*
X0120327Y0033515D01*
X0119298Y0033941D01*
X0118825Y0034415D01*
X0115047Y0034415D01*
X0114447Y0033815D01*
X0114147Y0033515D01*
X0111920Y0033515D01*
X0111920Y0031669D01*
X0109928Y0031669D01*
X0109928Y0031669D01*
X0111920Y0031669D01*
X0111920Y0029306D01*
X0111818Y0028925D01*
X0111620Y0028583D01*
X0111341Y0028303D01*
X0110999Y0028106D01*
X0110617Y0028004D01*
X0109928Y0028004D01*
X0109928Y0031669D01*
X0109928Y0031669D01*
X0109928Y0028004D01*
X0109238Y0028004D01*
X0108857Y0028106D01*
X0108515Y0028303D01*
X0108414Y0028404D01*
X0107011Y0028404D01*
X0106975Y0028440D01*
X0106938Y0028404D01*
X0105484Y0028404D01*
X0105484Y0021652D01*
X0104547Y0020715D01*
X0103777Y0019945D01*
X0103777Y0019945D01*
X0103309Y0019476D01*
X0102994Y0019161D01*
X0102840Y0019007D01*
X0102694Y0019007D01*
X0102236Y0018818D01*
X0102133Y0018715D01*
X0060222Y0018715D01*
X0059284Y0019652D01*
X0058377Y0020559D01*
X0058377Y0020559D01*
X0057908Y0021028D01*
X0057908Y0021028D01*
X0057580Y0021356D01*
X0057439Y0021497D01*
X0057439Y0021642D01*
X0057250Y0022101D01*
X0057147Y0022204D01*
X0057147Y0028004D01*
X0056778Y0028004D01*
X0056778Y0031669D01*
X0056778Y0031669D01*
X0056778Y0028004D01*
X0056088Y0028004D01*
X0055707Y0028106D01*
X0055365Y0028303D01*
X0055265Y0028404D01*
X0054354Y0028404D01*
X0054254Y0028303D01*
X0053912Y0028106D01*
X0053531Y0028004D01*
X0052841Y0028004D01*
X0052841Y0031669D01*
X0052841Y0035334D01*
X0052151Y0035334D01*
X0051770Y0035232D01*
X0051428Y0035035D01*
X0051149Y0034755D01*
X0050951Y0034413D01*
X0050849Y0034032D01*
X0050849Y0031669D01*
X0052841Y0031669D01*
X0052841Y0031669D01*
X0052841Y0031669D01*
X0052841Y0035334D01*
X0053531Y0035334D01*
X0053912Y0035232D01*
X0054254Y0035035D01*
X0054287Y0035002D01*
X0054287Y0039754D01*
X0054800Y0040268D01*
X0054466Y0040461D01*
X0054186Y0040740D01*
X0053989Y0041082D01*
X0053887Y0041464D01*
X0053887Y0043342D01*
X0056871Y0043342D01*
X0056871Y0044311D01*
X0056871Y0047492D01*
X0055189Y0047492D01*
X0054808Y0047390D01*
X0054466Y0047192D01*
X0054186Y0046913D01*
X0053989Y0046571D01*
X0053887Y0046189D01*
X0053887Y0044311D01*
X0056871Y0044311D01*
X0057839Y0044311D01*
X0057839Y0047492D01*
X0059521Y0047492D01*
X0059763Y0047427D01*
X0060004Y0047492D01*
X0061686Y0047492D01*
X0061686Y0044311D01*
X0062654Y0044311D01*
X0062654Y0047492D01*
X0064336Y0047492D01*
X0064718Y0047390D01*
X0065060Y0047192D01*
X0065339Y0046913D01*
X0065536Y0046571D01*
X0065577Y0046418D01*
X0065634Y0046516D01*
X0065913Y0046795D01*
X0066255Y0046993D01*
X0066636Y0047095D01*
X0068515Y0047095D01*
X0068515Y0044111D01*
X0069484Y0044111D01*
X0070652Y0044111D01*
X0070652Y0044108D01*
X0073833Y0044108D01*
X0073833Y0043140D01*
X0072665Y0043140D01*
X0072665Y0043142D01*
X0069484Y0043142D01*
X0069484Y0044111D01*
X0069484Y0047095D01*
X0071362Y0047095D01*
X0071663Y0047014D01*
X0071955Y0047093D01*
X0073833Y0047093D01*
X0073833Y0044108D01*
X0074802Y0044108D01*
X0077983Y0044108D01*
X0077983Y0044122D01*
X0079235Y0044122D01*
X0079235Y0047106D01*
X0077356Y0047106D01*
X0076993Y0047009D01*
X0076680Y0047093D01*
X0074802Y0047093D01*
X0074802Y0044108D01*
X0074802Y0043140D01*
X0076054Y0043140D01*
X0076054Y0043153D01*
X0079235Y0043153D01*
X0080203Y0043153D01*
X0080203Y0040169D01*
X0082082Y0040169D01*
X0082463Y0040271D01*
X0082737Y0040429D01*
X0082737Y0039616D01*
X0082340Y0040013D01*
X0077098Y0040013D01*
X0077012Y0039927D01*
X0076938Y0040000D01*
X0071696Y0040000D01*
X0071660Y0039963D01*
X0071620Y0040002D01*
X0066378Y0040002D01*
X0065734Y0039358D01*
X0065734Y0034934D01*
X0065673Y0034934D01*
X0065636Y0034898D01*
X0065600Y0034934D01*
X0065239Y0034934D01*
X0065239Y0039754D01*
X0064725Y0040268D01*
X0065060Y0040461D01*
X0065339Y0040740D01*
X0065485Y0040994D01*
X0065634Y0040737D01*
X0065913Y0040458D01*
X0066255Y0040260D01*
X0066636Y0040158D01*
X0068515Y0040158D01*
X0068515Y0043142D01*
X0069484Y0043142D01*
X0069484Y0040158D01*
X0071362Y0040158D01*
X0071654Y0040236D01*
X0071955Y0040156D01*
X0073833Y0040156D01*
X0073833Y0043140D01*
X0074802Y0043140D01*
X0074802Y0040156D01*
X0076680Y0040156D01*
X0077043Y0040253D01*
X0077356Y0040169D01*
X0079235Y0040169D01*
X0079235Y0043153D01*
X0079235Y0044122D01*
X0080203Y0044122D01*
X0080203Y0047106D01*
X0082082Y0047106D01*
X0082463Y0047004D01*
X0082737Y0046846D01*
X0082737Y0047715D01*
X0069222Y0047715D01*
X0066222Y0050715D01*
X0065284Y0051652D01*
X0065284Y0056308D01*
X0064723Y0056870D01*
X0064334Y0057807D01*
X0064334Y0058822D01*
X0064704Y0059715D01*
X0043547Y0059715D01*
X0042484Y0058652D01*
X0042484Y0034652D01*
X0041547Y0033715D01*
X0039547Y0031715D01*
X0031547Y0031715D01*
X0030484Y0030652D01*
X0030484Y0023652D01*
X0029547Y0022715D01*
X0028201Y0021368D01*
X0027150Y0021368D01*
X0027150Y0020544D01*
X0026505Y0019900D01*
X0021811Y0019900D01*
X0021811Y0019638D01*
X0021167Y0018994D01*
X0016122Y0018994D01*
X0015790Y0019326D01*
X0015458Y0018994D01*
X0010884Y0018994D01*
X0010884Y0015103D01*
X0012165Y0016384D01*
X0013930Y0017115D01*
X0015839Y0017115D01*
X0017603Y0016384D01*
X0018954Y0015034D01*
X0019684Y0013269D01*
X0019684Y0011360D01*
X0018954Y0009596D01*
X0018668Y0009310D02*
X0144101Y0009310D01*
X0143520Y0010309D02*
X0019249Y0010309D01*
X0019663Y0011307D02*
X0143106Y0011307D01*
X0143084Y0012306D02*
X0120270Y0012306D01*
X0120226Y0012262D02*
X0120870Y0012906D01*
X0120870Y0019723D01*
X0120226Y0020367D01*
X0112622Y0020367D01*
X0111977Y0019723D01*
X0111977Y0012906D01*
X0112622Y0012262D01*
X0120226Y0012262D01*
X0120870Y0013304D02*
X0143099Y0013304D01*
X0143512Y0014303D02*
X0120870Y0014303D01*
X0120870Y0015301D02*
X0144083Y0015301D01*
X0145081Y0016300D02*
X0120870Y0016300D01*
X0120870Y0017298D02*
X0151884Y0017298D01*
X0151884Y0016300D02*
X0150687Y0016300D01*
X0151686Y0015301D02*
X0151884Y0015301D01*
X0151884Y0018297D02*
X0120870Y0018297D01*
X0120870Y0019295D02*
X0141576Y0019295D01*
X0144400Y0022850D02*
X0144282Y0022968D01*
X0144282Y0036905D01*
X0144400Y0037023D01*
X0144884Y0037508D01*
X0144884Y0072315D01*
X0142884Y0074315D01*
X0093884Y0074315D01*
X0091334Y0074213D02*
X0062248Y0074213D01*
X0063247Y0073215D02*
X0091580Y0073215D01*
X0092376Y0072216D02*
X0064245Y0072216D01*
X0065244Y0071218D02*
X0143284Y0071218D01*
X0143284Y0070219D02*
X0066242Y0070219D01*
X0069584Y0069221D02*
X0143284Y0069221D01*
X0143284Y0068222D02*
X0070268Y0068222D01*
X0070434Y0067224D02*
X0143284Y0067224D01*
X0143284Y0066225D02*
X0073580Y0066225D01*
X0074267Y0065227D02*
X0143284Y0065227D01*
X0143284Y0064228D02*
X0074434Y0064228D01*
X0074195Y0063230D02*
X0143284Y0063230D01*
X0143284Y0062231D02*
X0083230Y0062231D01*
X0084229Y0061233D02*
X0143284Y0061233D01*
X0143284Y0060234D02*
X0085227Y0060234D01*
X0086226Y0059236D02*
X0143284Y0059236D01*
X0143284Y0058237D02*
X0087224Y0058237D01*
X0088223Y0057239D02*
X0143284Y0057239D01*
X0143284Y0056240D02*
X0128944Y0056240D01*
X0128786Y0056331D02*
X0128405Y0056433D01*
X0125837Y0056433D01*
X0125837Y0053646D01*
X0125262Y0053646D01*
X0125262Y0053071D01*
X0121392Y0053071D01*
X0121392Y0051586D01*
X0121494Y0051205D01*
X0121692Y0050863D01*
X0121971Y0050584D01*
X0122313Y0050386D01*
X0122695Y0050284D01*
X0125262Y0050284D01*
X0125262Y0053071D01*
X0125837Y0053071D01*
X0125837Y0050284D01*
X0128405Y0050284D01*
X0128786Y0050386D01*
X0129128Y0050584D01*
X0129407Y0050863D01*
X0129605Y0051205D01*
X0129707Y0051586D01*
X0129707Y0053071D01*
X0125837Y0053071D01*
X0125837Y0053646D01*
X0129707Y0053646D01*
X0129707Y0055131D01*
X0129605Y0055512D01*
X0129407Y0055855D01*
X0129128Y0056134D01*
X0128786Y0056331D01*
X0129678Y0055242D02*
X0143284Y0055242D01*
X0143284Y0054243D02*
X0129707Y0054243D01*
X0129707Y0052246D02*
X0143284Y0052246D01*
X0143284Y0051248D02*
X0129616Y0051248D01*
X0125837Y0051248D02*
X0125262Y0051248D01*
X0125262Y0052246D02*
X0125837Y0052246D01*
X0125837Y0053245D02*
X0143284Y0053245D01*
X0143284Y0050249D02*
X0100517Y0050249D01*
X0100484Y0049251D02*
X0101435Y0049251D01*
X0103400Y0049251D02*
X0104369Y0049251D01*
X0104369Y0048252D02*
X0103400Y0048252D01*
X0103400Y0047254D02*
X0104369Y0047254D01*
X0104369Y0046255D02*
X0103400Y0046255D01*
X0104369Y0045257D02*
X0108400Y0045257D01*
X0109369Y0045257D02*
X0113341Y0045257D01*
X0114310Y0045257D02*
X0143284Y0045257D01*
X0143284Y0046255D02*
X0117294Y0046255D01*
X0117294Y0047254D02*
X0143284Y0047254D01*
X0143284Y0048252D02*
X0117197Y0048252D01*
X0118663Y0050684D02*
X0112437Y0050684D01*
X0112294Y0050826D01*
X0112163Y0050695D01*
X0105937Y0050695D01*
X0105292Y0051339D01*
X0105292Y0055400D01*
X0105937Y0056045D01*
X0112163Y0056045D01*
X0112305Y0055902D01*
X0112437Y0056033D01*
X0118663Y0056033D01*
X0119307Y0055389D01*
X0119307Y0051328D01*
X0118663Y0050684D01*
X0119227Y0051248D02*
X0121483Y0051248D01*
X0121392Y0052246D02*
X0119307Y0052246D01*
X0119307Y0053245D02*
X0125262Y0053245D01*
X0125262Y0053646D02*
X0121392Y0053646D01*
X0121392Y0055131D01*
X0121494Y0055512D01*
X0121692Y0055855D01*
X0121971Y0056134D01*
X0122313Y0056331D01*
X0122695Y0056433D01*
X0125262Y0056433D01*
X0125262Y0053646D01*
X0125262Y0054243D02*
X0125837Y0054243D01*
X0125837Y0055242D02*
X0125262Y0055242D01*
X0125262Y0056240D02*
X0125837Y0056240D01*
X0122155Y0056240D02*
X0089222Y0056240D01*
X0090220Y0055242D02*
X0095292Y0055242D01*
X0095292Y0054243D02*
X0092562Y0054243D01*
X0093259Y0053245D02*
X0095292Y0053245D01*
X0095292Y0052246D02*
X0093434Y0052246D01*
X0093202Y0051248D02*
X0095384Y0051248D01*
X0097314Y0050249D02*
X0092425Y0050249D01*
X0090884Y0052315D02*
X0081884Y0061315D01*
X0042884Y0061315D01*
X0040884Y0059315D01*
X0040884Y0035315D01*
X0038884Y0033315D01*
X0030884Y0033315D01*
X0028884Y0031315D01*
X0028884Y0024315D01*
X0027538Y0022968D01*
X0023884Y0022968D01*
X0023766Y0022850D01*
X0018644Y0022850D01*
X0018644Y0037023D01*
X0021811Y0037268D02*
X0039284Y0037268D01*
X0039284Y0036270D02*
X0021811Y0036270D01*
X0021811Y0035271D02*
X0038578Y0035271D01*
X0038222Y0034915D02*
X0039284Y0035977D01*
X0039284Y0042394D01*
X0038954Y0041596D01*
X0037603Y0040245D01*
X0035839Y0039515D01*
X0033930Y0039515D01*
X0032165Y0040245D01*
X0030815Y0041596D01*
X0030084Y0043360D01*
X0030084Y0045269D01*
X0030815Y0047034D01*
X0032165Y0048384D01*
X0033930Y0049115D01*
X0035839Y0049115D01*
X0037603Y0048384D01*
X0038954Y0047034D01*
X0039284Y0046235D01*
X0039284Y0052394D01*
X0038954Y0051596D01*
X0037603Y0050245D01*
X0035839Y0049515D01*
X0033930Y0049515D01*
X0032165Y0050245D01*
X0030815Y0051596D01*
X0030084Y0053360D01*
X0030084Y0055269D01*
X0030815Y0057034D01*
X0032165Y0058384D01*
X0033930Y0059115D01*
X0035839Y0059115D01*
X0037603Y0058384D01*
X0038954Y0057034D01*
X0039284Y0056235D01*
X0039284Y0059977D01*
X0041284Y0061977D01*
X0042222Y0062915D01*
X0048015Y0062915D01*
X0047440Y0063153D01*
X0046723Y0063870D01*
X0046480Y0064457D01*
X0046284Y0064652D01*
X0046284Y0065652D01*
X0039360Y0072576D01*
X0038954Y0071596D01*
X0037603Y0070245D01*
X0035839Y0069515D01*
X0033930Y0069515D01*
X0032811Y0069978D01*
X0028484Y0065652D01*
X0028484Y0065652D01*
X0027547Y0064715D01*
X0014547Y0064715D01*
X0014484Y0064652D01*
X0014484Y0064501D01*
X0015458Y0064501D01*
X0015790Y0064169D01*
X0016122Y0064501D01*
X0021167Y0064501D01*
X0021811Y0063857D01*
X0021811Y0057434D01*
X0021502Y0057124D01*
X0021522Y0057130D01*
X0023400Y0057130D01*
X0023400Y0054145D01*
X0024369Y0054145D01*
X0027550Y0054145D01*
X0027550Y0055827D01*
X0027447Y0056209D01*
X0027250Y0056551D01*
X0026971Y0056830D01*
X0026629Y0057027D01*
X0026247Y0057130D01*
X0024369Y0057130D01*
X0024369Y0054145D01*
X0024369Y0053177D01*
X0027550Y0053177D01*
X0027550Y0051495D01*
X0027447Y0051114D01*
X0027250Y0050772D01*
X0026971Y0050492D01*
X0026629Y0050295D01*
X0026247Y0050193D01*
X0024369Y0050193D01*
X0024369Y0053177D01*
X0023400Y0053177D01*
X0023400Y0050193D01*
X0021522Y0050193D01*
X0021222Y0050273D01*
X0021458Y0050037D01*
X0026505Y0050037D01*
X0027150Y0049392D01*
X0027150Y0044544D01*
X0026505Y0043900D01*
X0025484Y0043900D01*
X0025484Y0043321D01*
X0026046Y0042759D01*
X0026434Y0041822D01*
X0026434Y0040807D01*
X0026046Y0039870D01*
X0025329Y0039153D01*
X0024392Y0038765D01*
X0023377Y0038765D01*
X0022440Y0039153D01*
X0021811Y0039782D01*
X0021811Y0033812D01*
X0021167Y0033167D01*
X0020244Y0033167D01*
X0020244Y0031921D01*
X0020321Y0032209D01*
X0020519Y0032551D01*
X0020798Y0032830D01*
X0021140Y0033027D01*
X0021522Y0033130D01*
X0023400Y0033130D01*
X0023400Y0030145D01*
X0024369Y0030145D01*
X0024369Y0033130D01*
X0026247Y0033130D01*
X0026629Y0033027D01*
X0026971Y0032830D01*
X0027250Y0032551D01*
X0027447Y0032209D01*
X0027462Y0032155D01*
X0029284Y0033977D01*
X0030222Y0034915D01*
X0038222Y0034915D01*
X0040108Y0032276D02*
X0050849Y0032276D01*
X0050849Y0031669D02*
X0050849Y0029306D01*
X0050951Y0028925D01*
X0051149Y0028583D01*
X0051428Y0028303D01*
X0051770Y0028106D01*
X0052151Y0028004D01*
X0052841Y0028004D01*
X0052841Y0031669D01*
X0050849Y0031669D01*
X0050849Y0031277D02*
X0031110Y0031277D01*
X0030484Y0030279D02*
X0050849Y0030279D01*
X0050856Y0029280D02*
X0030484Y0029280D01*
X0030484Y0028282D02*
X0051465Y0028282D01*
X0052841Y0028282D02*
X0052841Y0028282D01*
X0052841Y0029280D02*
X0052841Y0029280D01*
X0052841Y0030279D02*
X0052841Y0030279D01*
X0052841Y0031277D02*
X0052841Y0031277D01*
X0052841Y0031669D02*
X0052841Y0031669D01*
X0052841Y0032276D02*
X0052841Y0032276D01*
X0052841Y0033274D02*
X0052841Y0033274D01*
X0052841Y0034273D02*
X0052841Y0034273D01*
X0052841Y0035271D02*
X0052841Y0035271D01*
X0051917Y0035271D02*
X0042484Y0035271D01*
X0042484Y0036270D02*
X0054287Y0036270D01*
X0054287Y0037268D02*
X0042484Y0037268D01*
X0042484Y0038267D02*
X0054287Y0038267D01*
X0054287Y0039265D02*
X0042484Y0039265D01*
X0042484Y0040264D02*
X0054796Y0040264D01*
X0053941Y0041262D02*
X0042484Y0041262D01*
X0042484Y0042261D02*
X0053887Y0042261D01*
X0053887Y0043260D02*
X0042484Y0043260D01*
X0042484Y0044258D02*
X0056871Y0044258D01*
X0057840Y0044258D02*
X0061686Y0044258D01*
X0061686Y0044311D02*
X0061686Y0043342D01*
X0057840Y0043342D01*
X0057840Y0044311D01*
X0060824Y0044311D01*
X0061686Y0044311D01*
X0061686Y0045257D02*
X0062654Y0045257D01*
X0062655Y0044311D02*
X0065334Y0044311D01*
X0065334Y0044111D01*
X0068515Y0044111D01*
X0068515Y0043142D01*
X0065639Y0043142D01*
X0065639Y0043342D01*
X0062655Y0043342D01*
X0062655Y0044311D01*
X0062655Y0044258D02*
X0065334Y0044258D01*
X0065639Y0043260D02*
X0068515Y0043260D01*
X0069484Y0043260D02*
X0073833Y0043260D01*
X0074802Y0043260D02*
X0079235Y0043260D01*
X0079235Y0044258D02*
X0080203Y0044258D01*
X0080203Y0045257D02*
X0079235Y0045257D01*
X0079235Y0046255D02*
X0080203Y0046255D01*
X0082737Y0047254D02*
X0064953Y0047254D01*
X0062654Y0047254D02*
X0061686Y0047254D01*
X0061686Y0046255D02*
X0062654Y0046255D01*
X0057839Y0046255D02*
X0056871Y0046255D01*
X0056871Y0045257D02*
X0057839Y0045257D01*
X0057839Y0047254D02*
X0056871Y0047254D01*
X0054572Y0047254D02*
X0042484Y0047254D01*
X0042484Y0048252D02*
X0068684Y0048252D01*
X0067686Y0049251D02*
X0042484Y0049251D01*
X0042484Y0050249D02*
X0047344Y0050249D01*
X0047440Y0050153D02*
X0048377Y0049765D01*
X0049392Y0049765D01*
X0050329Y0050153D01*
X0050891Y0050715D01*
X0055878Y0050715D01*
X0056440Y0050153D01*
X0057377Y0049765D01*
X0058392Y0049765D01*
X0059329Y0050153D01*
X0060046Y0050870D01*
X0060434Y0051807D01*
X0060434Y0052822D01*
X0060046Y0053759D01*
X0059329Y0054476D01*
X0058392Y0054865D01*
X0057377Y0054865D01*
X0056440Y0054476D01*
X0055878Y0053915D01*
X0050891Y0053915D01*
X0050329Y0054476D01*
X0049392Y0054865D01*
X0048377Y0054865D01*
X0047440Y0054476D01*
X0046723Y0053759D01*
X0046334Y0052822D01*
X0046334Y0051807D01*
X0046723Y0050870D01*
X0047440Y0050153D01*
X0046566Y0051248D02*
X0042484Y0051248D01*
X0042484Y0052246D02*
X0046334Y0052246D01*
X0046509Y0053245D02*
X0042484Y0053245D01*
X0042484Y0054243D02*
X0047207Y0054243D01*
X0048884Y0052315D02*
X0057884Y0052315D01*
X0060259Y0053245D02*
X0065284Y0053245D01*
X0065284Y0054243D02*
X0059562Y0054243D01*
X0060434Y0052246D02*
X0065284Y0052246D01*
X0065689Y0051248D02*
X0060202Y0051248D01*
X0059425Y0050249D02*
X0066687Y0050249D01*
X0066884Y0052315D02*
X0066884Y0058315D01*
X0064506Y0059236D02*
X0043068Y0059236D01*
X0042484Y0058237D02*
X0064334Y0058237D01*
X0064570Y0057239D02*
X0042484Y0057239D01*
X0042484Y0056240D02*
X0065284Y0056240D01*
X0065284Y0055242D02*
X0042484Y0055242D01*
X0039284Y0056240D02*
X0039282Y0056240D01*
X0039284Y0057239D02*
X0038748Y0057239D01*
X0039284Y0058237D02*
X0037750Y0058237D01*
X0036880Y0059496D02*
X0037610Y0059867D01*
X0038272Y0060348D01*
X0038851Y0060927D01*
X0039332Y0061589D01*
X0039703Y0062318D01*
X0039956Y0063097D01*
X0040070Y0063815D01*
X0035384Y0063815D01*
X0035384Y0064815D01*
X0034384Y0064815D01*
X0034384Y0069500D01*
X0033667Y0069387D01*
X0032888Y0069134D01*
X0032159Y0068762D01*
X0031497Y0068281D01*
X0030918Y0067702D01*
X0030437Y0067040D01*
X0030065Y0066311D01*
X0029812Y0065532D01*
X0029699Y0064815D01*
X0034384Y0064815D01*
X0034384Y0063815D01*
X0029699Y0063815D01*
X0029812Y0063097D01*
X0030065Y0062318D01*
X0030437Y0061589D01*
X0030918Y0060927D01*
X0031497Y0060348D01*
X0032159Y0059867D01*
X0032888Y0059496D01*
X0033667Y0059243D01*
X0034384Y0059129D01*
X0034384Y0063815D01*
X0035384Y0063815D01*
X0035384Y0059129D01*
X0036102Y0059243D01*
X0036880Y0059496D01*
X0036058Y0059236D02*
X0039284Y0059236D01*
X0039541Y0060234D02*
X0038115Y0060234D01*
X0039073Y0061233D02*
X0040540Y0061233D01*
X0039659Y0062231D02*
X0041538Y0062231D01*
X0039977Y0063230D02*
X0047363Y0063230D01*
X0046574Y0064228D02*
X0035384Y0064228D01*
X0035384Y0064815D02*
X0040070Y0064815D01*
X0039956Y0065532D01*
X0039703Y0066311D01*
X0039332Y0067040D01*
X0038851Y0067702D01*
X0038272Y0068281D01*
X0037610Y0068762D01*
X0036880Y0069134D01*
X0036102Y0069387D01*
X0035384Y0069500D01*
X0035384Y0064815D01*
X0035384Y0065227D02*
X0034384Y0065227D01*
X0034384Y0066225D02*
X0035384Y0066225D01*
X0035384Y0067224D02*
X0034384Y0067224D01*
X0034384Y0068222D02*
X0035384Y0068222D01*
X0035384Y0069221D02*
X0034384Y0069221D01*
X0033157Y0069221D02*
X0032053Y0069221D01*
X0031438Y0068222D02*
X0031055Y0068222D01*
X0030570Y0067224D02*
X0030056Y0067224D01*
X0030038Y0066225D02*
X0029058Y0066225D01*
X0029764Y0065227D02*
X0028059Y0065227D01*
X0026884Y0066315D02*
X0034884Y0074315D01*
X0039884Y0074315D01*
X0048884Y0065315D01*
X0047884Y0065315D01*
X0046284Y0065227D02*
X0040005Y0065227D01*
X0039731Y0066225D02*
X0045711Y0066225D01*
X0044712Y0067224D02*
X0039198Y0067224D01*
X0038331Y0068222D02*
X0043714Y0068222D01*
X0042715Y0069221D02*
X0036612Y0069221D01*
X0037540Y0070219D02*
X0041717Y0070219D01*
X0040718Y0071218D02*
X0038576Y0071218D01*
X0039211Y0072216D02*
X0039720Y0072216D01*
X0042248Y0074213D02*
X0054723Y0074213D01*
X0055721Y0073215D02*
X0043247Y0073215D01*
X0044245Y0072216D02*
X0056720Y0072216D01*
X0057718Y0071218D02*
X0045244Y0071218D01*
X0046242Y0070219D02*
X0058717Y0070219D01*
X0059715Y0069221D02*
X0047241Y0069221D01*
X0048239Y0068222D02*
X0060714Y0068222D01*
X0061712Y0067224D02*
X0050581Y0067224D01*
X0050329Y0067476D02*
X0049392Y0067865D01*
X0048597Y0067865D01*
X0040547Y0075915D01*
X0039417Y0075915D01*
X0038954Y0077034D01*
X0037603Y0078384D01*
X0035839Y0079115D01*
X0033930Y0079115D01*
X0032165Y0078384D01*
X0030815Y0077034D01*
X0030084Y0075269D01*
X0030084Y0073360D01*
X0030548Y0072241D01*
X0026222Y0067915D01*
X0019456Y0067915D01*
X0019730Y0068189D01*
X0019928Y0068531D01*
X0020030Y0068912D01*
X0020030Y0072350D01*
X0015290Y0072350D01*
X0015290Y0073350D01*
X0020030Y0073350D01*
X0020030Y0076788D01*
X0019928Y0077169D01*
X0019730Y0077511D01*
X0019451Y0077790D01*
X0019109Y0077988D01*
X0018728Y0078090D01*
X0015290Y0078090D01*
X0015290Y0073350D01*
X0014290Y0073350D01*
X0014290Y0078090D01*
X0010884Y0078090D01*
X0010884Y0079027D01*
X0014290Y0079027D01*
X0014290Y0083767D01*
X0015290Y0083767D01*
X0015290Y0079027D01*
X0018728Y0079027D01*
X0019109Y0079129D01*
X0019451Y0079327D01*
X0019730Y0079606D01*
X0019928Y0079948D01*
X0020030Y0080330D01*
X0020030Y0083767D01*
X0015290Y0083767D01*
X0015290Y0084767D01*
X0020030Y0084767D01*
X0020030Y0088205D01*
X0019928Y0088586D01*
X0019730Y0088929D01*
X0019667Y0088992D01*
X0019730Y0089055D01*
X0019928Y0089397D01*
X0020030Y0089779D01*
X0020030Y0093216D01*
X0015290Y0093216D01*
X0015290Y0088476D01*
X0015290Y0084767D01*
X0014290Y0084767D01*
X0014290Y0093216D01*
X0015290Y0093216D01*
X0015290Y0094216D01*
X0020030Y0094216D01*
X0020030Y0097654D01*
X0019928Y0098035D01*
X0019730Y0098377D01*
X0019451Y0098657D01*
X0019109Y0098854D01*
X0018728Y0098956D01*
X0015290Y0098956D01*
X0015290Y0094216D01*
X0014290Y0094216D01*
X0014290Y0098956D01*
X0010884Y0098956D01*
X0010884Y0099893D01*
X0014290Y0099893D01*
X0014290Y0104633D01*
X0015290Y0104633D01*
X0015290Y0099893D01*
X0018728Y0099893D01*
X0019109Y0099996D01*
X0019451Y0100193D01*
X0019730Y0100472D01*
X0019928Y0100814D01*
X0020030Y0101196D01*
X0020030Y0104634D01*
X0015290Y0104634D01*
X0015290Y0105633D01*
X0020030Y0105633D01*
X0020030Y0109071D01*
X0019928Y0109453D01*
X0019730Y0109795D01*
X0019451Y0110074D01*
X0019109Y0110271D01*
X0018728Y0110374D01*
X0015290Y0110374D01*
X0015290Y0105634D01*
X0014290Y0105634D01*
X0014290Y0110374D01*
X0010884Y0110374D01*
X0010884Y0112969D01*
X0011377Y0112765D01*
X0012030Y0112765D01*
X0013180Y0111615D01*
X0029180Y0111615D01*
X0029184Y0111610D01*
X0029184Y0106242D01*
X0029179Y0106251D01*
X0028900Y0106531D01*
X0028558Y0106728D01*
X0028176Y0106830D01*
X0025329Y0106830D01*
X0025329Y0101697D01*
X0024329Y0101697D01*
X0024329Y0106830D01*
X0021482Y0106830D01*
X0021101Y0106728D01*
X0020759Y0106531D01*
X0020479Y0106251D01*
X0020282Y0105909D01*
X0020180Y0105528D01*
X0020180Y0101696D01*
X0024329Y0101696D01*
X0024329Y0100696D01*
X0025329Y0100696D01*
X0025329Y0096397D01*
X0025321Y0096397D01*
X0024329Y0096397D01*
X0024329Y0100696D01*
X0020180Y0100696D01*
X0020180Y0096865D01*
X0020282Y0096484D01*
X0020479Y0096142D01*
X0020759Y0095862D01*
X0021101Y0095665D01*
X0021338Y0095601D01*
X0021266Y0095476D01*
X0021164Y0095095D01*
X0021164Y0094110D01*
X0025321Y0094110D01*
X0025321Y0094110D01*
X0025321Y0096397D01*
X0025321Y0094110D01*
X0025321Y0094110D01*
X0021164Y0094110D01*
X0021164Y0093125D01*
X0021266Y0092743D01*
X0021464Y0092401D01*
X0021564Y0092301D01*
X0021564Y0090308D01*
X0021600Y0090271D01*
X0021564Y0090235D01*
X0021564Y0087749D01*
X0021600Y0087712D01*
X0021564Y0087676D01*
X0021564Y0085190D01*
X0021600Y0085153D01*
X0021564Y0085117D01*
X0021564Y0082631D01*
X0021774Y0082421D01*
X0021482Y0082421D01*
X0021101Y0082319D01*
X0020759Y0082121D01*
X0020479Y0081842D01*
X0020282Y0081500D01*
X0020180Y0081118D01*
X0020180Y0077287D01*
X0024329Y0077287D01*
X0024329Y0076287D01*
X0020180Y0076287D01*
X0020180Y0072456D01*
X0020282Y0072074D01*
X0020479Y0071732D01*
X0020759Y0071453D01*
X0021101Y0071255D01*
X0021482Y0071153D01*
X0024329Y0071153D01*
X0024329Y0076287D01*
X0025329Y0076287D01*
X0025329Y0071153D01*
X0028176Y0071153D01*
X0028558Y0071255D01*
X0028900Y0071453D01*
X0029179Y0071732D01*
X0029377Y0072074D01*
X0029479Y0072456D01*
X0029479Y0076287D01*
X0025329Y0076287D01*
X0025329Y0077287D01*
X0029479Y0077287D01*
X0029479Y0081118D01*
X0029377Y0081500D01*
X0029179Y0081842D01*
X0028900Y0082121D01*
X0028809Y0082174D01*
X0037948Y0082174D01*
X0038943Y0083169D01*
X0039184Y0083410D01*
X0039184Y0084463D01*
X0042328Y0084463D01*
X0042714Y0084848D01*
X0044088Y0084848D01*
X0065284Y0063652D01*
X0066022Y0062915D01*
X0049754Y0062915D01*
X0050329Y0063153D01*
X0051046Y0063870D01*
X0051434Y0064807D01*
X0051434Y0065822D01*
X0051046Y0066759D01*
X0050329Y0067476D01*
X0051267Y0066225D02*
X0062711Y0066225D01*
X0063709Y0065227D02*
X0051434Y0065227D01*
X0051194Y0064228D02*
X0064708Y0064228D01*
X0065706Y0063230D02*
X0050406Y0063230D01*
X0050562Y0054243D02*
X0056207Y0054243D01*
X0056344Y0050249D02*
X0050425Y0050249D01*
X0053904Y0046255D02*
X0042484Y0046255D01*
X0042484Y0045257D02*
X0053887Y0045257D01*
X0057355Y0037133D02*
X0058747Y0035742D01*
X0058747Y0031669D01*
X0058747Y0022867D01*
X0059039Y0022159D02*
X0060884Y0020315D01*
X0081884Y0020315D01*
X0081884Y0023315D01*
X0079527Y0024288D02*
X0072020Y0024288D01*
X0071022Y0023289D02*
X0079334Y0023289D01*
X0079334Y0022807D02*
X0079704Y0021915D01*
X0066754Y0021915D01*
X0067329Y0022153D01*
X0067891Y0022715D01*
X0070447Y0022715D01*
X0073147Y0025415D01*
X0074084Y0026352D01*
X0074084Y0028404D01*
X0074950Y0028404D01*
X0075050Y0028303D01*
X0075392Y0028106D01*
X0075773Y0028004D01*
X0076463Y0028004D01*
X0076463Y0031669D01*
X0076463Y0031669D01*
X0076463Y0028004D01*
X0077153Y0028004D01*
X0077534Y0028106D01*
X0077876Y0028303D01*
X0077977Y0028404D01*
X0079379Y0028404D01*
X0079416Y0028440D01*
X0079452Y0028404D01*
X0081348Y0028404D01*
X0081384Y0028440D01*
X0081421Y0028404D01*
X0083316Y0028404D01*
X0083353Y0028440D01*
X0083389Y0028404D01*
X0085285Y0028404D01*
X0085321Y0028440D01*
X0085358Y0028404D01*
X0087253Y0028404D01*
X0087290Y0028440D01*
X0087326Y0028404D01*
X0089222Y0028404D01*
X0089258Y0028440D01*
X0089295Y0028404D01*
X0091190Y0028404D01*
X0091227Y0028440D01*
X0091263Y0028404D01*
X0093159Y0028404D01*
X0093195Y0028440D01*
X0093232Y0028404D01*
X0095127Y0028404D01*
X0095164Y0028440D01*
X0095200Y0028404D01*
X0097096Y0028404D01*
X0097132Y0028440D01*
X0097169Y0028404D01*
X0099064Y0028404D01*
X0099101Y0028440D01*
X0099137Y0028404D01*
X0101033Y0028404D01*
X0101069Y0028440D01*
X0101106Y0028404D01*
X0102284Y0028404D01*
X0102284Y0022977D01*
X0101268Y0021961D01*
X0101222Y0021915D01*
X0084065Y0021915D01*
X0084434Y0022807D01*
X0084434Y0023822D01*
X0084046Y0024759D01*
X0083329Y0025476D01*
X0082392Y0025865D01*
X0081377Y0025865D01*
X0080440Y0025476D01*
X0079723Y0024759D01*
X0079334Y0023822D01*
X0079334Y0022807D01*
X0079548Y0022291D02*
X0067467Y0022291D01*
X0065884Y0024315D02*
X0069784Y0024315D01*
X0072484Y0027015D01*
X0072484Y0031627D01*
X0072526Y0031669D01*
X0070584Y0031642D02*
X0070558Y0031669D01*
X0070584Y0031642D02*
X0070584Y0029015D01*
X0069884Y0028315D01*
X0065884Y0028315D01*
X0064684Y0027115D01*
X0061884Y0027115D01*
X0057147Y0027283D02*
X0030484Y0027283D01*
X0030484Y0026285D02*
X0057147Y0026285D01*
X0057147Y0025286D02*
X0030484Y0025286D01*
X0030484Y0024288D02*
X0057147Y0024288D01*
X0057147Y0023289D02*
X0030122Y0023289D01*
X0029123Y0022291D02*
X0057147Y0022291D01*
X0057644Y0021292D02*
X0027150Y0021292D01*
X0026899Y0020294D02*
X0042469Y0020294D01*
X0042543Y0020367D02*
X0041899Y0019723D01*
X0041899Y0012906D01*
X0042543Y0012262D01*
X0050147Y0012262D01*
X0050791Y0012906D01*
X0050791Y0019723D01*
X0050147Y0020367D01*
X0042543Y0020367D01*
X0041899Y0019295D02*
X0021468Y0019295D01*
X0017687Y0016300D02*
X0041899Y0016300D01*
X0041899Y0017298D02*
X0010884Y0017298D01*
X0010884Y0016300D02*
X0012081Y0016300D01*
X0011083Y0015301D02*
X0010884Y0015301D01*
X0010884Y0018297D02*
X0041899Y0018297D01*
X0041899Y0015301D02*
X0018686Y0015301D01*
X0019256Y0014303D02*
X0041899Y0014303D01*
X0041899Y0013304D02*
X0019670Y0013304D01*
X0019684Y0012306D02*
X0042499Y0012306D01*
X0050191Y0012306D02*
X0112578Y0012306D01*
X0111977Y0013304D02*
X0050791Y0013304D01*
X0050791Y0014303D02*
X0111977Y0014303D01*
X0111977Y0015301D02*
X0050791Y0015301D01*
X0050791Y0016300D02*
X0111977Y0016300D01*
X0111977Y0017298D02*
X0050791Y0017298D01*
X0050791Y0018297D02*
X0111977Y0018297D01*
X0111977Y0019295D02*
X0103128Y0019295D01*
X0104126Y0020294D02*
X0112548Y0020294D01*
X0120299Y0020294D02*
X0135869Y0020294D01*
X0135619Y0021292D02*
X0105125Y0021292D01*
X0105484Y0022291D02*
X0135619Y0022291D01*
X0135619Y0023289D02*
X0105484Y0023289D01*
X0105484Y0024288D02*
X0135619Y0024288D01*
X0135619Y0025286D02*
X0105484Y0025286D01*
X0105484Y0026285D02*
X0136177Y0026285D01*
X0135276Y0027283D02*
X0105484Y0027283D01*
X0105484Y0028282D02*
X0108552Y0028282D01*
X0109928Y0028282D02*
X0109928Y0028282D01*
X0109928Y0029280D02*
X0109928Y0029280D01*
X0109928Y0030279D02*
X0109928Y0030279D01*
X0109928Y0031277D02*
X0109928Y0031277D01*
X0111920Y0031277D02*
X0135219Y0031277D01*
X0135219Y0031827D02*
X0135219Y0030145D01*
X0138400Y0030145D01*
X0138400Y0033130D01*
X0136522Y0033130D01*
X0136140Y0033027D01*
X0135798Y0032830D01*
X0135519Y0032551D01*
X0135321Y0032209D01*
X0135219Y0031827D01*
X0135360Y0032276D02*
X0111920Y0032276D01*
X0111920Y0033274D02*
X0141770Y0033274D01*
X0141233Y0034273D02*
X0122802Y0034273D01*
X0123483Y0035271D02*
X0141233Y0035271D01*
X0141233Y0036270D02*
X0123684Y0036270D01*
X0123520Y0037268D02*
X0141233Y0037268D01*
X0141233Y0038267D02*
X0122892Y0038267D01*
X0118877Y0038267D02*
X0116894Y0038267D01*
X0116894Y0039265D02*
X0141233Y0039265D01*
X0141262Y0040264D02*
X0116894Y0040264D01*
X0116894Y0041262D02*
X0143284Y0041262D01*
X0143284Y0042261D02*
X0116815Y0042261D01*
X0117294Y0043260D02*
X0143284Y0043260D01*
X0143284Y0044258D02*
X0117294Y0044258D01*
X0114310Y0046255D02*
X0113341Y0046255D01*
X0113341Y0047254D02*
X0114310Y0047254D01*
X0114310Y0048252D02*
X0113341Y0048252D01*
X0111333Y0049251D02*
X0143284Y0049251D01*
X0121392Y0054243D02*
X0119307Y0054243D01*
X0119307Y0055242D02*
X0121422Y0055242D01*
X0115550Y0053359D02*
X0115461Y0053370D01*
X0109050Y0053370D01*
X0105292Y0053245D02*
X0102807Y0053245D01*
X0102807Y0054243D02*
X0105292Y0054243D01*
X0105292Y0055242D02*
X0102807Y0055242D01*
X0099050Y0053370D02*
X0098884Y0049535D01*
X0098884Y0045661D01*
X0095786Y0048252D02*
X0087906Y0048252D01*
X0087906Y0047254D02*
X0095619Y0047254D01*
X0095619Y0046255D02*
X0087906Y0046255D01*
X0087906Y0045257D02*
X0095619Y0045257D01*
X0095619Y0044258D02*
X0087906Y0044258D01*
X0087906Y0043260D02*
X0095619Y0043260D01*
X0095619Y0041262D02*
X0087906Y0041262D01*
X0087906Y0040264D02*
X0095619Y0040264D01*
X0095619Y0039265D02*
X0087906Y0039265D01*
X0087906Y0038267D02*
X0095619Y0038267D01*
X0095619Y0037268D02*
X0087906Y0037268D01*
X0087906Y0036270D02*
X0095893Y0036270D01*
X0098465Y0035271D02*
X0087906Y0035271D01*
X0086306Y0031669D02*
X0086306Y0050893D01*
X0084884Y0052315D01*
X0072884Y0052315D01*
X0071884Y0053315D01*
X0071884Y0057315D01*
X0074262Y0058237D02*
X0082699Y0058237D01*
X0083698Y0057239D02*
X0074434Y0057239D01*
X0074199Y0056240D02*
X0084696Y0056240D01*
X0085695Y0055242D02*
X0073484Y0055242D01*
X0073484Y0054243D02*
X0086693Y0054243D01*
X0086217Y0053245D02*
X0087692Y0053245D01*
X0087216Y0052246D02*
X0088334Y0052246D01*
X0088566Y0051248D02*
X0087906Y0051248D01*
X0087906Y0050249D02*
X0089344Y0050249D01*
X0087906Y0049251D02*
X0097271Y0049251D01*
X0102716Y0051248D02*
X0105384Y0051248D01*
X0105292Y0052246D02*
X0102807Y0052246D01*
X0106333Y0049251D02*
X0106435Y0049251D01*
X0108400Y0049251D02*
X0109369Y0049251D01*
X0109369Y0048252D02*
X0108400Y0048252D01*
X0108400Y0047254D02*
X0109369Y0047254D01*
X0109369Y0046255D02*
X0108400Y0046255D01*
X0101054Y0042261D02*
X0087906Y0042261D01*
X0082737Y0040264D02*
X0082437Y0040264D01*
X0080203Y0040264D02*
X0079235Y0040264D01*
X0079235Y0041262D02*
X0080203Y0041262D01*
X0080203Y0042261D02*
X0079235Y0042261D01*
X0074802Y0042261D02*
X0073833Y0042261D01*
X0073833Y0041262D02*
X0074802Y0041262D01*
X0074802Y0040264D02*
X0073833Y0040264D01*
X0074317Y0036931D02*
X0074495Y0036754D01*
X0074495Y0031669D01*
X0076463Y0031277D02*
X0076463Y0031277D01*
X0076463Y0030279D02*
X0076463Y0030279D01*
X0076463Y0029280D02*
X0076463Y0029280D01*
X0076463Y0028282D02*
X0076463Y0028282D01*
X0075087Y0028282D02*
X0074084Y0028282D01*
X0074084Y0027283D02*
X0102284Y0027283D01*
X0102284Y0026285D02*
X0074017Y0026285D01*
X0073019Y0025286D02*
X0080250Y0025286D01*
X0083519Y0025286D02*
X0102284Y0025286D01*
X0102284Y0024288D02*
X0084241Y0024288D01*
X0084434Y0023289D02*
X0102284Y0023289D01*
X0101598Y0022291D02*
X0084220Y0022291D01*
X0081884Y0020315D02*
X0101470Y0020315D01*
X0102177Y0020607D02*
X0103884Y0022315D01*
X0103884Y0031336D01*
X0104022Y0031669D02*
X0104022Y0037830D01*
X0103884Y0038968D01*
X0099984Y0037868D02*
X0098884Y0038968D01*
X0099984Y0037868D02*
X0099984Y0036015D01*
X0102054Y0033945D01*
X0102054Y0031669D01*
X0103885Y0031336D02*
X0103887Y0031377D01*
X0103892Y0031418D01*
X0103901Y0031458D01*
X0103913Y0031497D01*
X0103929Y0031535D01*
X0103948Y0031571D01*
X0103970Y0031606D01*
X0103995Y0031638D01*
X0104023Y0031668D01*
X0105991Y0031669D02*
X0105991Y0033408D01*
X0105984Y0033415D01*
X0105984Y0034315D01*
X0107484Y0035815D01*
X0107484Y0038568D01*
X0108884Y0038968D01*
X0109084Y0035115D02*
X0113484Y0035115D01*
X0113784Y0035415D01*
X0113784Y0037993D01*
X0113825Y0038833D01*
X0109084Y0035115D02*
X0107959Y0033989D01*
X0107959Y0031669D01*
X0111920Y0030279D02*
X0135219Y0030279D01*
X0135219Y0028282D02*
X0111304Y0028282D01*
X0111913Y0029280D02*
X0138400Y0029280D01*
X0139369Y0029280D02*
X0142682Y0029280D01*
X0142682Y0028282D02*
X0142550Y0028282D01*
X0142493Y0027283D02*
X0142682Y0027283D01*
X0142682Y0030279D02*
X0142550Y0030279D01*
X0142550Y0031277D02*
X0142682Y0031277D01*
X0142682Y0032276D02*
X0142409Y0032276D01*
X0139369Y0032276D02*
X0138400Y0032276D01*
X0138400Y0031277D02*
X0139369Y0031277D01*
X0139369Y0030279D02*
X0138400Y0030279D01*
X0138400Y0028282D02*
X0139369Y0028282D01*
X0139369Y0027283D02*
X0138400Y0027283D01*
X0138400Y0026285D02*
X0139369Y0026285D01*
X0138884Y0022968D02*
X0144282Y0022968D01*
X0147224Y0019295D02*
X0147285Y0019295D01*
X0118966Y0034273D02*
X0114905Y0034273D01*
X0102284Y0028282D02*
X0077839Y0028282D01*
X0078432Y0031669D02*
X0078432Y0035657D01*
X0079719Y0036945D01*
X0084337Y0031669D02*
X0084337Y0048862D01*
X0083884Y0049315D01*
X0069884Y0049315D01*
X0066884Y0052315D01*
X0068515Y0046255D02*
X0069484Y0046255D01*
X0069484Y0045257D02*
X0068515Y0045257D01*
X0068515Y0044258D02*
X0069484Y0044258D01*
X0069484Y0042261D02*
X0068515Y0042261D01*
X0068515Y0041262D02*
X0069484Y0041262D01*
X0069484Y0040264D02*
X0068515Y0040264D01*
X0066248Y0040264D02*
X0064729Y0040264D01*
X0065239Y0039265D02*
X0065734Y0039265D01*
X0065734Y0038267D02*
X0065239Y0038267D01*
X0065239Y0037268D02*
X0065734Y0037268D01*
X0065734Y0036270D02*
X0065239Y0036270D01*
X0065239Y0035271D02*
X0065734Y0035271D01*
X0068589Y0036523D02*
X0068999Y0036933D01*
X0068589Y0036523D02*
X0068589Y0031669D01*
X0060715Y0031669D02*
X0060715Y0035972D01*
X0062170Y0037133D01*
X0054287Y0035271D02*
X0053765Y0035271D01*
X0050914Y0034273D02*
X0042105Y0034273D01*
X0041107Y0033274D02*
X0050849Y0033274D01*
X0054217Y0028282D02*
X0055402Y0028282D01*
X0056778Y0028282D02*
X0056778Y0028282D01*
X0056778Y0029280D02*
X0056778Y0029280D01*
X0056778Y0030279D02*
X0056778Y0030279D01*
X0056778Y0031277D02*
X0056778Y0031277D01*
X0058747Y0022867D02*
X0058749Y0022807D01*
X0058754Y0022746D01*
X0058763Y0022687D01*
X0058776Y0022628D01*
X0058792Y0022569D01*
X0058812Y0022512D01*
X0058835Y0022457D01*
X0058862Y0022402D01*
X0058891Y0022350D01*
X0058924Y0022299D01*
X0058960Y0022250D01*
X0058998Y0022204D01*
X0059040Y0022160D01*
X0058642Y0020294D02*
X0050221Y0020294D01*
X0050791Y0019295D02*
X0059641Y0019295D01*
X0039284Y0038267D02*
X0021811Y0038267D01*
X0021811Y0039265D02*
X0022327Y0039265D01*
X0023884Y0041315D02*
X0023884Y0046968D01*
X0023388Y0046472D01*
X0018644Y0046472D01*
X0018644Y0060645D01*
X0021811Y0060234D02*
X0031654Y0060234D01*
X0030696Y0061233D02*
X0021811Y0061233D01*
X0021811Y0062231D02*
X0030110Y0062231D01*
X0029791Y0063230D02*
X0021811Y0063230D01*
X0021440Y0064228D02*
X0034384Y0064228D01*
X0034384Y0063230D02*
X0035384Y0063230D01*
X0035384Y0062231D02*
X0034384Y0062231D01*
X0034384Y0061233D02*
X0035384Y0061233D01*
X0035384Y0060234D02*
X0034384Y0060234D01*
X0034384Y0059236D02*
X0035384Y0059236D01*
X0033710Y0059236D02*
X0021811Y0059236D01*
X0021811Y0058237D02*
X0032019Y0058237D01*
X0031020Y0057239D02*
X0021616Y0057239D01*
X0023400Y0056240D02*
X0024369Y0056240D01*
X0024369Y0055242D02*
X0023400Y0055242D01*
X0023400Y0054243D02*
X0024369Y0054243D01*
X0024369Y0053245D02*
X0030132Y0053245D01*
X0030084Y0054243D02*
X0027550Y0054243D01*
X0027550Y0055242D02*
X0030084Y0055242D01*
X0030486Y0056240D02*
X0027429Y0056240D01*
X0027550Y0052246D02*
X0030546Y0052246D01*
X0031163Y0051248D02*
X0027483Y0051248D01*
X0026458Y0050249D02*
X0032162Y0050249D01*
X0032034Y0048252D02*
X0027150Y0048252D01*
X0027150Y0047254D02*
X0031035Y0047254D01*
X0030493Y0046255D02*
X0027150Y0046255D01*
X0027150Y0045257D02*
X0030084Y0045257D01*
X0030084Y0044258D02*
X0026864Y0044258D01*
X0025546Y0043260D02*
X0030126Y0043260D01*
X0030539Y0042261D02*
X0026252Y0042261D01*
X0026434Y0041262D02*
X0031148Y0041262D01*
X0032147Y0040264D02*
X0026209Y0040264D01*
X0025441Y0039265D02*
X0039284Y0039265D01*
X0039284Y0040264D02*
X0037622Y0040264D01*
X0038620Y0041262D02*
X0039284Y0041262D01*
X0039284Y0042261D02*
X0039229Y0042261D01*
X0039276Y0046255D02*
X0039284Y0046255D01*
X0039284Y0047254D02*
X0038734Y0047254D01*
X0039284Y0048252D02*
X0037735Y0048252D01*
X0039284Y0049251D02*
X0027150Y0049251D01*
X0024369Y0050249D02*
X0023400Y0050249D01*
X0023400Y0051248D02*
X0024369Y0051248D01*
X0024369Y0052246D02*
X0023400Y0052246D01*
X0021310Y0050249D02*
X0021246Y0050249D01*
X0012936Y0060645D02*
X0012884Y0060696D01*
X0012884Y0065315D01*
X0013884Y0066315D01*
X0026884Y0066315D01*
X0026529Y0068222D02*
X0019750Y0068222D01*
X0020030Y0069221D02*
X0027528Y0069221D01*
X0028526Y0070219D02*
X0020030Y0070219D01*
X0020030Y0071218D02*
X0021241Y0071218D01*
X0020244Y0072216D02*
X0020030Y0072216D01*
X0020180Y0073215D02*
X0015290Y0073215D01*
X0015290Y0074213D02*
X0014290Y0074213D01*
X0014290Y0075212D02*
X0015290Y0075212D01*
X0015290Y0076210D02*
X0014290Y0076210D01*
X0014290Y0077209D02*
X0015290Y0077209D01*
X0015290Y0079206D02*
X0014290Y0079206D01*
X0014290Y0080204D02*
X0015290Y0080204D01*
X0015290Y0081203D02*
X0014290Y0081203D01*
X0014290Y0082201D02*
X0015290Y0082201D01*
X0015290Y0083200D02*
X0014290Y0083200D01*
X0015290Y0084198D02*
X0021564Y0084198D01*
X0021564Y0083200D02*
X0020030Y0083200D01*
X0020030Y0082201D02*
X0020898Y0082201D01*
X0020202Y0081203D02*
X0020030Y0081203D01*
X0019996Y0080204D02*
X0020180Y0080204D01*
X0020180Y0079206D02*
X0019241Y0079206D01*
X0020180Y0078207D02*
X0010884Y0078207D01*
X0014290Y0085197D02*
X0015290Y0085197D01*
X0015290Y0086195D02*
X0014290Y0086195D01*
X0014290Y0087194D02*
X0015290Y0087194D01*
X0015290Y0088193D02*
X0014290Y0088193D01*
X0014290Y0089191D02*
X0015290Y0089191D01*
X0015290Y0090190D02*
X0014290Y0090190D01*
X0014290Y0091188D02*
X0015290Y0091188D01*
X0015290Y0092187D02*
X0014290Y0092187D01*
X0014290Y0093185D02*
X0015290Y0093185D01*
X0015290Y0094184D02*
X0021164Y0094184D01*
X0021187Y0095182D02*
X0020030Y0095182D01*
X0020030Y0096181D02*
X0020457Y0096181D01*
X0020180Y0097179D02*
X0020030Y0097179D01*
X0020180Y0098178D02*
X0019846Y0098178D01*
X0020180Y0099176D02*
X0010884Y0099176D01*
X0014290Y0098178D02*
X0015290Y0098178D01*
X0015290Y0097179D02*
X0014290Y0097179D01*
X0014290Y0096181D02*
X0015290Y0096181D01*
X0015290Y0095182D02*
X0014290Y0095182D01*
X0020030Y0093185D02*
X0021164Y0093185D01*
X0021564Y0092187D02*
X0020030Y0092187D01*
X0020030Y0091188D02*
X0021564Y0091188D01*
X0021564Y0090190D02*
X0020030Y0090190D01*
X0019809Y0089191D02*
X0021564Y0089191D01*
X0021564Y0088193D02*
X0020030Y0088193D01*
X0020030Y0087194D02*
X0021564Y0087194D01*
X0021564Y0086195D02*
X0020030Y0086195D01*
X0020030Y0085197D02*
X0021564Y0085197D01*
X0025321Y0086433D02*
X0034376Y0086433D01*
X0034392Y0086448D01*
X0033786Y0088992D02*
X0034392Y0089598D01*
X0033786Y0088992D02*
X0025321Y0088992D01*
X0025321Y0094184D02*
X0025321Y0094184D01*
X0025321Y0095182D02*
X0025321Y0095182D01*
X0025321Y0096181D02*
X0025321Y0096181D01*
X0025329Y0097179D02*
X0024329Y0097179D01*
X0024329Y0098178D02*
X0025329Y0098178D01*
X0025329Y0099176D02*
X0024329Y0099176D01*
X0024329Y0100175D02*
X0025329Y0100175D01*
X0024329Y0101173D02*
X0020024Y0101173D01*
X0020030Y0102172D02*
X0020180Y0102172D01*
X0020180Y0103170D02*
X0020030Y0103170D01*
X0020030Y0104169D02*
X0020180Y0104169D01*
X0020180Y0105167D02*
X0015290Y0105167D01*
X0015290Y0104169D02*
X0014290Y0104169D01*
X0014290Y0103170D02*
X0015290Y0103170D01*
X0015290Y0102172D02*
X0014290Y0102172D01*
X0014290Y0101173D02*
X0015290Y0101173D01*
X0015290Y0100175D02*
X0014290Y0100175D01*
X0019419Y0100175D02*
X0020180Y0100175D01*
X0024329Y0102172D02*
X0025329Y0102172D01*
X0025329Y0103170D02*
X0024329Y0103170D01*
X0024329Y0104169D02*
X0025329Y0104169D01*
X0025329Y0105167D02*
X0024329Y0105167D01*
X0024329Y0106166D02*
X0025329Y0106166D01*
X0029184Y0107164D02*
X0020030Y0107164D01*
X0020030Y0106166D02*
X0020430Y0106166D01*
X0020030Y0108163D02*
X0029184Y0108163D01*
X0029184Y0109161D02*
X0020006Y0109161D01*
X0019302Y0110160D02*
X0029184Y0110160D01*
X0029184Y0111158D02*
X0010884Y0111158D01*
X0010884Y0112157D02*
X0012638Y0112157D01*
X0014451Y0115152D02*
X0039284Y0115152D01*
X0039284Y0114154D02*
X0031449Y0114154D01*
X0032448Y0113155D02*
X0039284Y0113155D01*
X0039284Y0112157D02*
X0032584Y0112157D01*
X0032584Y0111158D02*
X0039284Y0111158D01*
X0039284Y0110160D02*
X0032584Y0110160D01*
X0032584Y0109161D02*
X0039284Y0109161D01*
X0039284Y0108163D02*
X0032584Y0108163D01*
X0032584Y0107164D02*
X0039284Y0107164D01*
X0039284Y0106166D02*
X0032584Y0106166D01*
X0032584Y0105167D02*
X0039284Y0105167D01*
X0039284Y0104169D02*
X0032584Y0104169D01*
X0032584Y0103170D02*
X0039284Y0103170D01*
X0039284Y0102172D02*
X0032584Y0102172D01*
X0032584Y0101173D02*
X0039284Y0101173D01*
X0039284Y0100175D02*
X0032584Y0100175D01*
X0032584Y0099176D02*
X0039284Y0099176D01*
X0039759Y0098178D02*
X0032584Y0098178D01*
X0032584Y0097179D02*
X0040757Y0097179D01*
X0041756Y0096181D02*
X0032584Y0096181D01*
X0032584Y0095182D02*
X0042754Y0095182D01*
X0043753Y0094184D02*
X0038420Y0094184D01*
X0039184Y0093185D02*
X0044751Y0093185D01*
X0045750Y0092187D02*
X0039184Y0092187D01*
X0040495Y0089598D02*
X0044601Y0089598D01*
X0066884Y0067315D01*
X0067884Y0067315D01*
X0066884Y0064315D02*
X0071884Y0064315D01*
X0066884Y0064315D02*
X0044751Y0086448D01*
X0040495Y0086448D01*
X0039184Y0084198D02*
X0044738Y0084198D01*
X0045736Y0083200D02*
X0038974Y0083200D01*
X0038943Y0083169D02*
X0038943Y0083169D01*
X0037975Y0082201D02*
X0046735Y0082201D01*
X0047733Y0081203D02*
X0029456Y0081203D01*
X0029479Y0080204D02*
X0048732Y0080204D01*
X0049730Y0079206D02*
X0029479Y0079206D01*
X0029479Y0078207D02*
X0031989Y0078207D01*
X0030990Y0077209D02*
X0025329Y0077209D01*
X0025329Y0076210D02*
X0024329Y0076210D01*
X0024329Y0075212D02*
X0025329Y0075212D01*
X0025329Y0074213D02*
X0024329Y0074213D01*
X0024329Y0073215D02*
X0025329Y0073215D01*
X0025329Y0072216D02*
X0024329Y0072216D01*
X0024329Y0071218D02*
X0025329Y0071218D01*
X0028418Y0071218D02*
X0029525Y0071218D01*
X0029415Y0072216D02*
X0030523Y0072216D01*
X0030144Y0073215D02*
X0029479Y0073215D01*
X0029479Y0074213D02*
X0030084Y0074213D01*
X0030084Y0075212D02*
X0029479Y0075212D01*
X0029479Y0076210D02*
X0030474Y0076210D01*
X0037780Y0078207D02*
X0050729Y0078207D01*
X0051727Y0077209D02*
X0038778Y0077209D01*
X0039295Y0076210D02*
X0052726Y0076210D01*
X0053724Y0075212D02*
X0041250Y0075212D01*
X0054260Y0082201D02*
X0055735Y0082201D01*
X0055259Y0081203D02*
X0056733Y0081203D01*
X0056257Y0080204D02*
X0057732Y0080204D01*
X0057256Y0079206D02*
X0058334Y0079206D01*
X0058254Y0078207D02*
X0058583Y0078207D01*
X0059253Y0077209D02*
X0059384Y0077209D01*
X0060251Y0076210D02*
X0088582Y0076210D01*
X0088334Y0077209D02*
X0062385Y0077209D01*
X0063186Y0078207D02*
X0088494Y0078207D01*
X0089169Y0079206D02*
X0063434Y0079206D01*
X0063276Y0080204D02*
X0089584Y0080204D01*
X0089334Y0081203D02*
X0062602Y0081203D01*
X0060260Y0082201D02*
X0089492Y0082201D01*
X0090163Y0083200D02*
X0070376Y0083200D01*
X0070329Y0083153D02*
X0070891Y0083715D01*
X0077252Y0083715D01*
X0077274Y0083694D01*
X0077910Y0083715D01*
X0078547Y0083715D01*
X0078568Y0083736D01*
X0078598Y0083737D01*
X0079034Y0084202D01*
X0079484Y0084652D01*
X0079484Y0084682D01*
X0094034Y0100201D01*
X0094484Y0100652D01*
X0094484Y0100682D01*
X0094505Y0100704D01*
X0094484Y0101340D01*
X0094484Y0149977D01*
X0093434Y0151027D01*
X0093434Y0151822D01*
X0093046Y0152759D01*
X0092329Y0153476D01*
X0091392Y0153865D01*
X0090377Y0153865D01*
X0089440Y0153476D01*
X0088723Y0152759D01*
X0088334Y0151822D01*
X0088334Y0150807D01*
X0088723Y0149870D01*
X0089440Y0149153D01*
X0090377Y0148765D01*
X0091172Y0148765D01*
X0091284Y0148652D01*
X0091284Y0101947D01*
X0077191Y0086915D01*
X0070891Y0086915D01*
X0070329Y0087476D01*
X0069392Y0087865D01*
X0068377Y0087865D01*
X0067440Y0087476D01*
X0066723Y0086759D01*
X0066334Y0085822D01*
X0066334Y0084807D01*
X0066723Y0083870D01*
X0067440Y0083153D01*
X0068377Y0082765D01*
X0069392Y0082765D01*
X0070329Y0083153D01*
X0068884Y0085315D02*
X0077884Y0085315D01*
X0092884Y0101315D01*
X0092884Y0149315D01*
X0090884Y0151315D01*
X0089059Y0153096D02*
X0076484Y0153096D01*
X0076484Y0154094D02*
X0094818Y0154094D01*
X0094813Y0153096D02*
X0092709Y0153096D01*
X0093320Y0152097D02*
X0094807Y0152097D01*
X0094802Y0151099D02*
X0093434Y0151099D01*
X0094361Y0150100D02*
X0094796Y0150100D01*
X0094791Y0149102D02*
X0094484Y0149102D01*
X0094484Y0148103D02*
X0094785Y0148103D01*
X0094484Y0147105D02*
X0122042Y0147105D01*
X0122453Y0146106D02*
X0094484Y0146106D01*
X0094484Y0145108D02*
X0123222Y0145108D01*
X0124989Y0144109D02*
X0094484Y0144109D01*
X0094484Y0143111D02*
X0134719Y0143111D01*
X0134719Y0143177D02*
X0134719Y0141495D01*
X0134821Y0141114D01*
X0094484Y0141114D01*
X0094484Y0142112D02*
X0134719Y0142112D01*
X0134821Y0141114D02*
X0135019Y0140772D01*
X0135298Y0140492D01*
X0135640Y0140295D01*
X0136022Y0140193D01*
X0137900Y0140193D01*
X0137900Y0143177D01*
X0134719Y0143177D01*
X0134719Y0144145D02*
X0137900Y0144145D01*
X0137900Y0143177D01*
X0138869Y0143177D01*
X0138869Y0144145D01*
X0142050Y0144145D01*
X0142050Y0145827D01*
X0141947Y0146209D01*
X0141750Y0146551D01*
X0141471Y0146830D01*
X0141129Y0147027D01*
X0140747Y0147130D01*
X0138869Y0147130D01*
X0138869Y0144145D01*
X0137900Y0144145D01*
X0137900Y0147130D01*
X0136022Y0147130D01*
X0135640Y0147027D01*
X0135298Y0146830D01*
X0135019Y0146551D01*
X0134821Y0146209D01*
X0134719Y0145827D01*
X0134719Y0144145D01*
X0134719Y0145108D02*
X0128405Y0145108D01*
X0129174Y0146106D02*
X0134794Y0146106D01*
X0135929Y0147105D02*
X0129585Y0147105D01*
X0126638Y0144109D02*
X0137900Y0144109D01*
X0138869Y0144109D02*
X0142800Y0144109D01*
X0142800Y0143111D02*
X0142050Y0143111D01*
X0142050Y0143177D02*
X0142050Y0141495D01*
X0141947Y0141114D01*
X0142800Y0141114D01*
X0141947Y0141114D02*
X0141750Y0140772D01*
X0141471Y0140492D01*
X0141129Y0140295D01*
X0140747Y0140193D01*
X0138869Y0140193D01*
X0138869Y0143177D01*
X0142050Y0143177D01*
X0142050Y0142112D02*
X0142800Y0142112D01*
X0142800Y0145108D02*
X0142050Y0145108D01*
X0141975Y0146106D02*
X0142800Y0146106D01*
X0142800Y0147105D02*
X0140840Y0147105D01*
X0140786Y0148103D02*
X0141233Y0148103D01*
X0141233Y0149102D02*
X0140792Y0149102D01*
X0140798Y0150100D02*
X0141233Y0150100D01*
X0141233Y0151099D02*
X0140805Y0151099D01*
X0140811Y0152097D02*
X0141233Y0152097D01*
X0141233Y0153096D02*
X0140817Y0153096D01*
X0140824Y0154094D02*
X0141233Y0154094D01*
X0140830Y0155093D02*
X0151884Y0155093D01*
X0151884Y0156091D02*
X0150231Y0156091D01*
X0151448Y0157090D02*
X0151884Y0157090D01*
X0145537Y0156091D02*
X0140836Y0156091D01*
X0140843Y0157090D02*
X0144321Y0157090D01*
X0143611Y0158088D02*
X0140849Y0158088D01*
X0140856Y0159087D02*
X0143197Y0159087D01*
X0143084Y0160085D02*
X0140862Y0160085D01*
X0140868Y0161084D02*
X0143084Y0161084D01*
X0143421Y0162082D02*
X0140875Y0162082D01*
X0140881Y0163081D02*
X0143862Y0163081D01*
X0144861Y0164079D02*
X0140887Y0164079D01*
X0144400Y0151196D02*
X0144400Y0137023D01*
X0145084Y0136539D01*
X0145084Y0103315D01*
X0143084Y0101315D01*
X0135884Y0101315D01*
X0133884Y0099315D01*
X0133884Y0079315D01*
X0132884Y0078315D01*
X0111884Y0078315D01*
X0109884Y0080315D01*
X0094884Y0080315D01*
X0093884Y0081315D01*
X0091884Y0081315D01*
X0093605Y0083200D02*
X0102379Y0083200D01*
X0102334Y0084198D02*
X0079031Y0084198D01*
X0079967Y0085197D02*
X0102697Y0085197D01*
X0103284Y0086195D02*
X0080903Y0086195D01*
X0081839Y0087194D02*
X0103284Y0087194D01*
X0103284Y0088193D02*
X0082776Y0088193D01*
X0083712Y0089191D02*
X0103284Y0089191D01*
X0103284Y0090190D02*
X0084648Y0090190D01*
X0085584Y0091188D02*
X0103284Y0091188D01*
X0103284Y0092187D02*
X0086520Y0092187D01*
X0087456Y0093185D02*
X0103284Y0093185D01*
X0103284Y0094184D02*
X0088392Y0094184D01*
X0089328Y0095182D02*
X0103284Y0095182D01*
X0103284Y0096181D02*
X0090264Y0096181D01*
X0091201Y0097179D02*
X0103284Y0097179D01*
X0103284Y0098178D02*
X0092137Y0098178D01*
X0093073Y0099176D02*
X0103284Y0099176D01*
X0103284Y0100175D02*
X0094009Y0100175D01*
X0094490Y0101173D02*
X0103284Y0101173D01*
X0103284Y0102172D02*
X0094484Y0102172D01*
X0094484Y0103170D02*
X0103284Y0103170D01*
X0103284Y0104169D02*
X0094484Y0104169D01*
X0094484Y0105167D02*
X0103284Y0105167D01*
X0103284Y0106166D02*
X0094484Y0106166D01*
X0094484Y0107164D02*
X0103284Y0107164D01*
X0103284Y0108163D02*
X0094484Y0108163D01*
X0094484Y0109161D02*
X0102602Y0109161D01*
X0102334Y0110160D02*
X0094484Y0110160D01*
X0094484Y0111158D02*
X0102474Y0111158D01*
X0103120Y0112157D02*
X0094484Y0112157D01*
X0094484Y0113155D02*
X0105334Y0113155D01*
X0105472Y0114154D02*
X0094484Y0114154D01*
X0094484Y0115152D02*
X0106116Y0115152D01*
X0107884Y0113315D02*
X0107884Y0085815D01*
X0104884Y0083815D02*
X0104884Y0110315D01*
X0109284Y0116151D02*
X0094484Y0116151D01*
X0094484Y0117149D02*
X0108943Y0117149D01*
X0108400Y0118148D02*
X0094484Y0118148D01*
X0094484Y0119146D02*
X0108334Y0119146D01*
X0108675Y0120145D02*
X0094484Y0120145D01*
X0094484Y0121143D02*
X0109843Y0121143D01*
X0111467Y0122142D02*
X0094484Y0122142D01*
X0094484Y0123140D02*
X0112104Y0123140D01*
X0113884Y0121315D02*
X0113884Y0081815D01*
X0115880Y0080204D02*
X0132284Y0080204D01*
X0132284Y0081203D02*
X0116391Y0081203D01*
X0116434Y0082201D02*
X0132284Y0082201D01*
X0132284Y0083200D02*
X0116071Y0083200D01*
X0115484Y0084198D02*
X0132284Y0084198D01*
X0132284Y0085197D02*
X0115484Y0085197D01*
X0115484Y0086195D02*
X0132284Y0086195D01*
X0132284Y0087194D02*
X0115484Y0087194D01*
X0115484Y0088193D02*
X0132284Y0088193D01*
X0132284Y0089191D02*
X0115484Y0089191D01*
X0115484Y0090190D02*
X0132284Y0090190D01*
X0132284Y0091188D02*
X0115484Y0091188D01*
X0115484Y0092187D02*
X0132284Y0092187D01*
X0132284Y0093185D02*
X0115484Y0093185D01*
X0115484Y0094184D02*
X0132284Y0094184D01*
X0132284Y0095182D02*
X0115484Y0095182D01*
X0115484Y0096181D02*
X0132284Y0096181D01*
X0132284Y0097179D02*
X0115484Y0097179D01*
X0115484Y0098178D02*
X0132284Y0098178D01*
X0132284Y0099176D02*
X0115484Y0099176D01*
X0115484Y0100175D02*
X0132482Y0100175D01*
X0133480Y0101173D02*
X0115484Y0101173D01*
X0115484Y0102172D02*
X0134479Y0102172D01*
X0136547Y0099715D02*
X0141658Y0099715D01*
X0141233Y0099290D01*
X0141233Y0093130D01*
X0139369Y0093130D01*
X0139369Y0090145D01*
X0142550Y0090145D01*
X0142550Y0091827D01*
X0142447Y0092209D01*
X0142439Y0092222D01*
X0142800Y0092222D01*
X0142800Y0085761D01*
X0141878Y0085761D01*
X0141829Y0085713D01*
X0141505Y0086037D01*
X0136263Y0086037D01*
X0135619Y0085392D01*
X0135619Y0080544D01*
X0136263Y0079900D01*
X0137284Y0079900D01*
X0137284Y0078977D01*
X0136222Y0077915D01*
X0134747Y0077915D01*
X0135484Y0078652D01*
X0135484Y0086831D01*
X0135519Y0086772D01*
X0135798Y0086492D01*
X0136140Y0086295D01*
X0136522Y0086193D01*
X0138400Y0086193D01*
X0138400Y0089177D01*
X0139369Y0089177D01*
X0139369Y0090145D01*
X0138400Y0090145D01*
X0138400Y0093130D01*
X0136522Y0093130D01*
X0136140Y0093027D01*
X0135798Y0092830D01*
X0135519Y0092551D01*
X0135484Y0092491D01*
X0135484Y0098652D01*
X0136547Y0099715D01*
X0136009Y0099176D02*
X0141233Y0099176D01*
X0141233Y0098178D02*
X0135484Y0098178D01*
X0135484Y0097179D02*
X0141233Y0097179D01*
X0141233Y0096181D02*
X0135484Y0096181D01*
X0135484Y0095182D02*
X0141233Y0095182D01*
X0141233Y0094184D02*
X0135484Y0094184D01*
X0135484Y0093185D02*
X0141233Y0093185D01*
X0142453Y0092187D02*
X0142800Y0092187D01*
X0142800Y0091188D02*
X0142550Y0091188D01*
X0142550Y0090190D02*
X0142800Y0090190D01*
X0142800Y0089191D02*
X0139369Y0089191D01*
X0139369Y0089177D02*
X0142550Y0089177D01*
X0142550Y0087495D01*
X0142447Y0087114D01*
X0142250Y0086772D01*
X0141971Y0086492D01*
X0141629Y0086295D01*
X0141247Y0086193D01*
X0139369Y0086193D01*
X0139369Y0089177D01*
X0139369Y0088193D02*
X0138400Y0088193D01*
X0138400Y0087194D02*
X0139369Y0087194D01*
X0139369Y0086195D02*
X0138400Y0086195D01*
X0136510Y0086195D02*
X0135484Y0086195D01*
X0135484Y0085197D02*
X0135619Y0085197D01*
X0135619Y0084198D02*
X0135484Y0084198D01*
X0135484Y0083200D02*
X0135619Y0083200D01*
X0135619Y0082201D02*
X0135484Y0082201D01*
X0135484Y0081203D02*
X0135619Y0081203D01*
X0135484Y0080204D02*
X0135959Y0080204D01*
X0135484Y0079206D02*
X0137284Y0079206D01*
X0136514Y0078207D02*
X0135040Y0078207D01*
X0136884Y0076315D02*
X0110884Y0076315D01*
X0109884Y0077315D01*
X0090884Y0077315D01*
X0089381Y0075212D02*
X0061250Y0075212D01*
X0060884Y0079315D02*
X0040884Y0099315D01*
X0040884Y0120315D01*
X0049884Y0129315D01*
X0057884Y0129315D01*
X0058884Y0130315D01*
X0058884Y0135315D01*
X0057231Y0136968D01*
X0023884Y0136968D01*
X0018699Y0136968D01*
X0018644Y0137023D01*
X0018644Y0151196D01*
X0021811Y0151099D02*
X0068284Y0151099D01*
X0068284Y0150100D02*
X0021811Y0150100D01*
X0021811Y0149102D02*
X0068284Y0149102D01*
X0068284Y0148103D02*
X0021811Y0148103D01*
X0021429Y0147105D02*
X0020244Y0147105D01*
X0020244Y0146106D02*
X0020294Y0146106D01*
X0023400Y0146106D02*
X0024369Y0146106D01*
X0024369Y0145108D02*
X0023400Y0145108D01*
X0023400Y0147105D02*
X0024369Y0147105D01*
X0026340Y0147105D02*
X0068284Y0147105D01*
X0068284Y0146106D02*
X0027475Y0146106D01*
X0027550Y0145108D02*
X0068284Y0145108D01*
X0071484Y0145108D02*
X0073284Y0145108D01*
X0073284Y0146106D02*
X0071484Y0146106D01*
X0071484Y0147105D02*
X0073284Y0147105D01*
X0073284Y0148103D02*
X0071484Y0148103D01*
X0071484Y0149102D02*
X0073284Y0149102D01*
X0073284Y0150100D02*
X0071484Y0150100D01*
X0071484Y0151099D02*
X0073284Y0151099D01*
X0073284Y0152097D02*
X0071673Y0152097D01*
X0072305Y0153096D02*
X0073284Y0153096D01*
X0073284Y0154094D02*
X0072434Y0154094D01*
X0072156Y0155093D02*
X0073284Y0155093D01*
X0073398Y0156091D02*
X0071293Y0156091D01*
X0068476Y0156091D02*
X0051970Y0156091D01*
X0052587Y0157090D02*
X0074397Y0157090D01*
X0075395Y0158088D02*
X0052954Y0158088D01*
X0053027Y0160085D02*
X0094851Y0160085D01*
X0094845Y0159087D02*
X0091718Y0159087D01*
X0092324Y0158088D02*
X0094840Y0158088D01*
X0094834Y0157090D02*
X0092434Y0157090D01*
X0092138Y0156091D02*
X0094829Y0156091D01*
X0094823Y0155093D02*
X0091184Y0155093D01*
X0089884Y0157315D02*
X0076884Y0157315D01*
X0074884Y0155315D01*
X0074884Y0139315D01*
X0077284Y0139315D01*
X0074884Y0139315D02*
X0074884Y0124315D01*
X0078884Y0120315D01*
X0078884Y0098315D01*
X0076884Y0096315D01*
X0069884Y0096315D01*
X0068884Y0095315D01*
X0050884Y0095315D01*
X0044884Y0101315D01*
X0044884Y0103315D01*
X0047291Y0104169D02*
X0077284Y0104169D01*
X0077284Y0105167D02*
X0046638Y0105167D01*
X0047434Y0103170D02*
X0077284Y0103170D01*
X0077284Y0102172D02*
X0047171Y0102172D01*
X0047289Y0101173D02*
X0077284Y0101173D01*
X0077284Y0100175D02*
X0048287Y0100175D01*
X0049286Y0099176D02*
X0077284Y0099176D01*
X0076485Y0098178D02*
X0071628Y0098178D01*
X0068141Y0098178D02*
X0050284Y0098178D01*
X0051283Y0097179D02*
X0067482Y0097179D01*
X0071360Y0094184D02*
X0084006Y0094184D01*
X0084942Y0095182D02*
X0078015Y0095182D01*
X0079013Y0096181D02*
X0085878Y0096181D01*
X0086814Y0097179D02*
X0080012Y0097179D01*
X0080484Y0098178D02*
X0087750Y0098178D01*
X0088686Y0099176D02*
X0080484Y0099176D01*
X0080484Y0100175D02*
X0089623Y0100175D01*
X0090559Y0101173D02*
X0080484Y0101173D01*
X0080484Y0102172D02*
X0091284Y0102172D01*
X0091284Y0103170D02*
X0080484Y0103170D01*
X0080484Y0104169D02*
X0091284Y0104169D01*
X0091284Y0105167D02*
X0080484Y0105167D01*
X0080484Y0106166D02*
X0091284Y0106166D01*
X0091284Y0107164D02*
X0080484Y0107164D01*
X0080484Y0108163D02*
X0091284Y0108163D01*
X0091284Y0109161D02*
X0080484Y0109161D01*
X0080484Y0110160D02*
X0091284Y0110160D01*
X0091284Y0111158D02*
X0080484Y0111158D01*
X0080484Y0112157D02*
X0091284Y0112157D01*
X0091284Y0113155D02*
X0080484Y0113155D01*
X0080484Y0114154D02*
X0091284Y0114154D01*
X0091284Y0115152D02*
X0080484Y0115152D01*
X0080484Y0116151D02*
X0091284Y0116151D01*
X0091284Y0117149D02*
X0080484Y0117149D01*
X0080484Y0118148D02*
X0091284Y0118148D01*
X0091284Y0119146D02*
X0080484Y0119146D01*
X0080484Y0120145D02*
X0091284Y0120145D01*
X0091284Y0121143D02*
X0080318Y0121143D01*
X0079320Y0122142D02*
X0091284Y0122142D01*
X0091284Y0123140D02*
X0078321Y0123140D01*
X0077434Y0124139D02*
X0091284Y0124139D01*
X0091284Y0125137D02*
X0077304Y0125137D01*
X0076669Y0126136D02*
X0091284Y0126136D01*
X0091284Y0127134D02*
X0076484Y0127134D01*
X0076484Y0128133D02*
X0091284Y0128133D01*
X0091284Y0129131D02*
X0076484Y0129131D01*
X0076484Y0130130D02*
X0091284Y0130130D01*
X0091284Y0131129D02*
X0076484Y0131129D01*
X0076484Y0132127D02*
X0091284Y0132127D01*
X0091284Y0133126D02*
X0076484Y0133126D01*
X0076484Y0134124D02*
X0091284Y0134124D01*
X0091284Y0135123D02*
X0076484Y0135123D01*
X0076484Y0136121D02*
X0091284Y0136121D01*
X0091284Y0137120D02*
X0078649Y0137120D01*
X0079549Y0138118D02*
X0091284Y0138118D01*
X0091284Y0139117D02*
X0079834Y0139117D01*
X0079713Y0140115D02*
X0091284Y0140115D01*
X0091284Y0141114D02*
X0079092Y0141114D01*
X0076484Y0142112D02*
X0091284Y0142112D01*
X0091284Y0143111D02*
X0076484Y0143111D01*
X0076484Y0144109D02*
X0091284Y0144109D01*
X0091284Y0145108D02*
X0076484Y0145108D01*
X0076484Y0146106D02*
X0091284Y0146106D01*
X0091284Y0147105D02*
X0076484Y0147105D01*
X0076484Y0148103D02*
X0091284Y0148103D01*
X0089563Y0149102D02*
X0076484Y0149102D01*
X0076484Y0150100D02*
X0088627Y0150100D01*
X0088334Y0151099D02*
X0076484Y0151099D01*
X0076484Y0152097D02*
X0088448Y0152097D01*
X0088585Y0155093D02*
X0076925Y0155093D01*
X0069884Y0153915D02*
X0069884Y0123315D01*
X0072884Y0121315D01*
X0075434Y0121143D02*
X0075793Y0121143D01*
X0075160Y0120145D02*
X0076791Y0120145D01*
X0077284Y0119146D02*
X0074313Y0119146D01*
X0071455Y0119146D02*
X0042484Y0119146D01*
X0042484Y0118148D02*
X0077284Y0118148D01*
X0077284Y0117149D02*
X0042484Y0117149D01*
X0042484Y0116151D02*
X0077284Y0116151D01*
X0077284Y0115152D02*
X0042484Y0115152D01*
X0042484Y0114154D02*
X0077284Y0114154D01*
X0077284Y0113155D02*
X0042484Y0113155D01*
X0042484Y0112157D02*
X0077284Y0112157D01*
X0077284Y0111158D02*
X0042484Y0111158D01*
X0042484Y0110160D02*
X0077284Y0110160D01*
X0077284Y0109161D02*
X0042484Y0109161D01*
X0042484Y0108163D02*
X0077284Y0108163D01*
X0077284Y0107164D02*
X0042484Y0107164D01*
X0042484Y0106166D02*
X0077284Y0106166D01*
X0083070Y0093185D02*
X0049277Y0093185D01*
X0049753Y0094184D02*
X0048278Y0094184D01*
X0048754Y0095182D02*
X0047280Y0095182D01*
X0047756Y0096181D02*
X0046281Y0096181D01*
X0046757Y0097179D02*
X0045283Y0097179D01*
X0045759Y0098178D02*
X0044284Y0098178D01*
X0044760Y0099176D02*
X0043286Y0099176D01*
X0043762Y0100175D02*
X0042484Y0100175D01*
X0042484Y0101173D02*
X0043284Y0101173D01*
X0042598Y0102172D02*
X0042484Y0102172D01*
X0042484Y0105167D02*
X0043131Y0105167D01*
X0039284Y0116151D02*
X0014298Y0116151D01*
X0013656Y0117149D02*
X0039284Y0117149D01*
X0039284Y0118148D02*
X0010884Y0118148D01*
X0010884Y0119146D02*
X0039284Y0119146D01*
X0039284Y0120145D02*
X0010884Y0120145D01*
X0010884Y0121143D02*
X0039450Y0121143D01*
X0040449Y0122142D02*
X0010884Y0122142D01*
X0010884Y0123140D02*
X0041447Y0123140D01*
X0042446Y0124139D02*
X0010884Y0124139D01*
X0010884Y0125137D02*
X0043444Y0125137D01*
X0044443Y0126136D02*
X0010884Y0126136D01*
X0010884Y0127134D02*
X0045442Y0127134D01*
X0046440Y0128133D02*
X0010884Y0128133D01*
X0010884Y0129131D02*
X0013380Y0129131D01*
X0012382Y0130130D02*
X0010884Y0130130D01*
X0010884Y0131129D02*
X0011383Y0131129D01*
X0011036Y0132127D02*
X0010884Y0132127D01*
X0010884Y0133126D02*
X0011036Y0133126D01*
X0021811Y0152097D02*
X0068095Y0152097D01*
X0067463Y0153096D02*
X0021811Y0153096D01*
X0021811Y0154094D02*
X0067334Y0154094D01*
X0067612Y0155093D02*
X0050920Y0155093D01*
X0048384Y0155093D02*
X0047384Y0155093D01*
X0047384Y0156091D02*
X0048384Y0156091D01*
X0048384Y0157090D02*
X0047384Y0157090D01*
X0047384Y0158088D02*
X0048384Y0158088D01*
X0048384Y0159087D02*
X0088050Y0159087D01*
X0094856Y0161084D02*
X0052777Y0161084D01*
X0052301Y0162082D02*
X0094861Y0162082D01*
X0094867Y0163081D02*
X0051472Y0163081D01*
X0049987Y0164079D02*
X0094872Y0164079D01*
X0073284Y0144109D02*
X0071484Y0144109D01*
X0071484Y0143111D02*
X0073284Y0143111D01*
X0073284Y0142112D02*
X0071484Y0142112D01*
X0071484Y0141114D02*
X0073284Y0141114D01*
X0073284Y0140115D02*
X0071484Y0140115D01*
X0071484Y0139117D02*
X0073284Y0139117D01*
X0073284Y0138118D02*
X0071484Y0138118D01*
X0071484Y0137120D02*
X0073284Y0137120D01*
X0073284Y0136121D02*
X0071484Y0136121D01*
X0071484Y0135123D02*
X0073284Y0135123D01*
X0073284Y0134124D02*
X0071484Y0134124D01*
X0071484Y0133126D02*
X0073284Y0133126D01*
X0073284Y0132127D02*
X0071484Y0132127D01*
X0071484Y0131129D02*
X0073284Y0131129D01*
X0073284Y0130130D02*
X0071484Y0130130D01*
X0071484Y0129131D02*
X0073284Y0129131D01*
X0073284Y0128133D02*
X0071484Y0128133D01*
X0071484Y0127134D02*
X0073284Y0127134D01*
X0073099Y0126136D02*
X0071484Y0126136D01*
X0071484Y0125137D02*
X0072465Y0125137D01*
X0072334Y0124139D02*
X0071532Y0124139D01*
X0070257Y0121143D02*
X0043976Y0121143D01*
X0042977Y0120145D02*
X0070609Y0120145D01*
X0068759Y0122142D02*
X0044974Y0122142D01*
X0045973Y0123140D02*
X0068284Y0123140D01*
X0068284Y0124139D02*
X0046971Y0124139D01*
X0047970Y0125137D02*
X0068284Y0125137D01*
X0068284Y0126136D02*
X0048968Y0126136D01*
X0049967Y0127134D02*
X0068284Y0127134D01*
X0068284Y0128133D02*
X0058965Y0128133D01*
X0059964Y0129131D02*
X0068284Y0129131D01*
X0068284Y0130130D02*
X0060484Y0130130D01*
X0060484Y0131129D02*
X0068284Y0131129D01*
X0068284Y0132127D02*
X0060484Y0132127D01*
X0060484Y0133126D02*
X0068284Y0133126D01*
X0068284Y0134124D02*
X0060484Y0134124D01*
X0060484Y0135123D02*
X0068284Y0135123D01*
X0068284Y0136121D02*
X0060341Y0136121D01*
X0059342Y0137120D02*
X0068284Y0137120D01*
X0068284Y0138118D02*
X0058344Y0138118D01*
X0047439Y0129131D02*
X0047388Y0129131D01*
X0015290Y0110160D02*
X0014290Y0110160D01*
X0014290Y0109161D02*
X0015290Y0109161D01*
X0015290Y0108163D02*
X0014290Y0108163D01*
X0014290Y0107164D02*
X0015290Y0107164D01*
X0015290Y0106166D02*
X0014290Y0106166D01*
X0045274Y0091188D02*
X0046748Y0091188D01*
X0046272Y0090190D02*
X0047747Y0090190D01*
X0047271Y0089191D02*
X0048745Y0089191D01*
X0048269Y0088193D02*
X0049744Y0088193D01*
X0049268Y0087194D02*
X0050742Y0087194D01*
X0050266Y0086195D02*
X0051741Y0086195D01*
X0051265Y0085197D02*
X0052739Y0085197D01*
X0052263Y0084198D02*
X0053738Y0084198D01*
X0053262Y0083200D02*
X0054736Y0083200D01*
X0057265Y0085197D02*
X0066334Y0085197D01*
X0066489Y0086195D02*
X0056266Y0086195D01*
X0056370Y0087194D02*
X0063399Y0087194D01*
X0064884Y0089315D02*
X0054884Y0089315D01*
X0052487Y0090190D02*
X0052272Y0090190D01*
X0053152Y0091188D02*
X0051274Y0091188D01*
X0050275Y0092187D02*
X0082134Y0092187D01*
X0081198Y0091188D02*
X0066617Y0091188D01*
X0067282Y0090190D02*
X0080261Y0090190D01*
X0079325Y0089191D02*
X0067434Y0089191D01*
X0067180Y0088193D02*
X0078389Y0088193D01*
X0077453Y0087194D02*
X0070611Y0087194D01*
X0067158Y0087194D02*
X0066370Y0087194D01*
X0066587Y0084198D02*
X0058263Y0084198D01*
X0059262Y0083200D02*
X0067393Y0083200D01*
X0060884Y0079315D02*
X0058884Y0081315D01*
X0056617Y0091188D02*
X0063152Y0091188D01*
X0095260Y0082201D02*
X0102891Y0082201D01*
X0110884Y0083815D02*
X0110884Y0118815D01*
X0115484Y0119146D02*
X0143484Y0119146D01*
X0143484Y0118148D02*
X0115484Y0118148D01*
X0115484Y0117149D02*
X0143484Y0117149D01*
X0143484Y0116151D02*
X0115484Y0116151D01*
X0115484Y0115152D02*
X0143484Y0115152D01*
X0143484Y0114154D02*
X0115484Y0114154D01*
X0115484Y0113155D02*
X0143484Y0113155D01*
X0143484Y0112157D02*
X0115484Y0112157D01*
X0115484Y0111158D02*
X0143484Y0111158D01*
X0143484Y0110160D02*
X0115484Y0110160D01*
X0115484Y0109161D02*
X0143484Y0109161D01*
X0143484Y0108163D02*
X0115484Y0108163D01*
X0115484Y0107164D02*
X0143484Y0107164D01*
X0143484Y0106166D02*
X0115484Y0106166D01*
X0115484Y0105167D02*
X0143484Y0105167D01*
X0143484Y0104169D02*
X0115484Y0104169D01*
X0115484Y0103170D02*
X0142677Y0103170D01*
X0144400Y0096078D02*
X0144400Y0081905D01*
X0144400Y0081830D01*
X0144400Y0081905D02*
X0143337Y0082968D01*
X0138884Y0082968D01*
X0138884Y0078315D01*
X0136884Y0076315D01*
X0142720Y0072216D02*
X0095392Y0072216D01*
X0081701Y0059236D02*
X0073569Y0059236D01*
X0073833Y0046255D02*
X0074802Y0046255D01*
X0074802Y0045257D02*
X0073833Y0045257D01*
X0073833Y0044258D02*
X0074802Y0044258D01*
X0101470Y0020315D02*
X0101530Y0020317D01*
X0101591Y0020322D01*
X0101650Y0020331D01*
X0101709Y0020344D01*
X0101768Y0020360D01*
X0101825Y0020380D01*
X0101880Y0020403D01*
X0101935Y0020430D01*
X0101987Y0020459D01*
X0102038Y0020492D01*
X0102087Y0020528D01*
X0102133Y0020566D01*
X0102177Y0020608D01*
X0039284Y0050249D02*
X0037607Y0050249D01*
X0038606Y0051248D02*
X0039284Y0051248D01*
X0039284Y0052246D02*
X0039223Y0052246D01*
X0015849Y0064228D02*
X0015731Y0064228D01*
X0020030Y0074213D02*
X0020180Y0074213D01*
X0020180Y0075212D02*
X0020030Y0075212D01*
X0020030Y0076210D02*
X0020180Y0076210D01*
X0019905Y0077209D02*
X0024329Y0077209D01*
X0021811Y0034273D02*
X0029580Y0034273D01*
X0028581Y0033274D02*
X0021274Y0033274D01*
X0020360Y0032276D02*
X0020244Y0032276D01*
X0023400Y0032276D02*
X0024369Y0032276D01*
X0024369Y0031277D02*
X0023400Y0031277D01*
X0023400Y0030279D02*
X0024369Y0030279D01*
X0024369Y0029177D02*
X0024369Y0026193D01*
X0026247Y0026193D01*
X0026629Y0026295D01*
X0026971Y0026492D01*
X0027250Y0026772D01*
X0027284Y0026831D01*
X0027284Y0024977D01*
X0027150Y0024843D01*
X0027150Y0025392D01*
X0026505Y0026037D01*
X0021811Y0026037D01*
X0021811Y0026062D01*
X0021680Y0026193D01*
X0023400Y0026193D01*
X0023400Y0029177D01*
X0024369Y0029177D01*
X0024369Y0028282D02*
X0023400Y0028282D01*
X0023400Y0027283D02*
X0024369Y0027283D01*
X0024369Y0026285D02*
X0023400Y0026285D01*
X0026592Y0026285D02*
X0027284Y0026285D01*
X0027284Y0025286D02*
X0027150Y0025286D01*
X0027409Y0032276D02*
X0027583Y0032276D01*
X0015821Y0019295D02*
X0015759Y0019295D01*
X0138400Y0090190D02*
X0139369Y0090190D01*
X0139369Y0091188D02*
X0138400Y0091188D01*
X0138400Y0092187D02*
X0139369Y0092187D01*
X0142550Y0088193D02*
X0142800Y0088193D01*
X0142800Y0087194D02*
X0142469Y0087194D01*
X0142800Y0086195D02*
X0141258Y0086195D01*
X0143484Y0120145D02*
X0116160Y0120145D01*
X0116434Y0121143D02*
X0143484Y0121143D01*
X0143484Y0122142D02*
X0116302Y0122142D01*
X0115665Y0123140D02*
X0143484Y0123140D01*
X0143484Y0124139D02*
X0094484Y0124139D01*
X0094484Y0125137D02*
X0143484Y0125137D01*
X0143484Y0126136D02*
X0094484Y0126136D01*
X0094484Y0127134D02*
X0119105Y0127134D01*
X0118343Y0128133D02*
X0094484Y0128133D01*
X0094484Y0129131D02*
X0118084Y0129131D01*
X0118191Y0130130D02*
X0094484Y0130130D01*
X0094484Y0131129D02*
X0118738Y0131129D01*
X0122664Y0127134D02*
X0140405Y0127134D01*
X0143484Y0132127D02*
X0094484Y0132127D01*
X0094484Y0133126D02*
X0143484Y0133126D01*
X0141233Y0134124D02*
X0141230Y0134124D01*
X0138384Y0136968D02*
X0138439Y0137023D01*
X0144400Y0137023D01*
X0141233Y0140115D02*
X0094484Y0140115D01*
X0094484Y0139117D02*
X0135119Y0139117D01*
X0135119Y0138118D02*
X0094484Y0138118D01*
X0094484Y0137120D02*
X0135119Y0137120D01*
X0135119Y0136121D02*
X0094484Y0136121D01*
X0094484Y0135123D02*
X0135119Y0135123D01*
X0135539Y0134124D02*
X0094484Y0134124D01*
X0137900Y0141114D02*
X0138869Y0141114D01*
X0138869Y0142112D02*
X0137900Y0142112D01*
X0137900Y0143111D02*
X0138869Y0143111D01*
X0138869Y0145108D02*
X0137900Y0145108D01*
X0137900Y0146106D02*
X0138869Y0146106D01*
X0138869Y0147105D02*
X0137900Y0147105D01*
X0150109Y0151196D02*
X0150109Y0137023D01*
X0047384Y0159087D02*
X0042684Y0159087D01*
X0042684Y0158360D02*
X0041954Y0156596D01*
X0040603Y0155245D01*
X0038839Y0154515D01*
X0036930Y0154515D01*
X0035165Y0155245D01*
X0033815Y0156596D01*
X0033084Y0158360D01*
X0033084Y0160269D01*
X0033815Y0162034D01*
X0035165Y0163384D01*
X0036930Y0164115D01*
X0038839Y0164115D01*
X0040603Y0163384D01*
X0041954Y0162034D01*
X0042684Y0160269D01*
X0042684Y0158360D01*
X0042572Y0158088D02*
X0042815Y0158088D01*
X0043182Y0157090D02*
X0042158Y0157090D01*
X0041449Y0156091D02*
X0043799Y0156091D01*
X0044848Y0155093D02*
X0040235Y0155093D01*
X0035534Y0155093D02*
X0010884Y0155093D01*
X0010884Y0156091D02*
X0012537Y0156091D01*
X0011321Y0157090D02*
X0010884Y0157090D01*
X0017231Y0156091D02*
X0034319Y0156091D01*
X0033610Y0157090D02*
X0018448Y0157090D01*
X0019158Y0158088D02*
X0033197Y0158088D01*
X0033084Y0159087D02*
X0019571Y0159087D01*
X0019684Y0160085D02*
X0033084Y0160085D01*
X0033422Y0161084D02*
X0019684Y0161084D01*
X0019348Y0162082D02*
X0033864Y0162082D01*
X0034862Y0163081D02*
X0018906Y0163081D01*
X0017908Y0164079D02*
X0036845Y0164079D01*
X0038924Y0164079D02*
X0045782Y0164079D01*
X0044297Y0163081D02*
X0040906Y0163081D01*
X0041905Y0162082D02*
X0043468Y0162082D01*
X0042992Y0161084D02*
X0042347Y0161084D01*
X0042684Y0160085D02*
X0042742Y0160085D01*
D22*
X0069884Y0153915D03*
X0083884Y0145315D03*
X0077284Y0139315D03*
X0083884Y0132315D03*
X0074884Y0124315D03*
X0072884Y0121315D03*
X0083884Y0122315D03*
X0074884Y0107315D03*
X0069884Y0096315D03*
X0070884Y0090315D03*
X0064884Y0089315D03*
X0068884Y0085315D03*
X0060884Y0079315D03*
X0054884Y0089315D03*
X0040884Y0080315D03*
X0048884Y0065315D03*
X0048884Y0058315D03*
X0048884Y0052315D03*
X0057884Y0052315D03*
X0066884Y0058315D03*
X0071884Y0057315D03*
X0077884Y0056315D03*
X0071884Y0064315D03*
X0067884Y0067315D03*
X0080884Y0068315D03*
X0092884Y0068315D03*
X0093884Y0074315D03*
X0090884Y0077315D03*
X0091884Y0081315D03*
X0099884Y0088315D03*
X0104884Y0083815D03*
X0107884Y0085815D03*
X0110884Y0083815D03*
X0113884Y0081815D03*
X0125884Y0081315D03*
X0138884Y0096315D03*
X0123884Y0104315D03*
X0107884Y0113315D03*
X0104884Y0110315D03*
X0110884Y0118815D03*
X0113884Y0121315D03*
X0123884Y0116315D03*
X0090884Y0151315D03*
X0089884Y0157315D03*
X0089884Y0163315D03*
X0029884Y0121315D03*
X0011884Y0115315D03*
X0035884Y0098315D03*
X0044884Y0103315D03*
X0080884Y0078315D03*
X0101884Y0068315D03*
X0103884Y0059315D03*
X0090884Y0059315D03*
X0090884Y0052315D03*
X0125884Y0029315D03*
X0125884Y0016315D03*
X0138884Y0016315D03*
X0102884Y0016315D03*
X0081884Y0023315D03*
X0076884Y0023315D03*
X0076884Y0016315D03*
X0065884Y0024315D03*
X0061884Y0027115D03*
X0060884Y0016315D03*
X0034884Y0017315D03*
X0023884Y0017315D03*
X0034884Y0028315D03*
X0023884Y0041315D03*
D23*
X0012936Y0037023D02*
X0012936Y0022850D01*
X0012936Y0037023D02*
X0012936Y0046472D01*
X0012936Y0060645D01*
X0113825Y0038833D02*
X0114544Y0036315D01*
X0120884Y0036315D01*
X0150109Y0037023D02*
X0150109Y0022850D01*
X0150109Y0037023D02*
X0150109Y0081905D01*
X0150109Y0078539D01*
X0148884Y0077315D01*
X0146884Y0077315D01*
X0145884Y0076315D01*
X0148884Y0077315D02*
X0149884Y0077315D01*
X0150109Y0081905D02*
X0150109Y0096078D01*
X0149884Y0096303D01*
X0149884Y0128315D01*
X0148884Y0129315D01*
X0149884Y0130315D01*
X0149884Y0128315D01*
X0148884Y0129315D02*
X0147884Y0129315D01*
X0149884Y0130315D02*
X0149884Y0136799D01*
X0150109Y0137023D01*
X0142184Y0129315D02*
X0120884Y0129315D01*
X0047884Y0132315D02*
X0045884Y0130315D01*
X0014884Y0130315D01*
X0012936Y0132263D01*
X0012936Y0137023D01*
D24*
X0047884Y0132315D03*
X0120884Y0129315D03*
X0142184Y0129315D03*
X0147884Y0129315D03*
X0145884Y0076315D03*
X0120884Y0036315D03*
D25*
X0037484Y0084115D02*
X0037243Y0083874D01*
X0025321Y0083874D01*
X0037484Y0084115D02*
X0037484Y0092715D01*
X0036884Y0093315D01*
X0031884Y0093315D01*
X0030884Y0094315D01*
X0030884Y0112315D01*
X0029884Y0113315D01*
X0013884Y0113315D01*
X0011884Y0115315D01*
X0012936Y0137023D02*
X0012936Y0151196D01*
M02*
