G75*
%MOIN*%
%OFA0B0*%
%FSLAX25Y25*%
%IPPOS*%
%LPD*%
%AMOC8*
5,1,8,0,0,1.08239X$1,22.5*
%
%ADD10R,0.07883X0.02372*%
%ADD11R,0.02372X0.07883*%
%ADD12C,0.04143*%
%ADD13R,0.05324X0.01781*%
%ADD14R,0.01781X0.05324*%
%ADD15R,0.04931X0.04537*%
%ADD16R,0.02765X0.05324*%
%ADD17R,0.09261X0.04600*%
%ADD18R,0.06112X0.06112*%
%ADD19R,0.04537X0.04931*%
%ADD20R,0.01584X0.03257*%
%ADD21R,0.03257X0.01584*%
%ADD22R,0.02962X0.03435*%
%ADD23R,0.07687X0.06899*%
%ADD24R,0.05324X0.02765*%
%ADD25R,0.02962X0.02569*%
%ADD26R,0.04537X0.04143*%
%ADD27C,0.08000*%
%ADD28R,0.07293X0.04143*%
%ADD29C,0.01361*%
%ADD30R,0.01584X0.03356*%
%ADD31R,0.05994X0.03120*%
%ADD32C,0.03500*%
%ADD33C,0.04000*%
D10*
X0098156Y0101984D03*
X0098156Y0104740D03*
X0098156Y0107496D03*
X0098156Y0110252D03*
X0098156Y0113008D03*
X0098156Y0115763D03*
X0098156Y0118519D03*
X0098156Y0121275D03*
X0098156Y0124031D03*
X0098156Y0126787D03*
X0098156Y0143322D03*
X0098156Y0146078D03*
X0136148Y0146078D03*
X0136148Y0143322D03*
X0136148Y0140567D03*
X0136148Y0137811D03*
X0136148Y0135055D03*
X0136148Y0132299D03*
X0136148Y0129543D03*
X0136148Y0126787D03*
X0136148Y0124031D03*
X0136148Y0121275D03*
X0136148Y0118519D03*
X0136148Y0115763D03*
X0136148Y0113008D03*
X0136148Y0110252D03*
X0136148Y0107496D03*
X0136148Y0104740D03*
X0136148Y0101984D03*
D11*
X0133688Y0095586D03*
X0130932Y0095586D03*
X0128176Y0095586D03*
X0125420Y0095586D03*
X0122664Y0095586D03*
X0119908Y0095586D03*
X0117152Y0095586D03*
X0114396Y0095586D03*
X0111640Y0095586D03*
X0108884Y0095586D03*
X0106128Y0095586D03*
X0103373Y0095586D03*
X0100617Y0095586D03*
D12*
X0125813Y0147850D03*
D13*
G36*
X0078975Y0092220D02*
X0082738Y0088457D01*
X0081479Y0087198D01*
X0077716Y0090961D01*
X0078975Y0092220D01*
G37*
G36*
X0077583Y0090828D02*
X0081346Y0087065D01*
X0080087Y0085806D01*
X0076324Y0089569D01*
X0077583Y0090828D01*
G37*
G36*
X0076192Y0089436D02*
X0079955Y0085673D01*
X0078696Y0084414D01*
X0074933Y0088177D01*
X0076192Y0089436D01*
G37*
G36*
X0074800Y0088044D02*
X0078563Y0084281D01*
X0077304Y0083022D01*
X0073541Y0086785D01*
X0074800Y0088044D01*
G37*
G36*
X0073408Y0086652D02*
X0077171Y0082889D01*
X0075912Y0081630D01*
X0072149Y0085393D01*
X0073408Y0086652D01*
G37*
G36*
X0072016Y0085260D02*
X0075779Y0081497D01*
X0074520Y0080238D01*
X0070757Y0084001D01*
X0072016Y0085260D01*
G37*
G36*
X0070624Y0083868D02*
X0074387Y0080105D01*
X0073128Y0078846D01*
X0069365Y0082609D01*
X0070624Y0083868D01*
G37*
G36*
X0069232Y0082476D02*
X0072995Y0078713D01*
X0071736Y0077454D01*
X0067973Y0081217D01*
X0069232Y0082476D01*
G37*
G36*
X0067840Y0081084D02*
X0071603Y0077321D01*
X0070344Y0076062D01*
X0066581Y0079825D01*
X0067840Y0081084D01*
G37*
G36*
X0066448Y0079692D02*
X0070211Y0075929D01*
X0068952Y0074670D01*
X0065189Y0078433D01*
X0066448Y0079692D01*
G37*
G36*
X0065056Y0078300D02*
X0068819Y0074537D01*
X0067560Y0073278D01*
X0063797Y0077041D01*
X0065056Y0078300D01*
G37*
G36*
X0063664Y0076909D02*
X0067427Y0073146D01*
X0066168Y0071887D01*
X0062405Y0075650D01*
X0063664Y0076909D01*
G37*
G36*
X0062272Y0075517D02*
X0066035Y0071754D01*
X0064776Y0070495D01*
X0061013Y0074258D01*
X0062272Y0075517D01*
G37*
G36*
X0060880Y0074125D02*
X0064643Y0070362D01*
X0063384Y0069103D01*
X0059621Y0072866D01*
X0060880Y0074125D01*
G37*
G36*
X0059488Y0072733D02*
X0063251Y0068970D01*
X0061992Y0067711D01*
X0058229Y0071474D01*
X0059488Y0072733D01*
G37*
G36*
X0058096Y0071341D02*
X0061859Y0067578D01*
X0060600Y0066319D01*
X0056837Y0070082D01*
X0058096Y0071341D01*
G37*
G36*
X0096792Y0046564D02*
X0100555Y0042801D01*
X0099296Y0041542D01*
X0095533Y0045305D01*
X0096792Y0046564D01*
G37*
G36*
X0098184Y0047956D02*
X0101947Y0044193D01*
X0100688Y0042934D01*
X0096925Y0046697D01*
X0098184Y0047956D01*
G37*
G36*
X0099576Y0049348D02*
X0103339Y0045585D01*
X0102080Y0044326D01*
X0098317Y0048089D01*
X0099576Y0049348D01*
G37*
G36*
X0100968Y0050740D02*
X0104731Y0046977D01*
X0103472Y0045718D01*
X0099709Y0049481D01*
X0100968Y0050740D01*
G37*
G36*
X0102360Y0052132D02*
X0106123Y0048369D01*
X0104864Y0047110D01*
X0101101Y0050873D01*
X0102360Y0052132D01*
G37*
G36*
X0103752Y0053524D02*
X0107515Y0049761D01*
X0106256Y0048502D01*
X0102493Y0052265D01*
X0103752Y0053524D01*
G37*
G36*
X0105144Y0054916D02*
X0108907Y0051153D01*
X0107648Y0049894D01*
X0103885Y0053657D01*
X0105144Y0054916D01*
G37*
G36*
X0106536Y0056308D02*
X0110299Y0052545D01*
X0109040Y0051286D01*
X0105277Y0055049D01*
X0106536Y0056308D01*
G37*
G36*
X0107928Y0057700D02*
X0111691Y0053937D01*
X0110432Y0052678D01*
X0106669Y0056441D01*
X0107928Y0057700D01*
G37*
G36*
X0109320Y0059092D02*
X0113083Y0055329D01*
X0111824Y0054070D01*
X0108061Y0057833D01*
X0109320Y0059092D01*
G37*
G36*
X0110712Y0060484D02*
X0114475Y0056721D01*
X0113216Y0055462D01*
X0109453Y0059225D01*
X0110712Y0060484D01*
G37*
G36*
X0095400Y0045172D02*
X0099163Y0041409D01*
X0097904Y0040150D01*
X0094141Y0043913D01*
X0095400Y0045172D01*
G37*
G36*
X0094008Y0043780D02*
X0097771Y0040017D01*
X0096512Y0038758D01*
X0092749Y0042521D01*
X0094008Y0043780D01*
G37*
G36*
X0092616Y0042388D02*
X0096379Y0038625D01*
X0095120Y0037366D01*
X0091357Y0041129D01*
X0092616Y0042388D01*
G37*
G36*
X0091225Y0040996D02*
X0094988Y0037233D01*
X0093729Y0035974D01*
X0089966Y0039737D01*
X0091225Y0040996D01*
G37*
G36*
X0089833Y0039604D02*
X0093596Y0035841D01*
X0092337Y0034582D01*
X0088574Y0038345D01*
X0089833Y0039604D01*
G37*
D14*
G36*
X0081479Y0039604D02*
X0082738Y0038345D01*
X0078975Y0034582D01*
X0077716Y0035841D01*
X0081479Y0039604D01*
G37*
G36*
X0080087Y0040996D02*
X0081346Y0039737D01*
X0077583Y0035974D01*
X0076324Y0037233D01*
X0080087Y0040996D01*
G37*
G36*
X0078696Y0042388D02*
X0079955Y0041129D01*
X0076192Y0037366D01*
X0074933Y0038625D01*
X0078696Y0042388D01*
G37*
G36*
X0077304Y0043780D02*
X0078563Y0042521D01*
X0074800Y0038758D01*
X0073541Y0040017D01*
X0077304Y0043780D01*
G37*
G36*
X0075912Y0045172D02*
X0077171Y0043913D01*
X0073408Y0040150D01*
X0072149Y0041409D01*
X0075912Y0045172D01*
G37*
G36*
X0074520Y0046564D02*
X0075779Y0045305D01*
X0072016Y0041542D01*
X0070757Y0042801D01*
X0074520Y0046564D01*
G37*
G36*
X0073128Y0047956D02*
X0074387Y0046697D01*
X0070624Y0042934D01*
X0069365Y0044193D01*
X0073128Y0047956D01*
G37*
G36*
X0071736Y0049348D02*
X0072995Y0048089D01*
X0069232Y0044326D01*
X0067973Y0045585D01*
X0071736Y0049348D01*
G37*
G36*
X0070344Y0050740D02*
X0071603Y0049481D01*
X0067840Y0045718D01*
X0066581Y0046977D01*
X0070344Y0050740D01*
G37*
G36*
X0068952Y0052132D02*
X0070211Y0050873D01*
X0066448Y0047110D01*
X0065189Y0048369D01*
X0068952Y0052132D01*
G37*
G36*
X0067560Y0053524D02*
X0068819Y0052265D01*
X0065056Y0048502D01*
X0063797Y0049761D01*
X0067560Y0053524D01*
G37*
G36*
X0066168Y0054916D02*
X0067427Y0053657D01*
X0063664Y0049894D01*
X0062405Y0051153D01*
X0066168Y0054916D01*
G37*
G36*
X0064776Y0056308D02*
X0066035Y0055049D01*
X0062272Y0051286D01*
X0061013Y0052545D01*
X0064776Y0056308D01*
G37*
G36*
X0063384Y0057700D02*
X0064643Y0056441D01*
X0060880Y0052678D01*
X0059621Y0053937D01*
X0063384Y0057700D01*
G37*
G36*
X0061992Y0059092D02*
X0063251Y0057833D01*
X0059488Y0054070D01*
X0058229Y0055329D01*
X0061992Y0059092D01*
G37*
G36*
X0060600Y0060484D02*
X0061859Y0059225D01*
X0058096Y0055462D01*
X0056837Y0056721D01*
X0060600Y0060484D01*
G37*
G36*
X0099296Y0085260D02*
X0100555Y0084001D01*
X0096792Y0080238D01*
X0095533Y0081497D01*
X0099296Y0085260D01*
G37*
G36*
X0097904Y0086652D02*
X0099163Y0085393D01*
X0095400Y0081630D01*
X0094141Y0082889D01*
X0097904Y0086652D01*
G37*
G36*
X0096512Y0088044D02*
X0097771Y0086785D01*
X0094008Y0083022D01*
X0092749Y0084281D01*
X0096512Y0088044D01*
G37*
G36*
X0095120Y0089436D02*
X0096379Y0088177D01*
X0092616Y0084414D01*
X0091357Y0085673D01*
X0095120Y0089436D01*
G37*
G36*
X0093729Y0090828D02*
X0094988Y0089569D01*
X0091225Y0085806D01*
X0089966Y0087065D01*
X0093729Y0090828D01*
G37*
G36*
X0092337Y0092220D02*
X0093596Y0090961D01*
X0089833Y0087198D01*
X0088574Y0088457D01*
X0092337Y0092220D01*
G37*
G36*
X0100688Y0083868D02*
X0101947Y0082609D01*
X0098184Y0078846D01*
X0096925Y0080105D01*
X0100688Y0083868D01*
G37*
G36*
X0102080Y0082476D02*
X0103339Y0081217D01*
X0099576Y0077454D01*
X0098317Y0078713D01*
X0102080Y0082476D01*
G37*
G36*
X0103472Y0081084D02*
X0104731Y0079825D01*
X0100968Y0076062D01*
X0099709Y0077321D01*
X0103472Y0081084D01*
G37*
G36*
X0104864Y0079692D02*
X0106123Y0078433D01*
X0102360Y0074670D01*
X0101101Y0075929D01*
X0104864Y0079692D01*
G37*
G36*
X0106256Y0078300D02*
X0107515Y0077041D01*
X0103752Y0073278D01*
X0102493Y0074537D01*
X0106256Y0078300D01*
G37*
G36*
X0107648Y0076909D02*
X0108907Y0075650D01*
X0105144Y0071887D01*
X0103885Y0073146D01*
X0107648Y0076909D01*
G37*
G36*
X0109040Y0075517D02*
X0110299Y0074258D01*
X0106536Y0070495D01*
X0105277Y0071754D01*
X0109040Y0075517D01*
G37*
G36*
X0110432Y0074125D02*
X0111691Y0072866D01*
X0107928Y0069103D01*
X0106669Y0070362D01*
X0110432Y0074125D01*
G37*
G36*
X0111824Y0072733D02*
X0113083Y0071474D01*
X0109320Y0067711D01*
X0108061Y0068970D01*
X0111824Y0072733D01*
G37*
G36*
X0113216Y0071341D02*
X0114475Y0070082D01*
X0110712Y0066319D01*
X0109453Y0067578D01*
X0113216Y0071341D01*
G37*
D15*
G36*
X0117959Y0075206D02*
X0114474Y0071721D01*
X0111267Y0074928D01*
X0114752Y0078413D01*
X0117959Y0075206D01*
G37*
G36*
X0126106Y0076574D02*
X0122621Y0073089D01*
X0119414Y0076296D01*
X0122899Y0079781D01*
X0126106Y0076574D01*
G37*
G36*
X0122692Y0079938D02*
X0119207Y0076453D01*
X0116000Y0079660D01*
X0119485Y0083145D01*
X0122692Y0079938D01*
G37*
G36*
X0121374Y0071841D02*
X0117889Y0068356D01*
X0114682Y0071563D01*
X0118167Y0075048D01*
X0121374Y0071841D01*
G37*
X0135010Y0052574D03*
X0135010Y0045882D03*
X0145185Y0045755D03*
X0145185Y0052448D03*
G36*
X0119158Y0042645D02*
X0115673Y0046130D01*
X0118880Y0049337D01*
X0122365Y0045852D01*
X0119158Y0042645D01*
G37*
G36*
X0115709Y0039425D02*
X0112224Y0042910D01*
X0115431Y0046117D01*
X0118916Y0042632D01*
X0115709Y0039425D01*
G37*
G36*
X0112279Y0036090D02*
X0108794Y0039575D01*
X0112001Y0042782D01*
X0115486Y0039297D01*
X0112279Y0036090D01*
G37*
G36*
X0111511Y0028822D02*
X0108026Y0025337D01*
X0104819Y0028544D01*
X0108304Y0032029D01*
X0111511Y0028822D01*
G37*
G36*
X0106779Y0024089D02*
X0103294Y0020604D01*
X0100087Y0023811D01*
X0103572Y0027296D01*
X0106779Y0024089D01*
G37*
G36*
X0096437Y0019700D02*
X0092952Y0023185D01*
X0096159Y0026392D01*
X0099644Y0022907D01*
X0096437Y0019700D01*
G37*
G36*
X0092920Y0016066D02*
X0089435Y0019551D01*
X0092642Y0022758D01*
X0096127Y0019273D01*
X0092920Y0016066D01*
G37*
G36*
X0088187Y0020798D02*
X0084702Y0024283D01*
X0087909Y0027490D01*
X0091394Y0024005D01*
X0088187Y0020798D01*
G37*
G36*
X0091704Y0024432D02*
X0088219Y0027917D01*
X0091426Y0031124D01*
X0094911Y0027639D01*
X0091704Y0024432D01*
G37*
G36*
X0074369Y0032077D02*
X0077854Y0035562D01*
X0081061Y0032355D01*
X0077576Y0028870D01*
X0074369Y0032077D01*
G37*
G36*
X0069636Y0027345D02*
X0073121Y0030830D01*
X0076328Y0027623D01*
X0072843Y0024138D01*
X0069636Y0027345D01*
G37*
X0052884Y0032468D03*
X0046884Y0032468D03*
X0040884Y0032468D03*
X0040884Y0039161D03*
X0046884Y0039161D03*
X0052884Y0039161D03*
G36*
X0052330Y0072720D02*
X0055815Y0069235D01*
X0052608Y0066028D01*
X0049123Y0069513D01*
X0052330Y0072720D01*
G37*
G36*
X0055921Y0076252D02*
X0059406Y0072767D01*
X0056199Y0069560D01*
X0052714Y0073045D01*
X0055921Y0076252D01*
G37*
G36*
X0051188Y0080985D02*
X0054673Y0077500D01*
X0051466Y0074293D01*
X0047981Y0077778D01*
X0051188Y0080985D01*
G37*
G36*
X0047598Y0077452D02*
X0051083Y0073967D01*
X0047876Y0070760D01*
X0044391Y0074245D01*
X0047598Y0077452D01*
G37*
X0056588Y0095905D03*
X0056588Y0102598D03*
X0043065Y0118414D03*
X0036373Y0118414D03*
X0036538Y0123015D03*
X0043231Y0123015D03*
X0024231Y0124315D03*
X0017538Y0124315D03*
X0017097Y0152496D03*
X0023790Y0152496D03*
X0085499Y0153882D03*
X0085499Y0160574D03*
X0090613Y0122674D03*
X0090613Y0115982D03*
G36*
X0114425Y0047378D02*
X0110940Y0050863D01*
X0114147Y0054070D01*
X0117632Y0050585D01*
X0114425Y0047378D01*
G37*
G36*
X0110976Y0044158D02*
X0107491Y0047643D01*
X0110698Y0050850D01*
X0114183Y0047365D01*
X0110976Y0044158D01*
G37*
G36*
X0107546Y0040822D02*
X0104061Y0044307D01*
X0107268Y0047514D01*
X0110753Y0044029D01*
X0107546Y0040822D01*
G37*
D16*
X0136325Y0058046D03*
X0140065Y0058046D03*
X0143806Y0058046D03*
X0143806Y0068283D03*
X0136325Y0068283D03*
X0043065Y0130708D03*
X0035585Y0130708D03*
X0035585Y0140945D03*
X0039325Y0140945D03*
X0043065Y0140945D03*
D17*
X0127026Y0067586D03*
X0127026Y0058712D03*
D18*
X0127091Y0051374D03*
X0127091Y0036808D03*
D19*
X0139984Y0045868D03*
X0139984Y0052561D03*
X0081317Y0096055D03*
X0085847Y0097619D03*
X0090388Y0097693D03*
X0090388Y0104385D03*
X0085847Y0104312D03*
X0081317Y0100989D03*
X0074625Y0100989D03*
X0074625Y0096055D03*
X0051774Y0095803D03*
X0051774Y0102496D03*
X0043117Y0107874D03*
X0036425Y0107874D03*
X0036425Y0112900D03*
X0043117Y0112900D03*
X0026672Y0133819D03*
X0019979Y0133819D03*
X0048144Y0140338D03*
X0052973Y0140327D03*
X0052973Y0147020D03*
X0048144Y0147031D03*
X0060625Y0153133D03*
X0065310Y0153133D03*
X0065310Y0159826D03*
X0060625Y0159826D03*
X0090771Y0134685D03*
X0090771Y0127992D03*
X0081144Y0114945D03*
X0074451Y0114945D03*
D20*
X0068727Y0109368D03*
X0066758Y0109368D03*
X0064790Y0109368D03*
X0062821Y0109368D03*
X0060853Y0109368D03*
X0058884Y0109368D03*
X0056916Y0109368D03*
X0054947Y0109368D03*
X0052979Y0109368D03*
X0051010Y0109368D03*
X0051010Y0122458D03*
X0052979Y0122458D03*
X0054947Y0122458D03*
X0056916Y0122458D03*
X0058884Y0122458D03*
X0060853Y0122458D03*
X0062821Y0122458D03*
X0064790Y0122458D03*
X0066758Y0122458D03*
X0068727Y0122458D03*
D21*
X0069170Y0118866D03*
X0069170Y0116897D03*
X0069170Y0114929D03*
X0069170Y0112960D03*
X0050567Y0112960D03*
X0050567Y0114929D03*
X0050567Y0116897D03*
X0050567Y0118866D03*
D22*
X0073058Y0148193D03*
X0073058Y0152011D03*
X0073058Y0155830D03*
X0078569Y0155830D03*
X0078569Y0152011D03*
X0078569Y0148193D03*
X0078569Y0159649D03*
X0073058Y0159649D03*
D23*
X0063176Y0145803D03*
X0063176Y0134779D03*
D24*
X0028562Y0139504D03*
X0028562Y0143244D03*
X0028562Y0146984D03*
X0018325Y0146984D03*
X0018325Y0139504D03*
D25*
G36*
X0104442Y0039739D02*
X0102348Y0041833D01*
X0104164Y0043649D01*
X0106258Y0041555D01*
X0104442Y0039739D01*
G37*
G36*
X0102215Y0037512D02*
X0100121Y0039606D01*
X0101937Y0041422D01*
X0104031Y0039328D01*
X0102215Y0037512D01*
G37*
G36*
X0105277Y0034450D02*
X0103183Y0036544D01*
X0104999Y0038360D01*
X0107093Y0036266D01*
X0105277Y0034450D01*
G37*
G36*
X0107504Y0036677D02*
X0105410Y0038771D01*
X0107226Y0040587D01*
X0109320Y0038493D01*
X0107504Y0036677D01*
G37*
D26*
G36*
X0103668Y0034260D02*
X0106875Y0031053D01*
X0103946Y0028124D01*
X0100739Y0031331D01*
X0103668Y0034260D01*
G37*
G36*
X0099144Y0038784D02*
X0102351Y0035577D01*
X0099422Y0032648D01*
X0096215Y0035855D01*
X0099144Y0038784D01*
G37*
G36*
X0095734Y0035374D02*
X0098941Y0032167D01*
X0096012Y0029238D01*
X0092805Y0032445D01*
X0095734Y0035374D01*
G37*
G36*
X0100258Y0030850D02*
X0103465Y0027643D01*
X0100536Y0024714D01*
X0097329Y0027921D01*
X0100258Y0030850D01*
G37*
D27*
X0014884Y0012315D03*
X0034884Y0044315D03*
X0034884Y0054315D03*
X0034884Y0064315D03*
X0034884Y0074315D03*
X0147884Y0012315D03*
X0047884Y0159315D03*
X0037884Y0159315D03*
X0014884Y0160315D03*
X0147884Y0160315D03*
D28*
X0082884Y0139315D03*
X0083984Y0109715D03*
X0121884Y0088615D03*
X0131884Y0088315D03*
X0131884Y0081315D03*
D29*
X0054472Y0028355D02*
X0051296Y0028355D01*
X0054472Y0028355D02*
X0054472Y0025179D01*
X0051296Y0025179D01*
X0051296Y0028355D01*
X0051296Y0026539D02*
X0054472Y0026539D01*
X0054472Y0027899D02*
X0051296Y0027899D01*
X0048472Y0028355D02*
X0045296Y0028355D01*
X0048472Y0028355D02*
X0048472Y0025179D01*
X0045296Y0025179D01*
X0045296Y0028355D01*
X0045296Y0026539D02*
X0048472Y0026539D01*
X0048472Y0027899D02*
X0045296Y0027899D01*
X0042472Y0028355D02*
X0039296Y0028355D01*
X0042472Y0028355D02*
X0042472Y0025179D01*
X0039296Y0025179D01*
X0039296Y0028355D01*
X0039296Y0026539D02*
X0042472Y0026539D01*
X0042472Y0027899D02*
X0039296Y0027899D01*
X0039296Y0021450D02*
X0042472Y0021450D01*
X0042472Y0018274D01*
X0039296Y0018274D01*
X0039296Y0021450D01*
X0039296Y0019634D02*
X0042472Y0019634D01*
X0042472Y0020994D02*
X0039296Y0020994D01*
X0045296Y0021450D02*
X0048472Y0021450D01*
X0048472Y0018274D01*
X0045296Y0018274D01*
X0045296Y0021450D01*
X0045296Y0019634D02*
X0048472Y0019634D01*
X0048472Y0020994D02*
X0045296Y0020994D01*
X0051296Y0021450D02*
X0054472Y0021450D01*
X0054472Y0018274D01*
X0051296Y0018274D01*
X0051296Y0021450D01*
X0051296Y0019634D02*
X0054472Y0019634D01*
X0054472Y0020994D02*
X0051296Y0020994D01*
D30*
X0025592Y0109653D03*
X0023821Y0109653D03*
X0022049Y0109653D03*
X0020277Y0109653D03*
X0020277Y0116937D03*
X0022049Y0116937D03*
X0023821Y0116937D03*
X0025592Y0116937D03*
D31*
X0022935Y0113295D03*
D32*
X0011884Y0115315D03*
X0029884Y0121315D03*
X0044884Y0103315D03*
X0035884Y0098315D03*
X0054884Y0089315D03*
X0064884Y0089315D03*
X0068884Y0085315D03*
X0070884Y0090315D03*
X0069884Y0096315D03*
X0074884Y0107315D03*
X0072884Y0121315D03*
X0074884Y0124315D03*
X0083884Y0122315D03*
X0083884Y0132315D03*
X0077284Y0139315D03*
X0083884Y0145315D03*
X0090884Y0151315D03*
X0089884Y0157315D03*
X0089884Y0163315D03*
X0069884Y0153915D03*
X0113884Y0121315D03*
X0110884Y0118815D03*
X0107884Y0113315D03*
X0104884Y0110315D03*
X0123884Y0116315D03*
X0123884Y0104315D03*
X0138884Y0096315D03*
X0125884Y0081315D03*
X0113884Y0081815D03*
X0110884Y0083815D03*
X0107884Y0085815D03*
X0104884Y0083815D03*
X0099884Y0088315D03*
X0091884Y0081315D03*
X0090884Y0077315D03*
X0093884Y0074315D03*
X0092884Y0068315D03*
X0101884Y0068315D03*
X0103884Y0059315D03*
X0090884Y0059315D03*
X0090884Y0052315D03*
X0077884Y0056315D03*
X0071884Y0057315D03*
X0066884Y0058315D03*
X0071884Y0064315D03*
X0067884Y0067315D03*
X0080884Y0068315D03*
X0080884Y0078315D03*
X0060884Y0079315D03*
X0048884Y0065315D03*
X0048884Y0058315D03*
X0048884Y0052315D03*
X0057884Y0052315D03*
X0034884Y0028315D03*
X0034884Y0017315D03*
X0023884Y0017315D03*
X0023884Y0041315D03*
X0061884Y0027115D03*
X0065884Y0024315D03*
X0060884Y0016315D03*
X0076884Y0016315D03*
X0076884Y0023315D03*
X0081884Y0023315D03*
X0102884Y0016315D03*
X0125884Y0016315D03*
X0138884Y0016315D03*
X0125884Y0029315D03*
X0040884Y0080315D03*
D33*
X0047884Y0132315D03*
X0120884Y0129315D03*
X0142184Y0129315D03*
X0147884Y0129315D03*
X0145884Y0076315D03*
X0120884Y0036315D03*
M02*
