%
M48
M72
T01C0.0150
T02C0.0200
T03C0.0354
T04C0.0400
%
T01
X2388Y1731
X3488Y1731
X3488Y2831
X2388Y4131
X4888Y5231
X4888Y5831
X4888Y6531
X6788Y6731
X7188Y6431
X6688Y5831
X7188Y5731
X7788Y5631
X9088Y5931
X9088Y5231
X10388Y5931
X10188Y6831
X9288Y6831
X9388Y7431
X9088Y7731
X9188Y8131
X9988Y8831
X10488Y8381
X10788Y8581
X11088Y8381
X11388Y8181
X12588Y8131
X13888Y9631
X12388Y10431
X10788Y11331
X10488Y11031
X11088Y11881
X11388Y12131
X12388Y11631
X8388Y12231
X7488Y12431
X7288Y12131
X8388Y13231
X7728Y13931
X8388Y14531
X9088Y15131
X8988Y15731
X8988Y16331
X6988Y15391
X2988Y12131
X1188Y11531
X3588Y9831
X4488Y10331
X5488Y8931
X6488Y8931
X6888Y8531
X7088Y9031
X6988Y9631
X7488Y10731
X6088Y7931
X8088Y7831
X8088Y6831
X5788Y5231
X6188Y2711
X6588Y2431
X6088Y1631
X7688Y1631
X7688Y2331
X8188Y2331
X10288Y1631
X12588Y1631
X13888Y1631
X12588Y2931
X4088Y8031
T02
X4788Y13231
X12088Y12931
X14218Y12931
X14788Y12931
X14588Y7631
X12088Y3631
T03
X12581Y14785
T04
X1488Y1231
X3488Y4431
X3488Y5431
X3488Y6431
X3488Y7431
X14788Y1231
X4788Y15931
X3788Y15931
X1488Y16031
X14788Y16031
M30
