G75*
%MOIN*%
%OFA0B0*%
%FSLAX25Y25*%
%IPPOS*%
%LPD*%
%AMOC8*
5,1,8,0,0,1.08239X$1,22.5*
%
%ADD10C,0.00500*%
%ADD11C,0.00800*%
%ADD12C,0.01000*%
%ADD13R,0.04724X0.00787*%
%ADD14R,0.00787X0.04724*%
%ADD15R,0.03937X0.00787*%
%ADD16C,0.01000*%
D10*
X0093158Y0032306D02*
X0099283Y0038430D01*
X0106521Y0031192D01*
X0106127Y0031192D02*
X0106129Y0031231D01*
X0106135Y0031270D01*
X0106145Y0031308D01*
X0106158Y0031345D01*
X0106175Y0031380D01*
X0106195Y0031414D01*
X0106219Y0031445D01*
X0106246Y0031474D01*
X0106275Y0031500D01*
X0106307Y0031523D01*
X0106341Y0031543D01*
X0106377Y0031559D01*
X0106414Y0031571D01*
X0106453Y0031580D01*
X0106492Y0031585D01*
X0106531Y0031586D01*
X0106570Y0031583D01*
X0106609Y0031576D01*
X0106646Y0031565D01*
X0106683Y0031551D01*
X0106718Y0031533D01*
X0106751Y0031512D01*
X0106782Y0031487D01*
X0106810Y0031460D01*
X0106835Y0031430D01*
X0106857Y0031397D01*
X0106876Y0031363D01*
X0106891Y0031327D01*
X0106903Y0031289D01*
X0106911Y0031251D01*
X0106915Y0031212D01*
X0106915Y0031172D01*
X0106911Y0031133D01*
X0106903Y0031095D01*
X0106891Y0031057D01*
X0106876Y0031021D01*
X0106857Y0030987D01*
X0106835Y0030954D01*
X0106810Y0030924D01*
X0106782Y0030897D01*
X0106751Y0030872D01*
X0106718Y0030851D01*
X0106683Y0030833D01*
X0106646Y0030819D01*
X0106609Y0030808D01*
X0106570Y0030801D01*
X0106531Y0030798D01*
X0106492Y0030799D01*
X0106453Y0030804D01*
X0106414Y0030813D01*
X0106377Y0030825D01*
X0106341Y0030841D01*
X0106307Y0030861D01*
X0106275Y0030884D01*
X0106246Y0030910D01*
X0106219Y0030939D01*
X0106195Y0030970D01*
X0106175Y0031004D01*
X0106158Y0031039D01*
X0106145Y0031076D01*
X0106135Y0031114D01*
X0106129Y0031153D01*
X0106127Y0031192D01*
X0106521Y0031192D02*
X0100397Y0025068D01*
X0093158Y0032306D01*
X0100429Y0039606D02*
X0100431Y0039645D01*
X0100437Y0039684D01*
X0100447Y0039722D01*
X0100460Y0039759D01*
X0100477Y0039794D01*
X0100497Y0039828D01*
X0100521Y0039859D01*
X0100548Y0039888D01*
X0100577Y0039914D01*
X0100609Y0039937D01*
X0100643Y0039957D01*
X0100679Y0039973D01*
X0100716Y0039985D01*
X0100755Y0039994D01*
X0100794Y0039999D01*
X0100833Y0040000D01*
X0100872Y0039997D01*
X0100911Y0039990D01*
X0100948Y0039979D01*
X0100985Y0039965D01*
X0101020Y0039947D01*
X0101053Y0039926D01*
X0101084Y0039901D01*
X0101112Y0039874D01*
X0101137Y0039844D01*
X0101159Y0039811D01*
X0101178Y0039777D01*
X0101193Y0039741D01*
X0101205Y0039703D01*
X0101213Y0039665D01*
X0101217Y0039626D01*
X0101217Y0039586D01*
X0101213Y0039547D01*
X0101205Y0039509D01*
X0101193Y0039471D01*
X0101178Y0039435D01*
X0101159Y0039401D01*
X0101137Y0039368D01*
X0101112Y0039338D01*
X0101084Y0039311D01*
X0101053Y0039286D01*
X0101020Y0039265D01*
X0100985Y0039247D01*
X0100948Y0039233D01*
X0100911Y0039222D01*
X0100872Y0039215D01*
X0100833Y0039212D01*
X0100794Y0039213D01*
X0100755Y0039218D01*
X0100716Y0039227D01*
X0100679Y0039239D01*
X0100643Y0039255D01*
X0100609Y0039275D01*
X0100577Y0039298D01*
X0100548Y0039324D01*
X0100521Y0039353D01*
X0100497Y0039384D01*
X0100477Y0039418D01*
X0100460Y0039453D01*
X0100447Y0039490D01*
X0100437Y0039528D01*
X0100431Y0039567D01*
X0100429Y0039606D01*
X0100823Y0039606D02*
X0104164Y0042947D01*
X0108618Y0038493D01*
X0105277Y0035152D01*
X0100823Y0039606D01*
X0134554Y0060015D02*
X0134947Y0060015D01*
X0134554Y0060015D02*
X0134554Y0066315D01*
X0134947Y0066315D01*
X0137703Y0066315D02*
X0142428Y0066315D01*
X0145184Y0066315D02*
X0145577Y0066315D01*
X0145577Y0060015D01*
X0145184Y0060015D01*
X0142428Y0060015D02*
X0141640Y0060015D01*
X0138491Y0060015D02*
X0137703Y0060015D01*
X0137231Y0094504D02*
X0135656Y0094504D01*
X0137231Y0094504D02*
X0137231Y0100015D01*
X0098648Y0094504D02*
X0097073Y0094504D01*
X0097073Y0100015D01*
X0071188Y0107350D02*
X0071188Y0124476D01*
X0048550Y0124476D01*
X0048550Y0107350D01*
X0071188Y0107350D01*
X0097073Y0128756D02*
X0097073Y0141354D01*
X0097073Y0148047D02*
X0097073Y0166157D01*
X0137231Y0166157D01*
X0137231Y0148047D01*
X0026791Y0116937D02*
X0026793Y0116970D01*
X0026799Y0117002D01*
X0026808Y0117034D01*
X0026822Y0117064D01*
X0026838Y0117092D01*
X0026858Y0117118D01*
X0026881Y0117142D01*
X0026907Y0117163D01*
X0026935Y0117180D01*
X0026965Y0117195D01*
X0026996Y0117205D01*
X0027028Y0117212D01*
X0027061Y0117215D01*
X0027094Y0117214D01*
X0027126Y0117209D01*
X0027158Y0117200D01*
X0027189Y0117188D01*
X0027217Y0117172D01*
X0027244Y0117153D01*
X0027268Y0117131D01*
X0027290Y0117106D01*
X0027308Y0117078D01*
X0027323Y0117049D01*
X0027335Y0117018D01*
X0027343Y0116986D01*
X0027347Y0116953D01*
X0027347Y0116921D01*
X0027343Y0116888D01*
X0027335Y0116856D01*
X0027323Y0116825D01*
X0027308Y0116796D01*
X0027290Y0116768D01*
X0027268Y0116743D01*
X0027244Y0116721D01*
X0027217Y0116702D01*
X0027189Y0116686D01*
X0027158Y0116674D01*
X0027126Y0116665D01*
X0027094Y0116660D01*
X0027061Y0116659D01*
X0027028Y0116662D01*
X0026996Y0116669D01*
X0026965Y0116679D01*
X0026935Y0116694D01*
X0026907Y0116711D01*
X0026881Y0116732D01*
X0026858Y0116756D01*
X0026838Y0116782D01*
X0026822Y0116810D01*
X0026808Y0116840D01*
X0026799Y0116872D01*
X0026793Y0116904D01*
X0026791Y0116937D01*
X0026793Y0116970D01*
X0026799Y0117002D01*
X0026808Y0117034D01*
X0026822Y0117064D01*
X0026838Y0117092D01*
X0026858Y0117118D01*
X0026881Y0117142D01*
X0026907Y0117163D01*
X0026935Y0117180D01*
X0026965Y0117195D01*
X0026996Y0117205D01*
X0027028Y0117212D01*
X0027061Y0117215D01*
X0027094Y0117214D01*
X0027126Y0117209D01*
X0027158Y0117200D01*
X0027189Y0117188D01*
X0027217Y0117172D01*
X0027244Y0117153D01*
X0027268Y0117131D01*
X0027290Y0117106D01*
X0027308Y0117078D01*
X0027323Y0117049D01*
X0027335Y0117018D01*
X0027343Y0116986D01*
X0027347Y0116953D01*
X0027347Y0116921D01*
X0027343Y0116888D01*
X0027335Y0116856D01*
X0027323Y0116825D01*
X0027308Y0116796D01*
X0027290Y0116768D01*
X0027268Y0116743D01*
X0027244Y0116721D01*
X0027217Y0116702D01*
X0027189Y0116686D01*
X0027158Y0116674D01*
X0027126Y0116665D01*
X0027094Y0116660D01*
X0027061Y0116659D01*
X0027028Y0116662D01*
X0026996Y0116669D01*
X0026965Y0116679D01*
X0026935Y0116694D01*
X0026907Y0116711D01*
X0026881Y0116732D01*
X0026858Y0116756D01*
X0026838Y0116782D01*
X0026822Y0116810D01*
X0026808Y0116840D01*
X0026799Y0116872D01*
X0026793Y0116904D01*
X0026791Y0116937D01*
D11*
X0039073Y0022645D02*
X0040884Y0022645D01*
X0039964Y0023866D01*
X0040884Y0022645D02*
X0042695Y0022645D01*
X0041744Y0023866D02*
X0040984Y0022706D01*
X0045073Y0022645D02*
X0046884Y0022645D01*
X0045964Y0023866D01*
X0046884Y0022645D02*
X0048695Y0022645D01*
X0047744Y0023866D02*
X0046984Y0022706D01*
X0051073Y0022645D02*
X0052884Y0022645D01*
X0051964Y0023866D01*
X0052884Y0022645D02*
X0054695Y0022645D01*
X0053744Y0023866D02*
X0052984Y0022706D01*
X0084542Y0037789D02*
X0060044Y0062288D01*
X0060044Y0064515D01*
X0084542Y0089013D01*
X0086770Y0089013D01*
X0111268Y0064515D01*
X0111268Y0062288D01*
X0086770Y0037789D01*
X0084542Y0037789D01*
X0122026Y0055899D02*
X0122026Y0070399D01*
X0132026Y0070399D01*
X0132026Y0055899D01*
X0122026Y0055899D01*
X0124335Y0047528D02*
X0124335Y0040654D01*
X0127091Y0042910D02*
X0128665Y0045272D01*
X0125516Y0045272D01*
X0127091Y0042910D01*
X0127091Y0043697D02*
X0127878Y0044878D01*
X0126303Y0044878D01*
X0127091Y0043697D01*
X0127189Y0043845D02*
X0126992Y0043845D01*
X0126460Y0044643D02*
X0127721Y0044643D01*
X0129847Y0047528D02*
X0129847Y0040654D01*
X0040382Y0133036D02*
X0038269Y0133036D01*
X0034325Y0134136D02*
X0034325Y0137517D01*
X0025134Y0137644D02*
X0021753Y0137644D01*
X0020253Y0142187D02*
X0020253Y0144300D01*
X0021753Y0148844D02*
X0025134Y0148844D01*
X0044325Y0137517D02*
X0044325Y0134136D01*
X0071050Y0145968D02*
X0071050Y0161874D01*
X0080577Y0161874D01*
X0080577Y0145968D01*
X0071050Y0145968D01*
X0075064Y0146685D02*
X0075139Y0146652D01*
X0075215Y0146623D01*
X0075292Y0146597D01*
X0075370Y0146575D01*
X0075449Y0146557D01*
X0075529Y0146542D01*
X0075610Y0146531D01*
X0075691Y0146523D01*
X0075772Y0146519D01*
X0075854Y0146519D01*
X0075935Y0146523D01*
X0076016Y0146531D01*
X0076097Y0146542D01*
X0076177Y0146557D01*
X0076256Y0146575D01*
X0076334Y0146597D01*
X0076411Y0146623D01*
X0076487Y0146652D01*
X0076562Y0146685D01*
X0076562Y0149897D02*
X0076487Y0149930D01*
X0076411Y0149959D01*
X0076334Y0149985D01*
X0076256Y0150007D01*
X0076177Y0150025D01*
X0076097Y0150040D01*
X0076016Y0150051D01*
X0075935Y0150059D01*
X0075854Y0150063D01*
X0075772Y0150063D01*
X0075691Y0150059D01*
X0075610Y0150051D01*
X0075529Y0150040D01*
X0075449Y0150025D01*
X0075370Y0150007D01*
X0075292Y0149985D01*
X0075215Y0149959D01*
X0075139Y0149930D01*
X0075064Y0149897D01*
X0075026Y0150693D02*
X0076601Y0150693D01*
X0076553Y0160955D02*
X0076469Y0160984D01*
X0076384Y0161009D01*
X0076298Y0161031D01*
X0076211Y0161049D01*
X0076123Y0161064D01*
X0076035Y0161075D01*
X0075946Y0161082D01*
X0075857Y0161086D01*
X0075769Y0161086D01*
X0075680Y0161082D01*
X0075591Y0161075D01*
X0075503Y0161064D01*
X0075415Y0161049D01*
X0075328Y0161031D01*
X0075242Y0161009D01*
X0075157Y0160984D01*
X0075073Y0160955D01*
X0075073Y0156887D02*
X0075157Y0156858D01*
X0075242Y0156833D01*
X0075328Y0156811D01*
X0075415Y0156793D01*
X0075503Y0156778D01*
X0075591Y0156767D01*
X0075680Y0156760D01*
X0075769Y0156756D01*
X0075857Y0156756D01*
X0075946Y0156760D01*
X0076035Y0156767D01*
X0076123Y0156778D01*
X0076211Y0156793D01*
X0076298Y0156811D01*
X0076384Y0156833D01*
X0076469Y0156858D01*
X0076553Y0156887D01*
X0081408Y0160307D02*
X0081410Y0160366D01*
X0081416Y0160424D01*
X0081426Y0160482D01*
X0081439Y0160539D01*
X0081457Y0160595D01*
X0081478Y0160650D01*
X0081502Y0160703D01*
X0081531Y0160754D01*
X0081562Y0160804D01*
X0081597Y0160851D01*
X0081635Y0160896D01*
X0081676Y0160938D01*
X0081719Y0160977D01*
X0081765Y0161014D01*
X0081814Y0161047D01*
X0081864Y0161077D01*
X0081916Y0161103D01*
X0081970Y0161126D01*
X0082026Y0161146D01*
X0082082Y0161161D01*
X0082140Y0161173D01*
X0082198Y0161181D01*
X0082257Y0161185D01*
X0082315Y0161185D01*
X0082374Y0161181D01*
X0082432Y0161173D01*
X0082490Y0161161D01*
X0082546Y0161146D01*
X0082602Y0161126D01*
X0082656Y0161103D01*
X0082708Y0161077D01*
X0082758Y0161047D01*
X0082807Y0161014D01*
X0082853Y0160977D01*
X0082896Y0160938D01*
X0082937Y0160896D01*
X0082975Y0160851D01*
X0083010Y0160804D01*
X0083041Y0160754D01*
X0083070Y0160703D01*
X0083094Y0160650D01*
X0083115Y0160595D01*
X0083133Y0160539D01*
X0083146Y0160482D01*
X0083156Y0160424D01*
X0083162Y0160366D01*
X0083164Y0160307D01*
X0083162Y0160248D01*
X0083156Y0160190D01*
X0083146Y0160132D01*
X0083133Y0160075D01*
X0083115Y0160019D01*
X0083094Y0159964D01*
X0083070Y0159911D01*
X0083041Y0159860D01*
X0083010Y0159810D01*
X0082975Y0159763D01*
X0082937Y0159718D01*
X0082896Y0159676D01*
X0082853Y0159637D01*
X0082807Y0159600D01*
X0082758Y0159567D01*
X0082708Y0159537D01*
X0082656Y0159511D01*
X0082602Y0159488D01*
X0082546Y0159468D01*
X0082490Y0159453D01*
X0082432Y0159441D01*
X0082374Y0159433D01*
X0082315Y0159429D01*
X0082257Y0159429D01*
X0082198Y0159433D01*
X0082140Y0159441D01*
X0082082Y0159453D01*
X0082026Y0159468D01*
X0081970Y0159488D01*
X0081916Y0159511D01*
X0081864Y0159537D01*
X0081814Y0159567D01*
X0081765Y0159600D01*
X0081719Y0159637D01*
X0081676Y0159676D01*
X0081635Y0159718D01*
X0081597Y0159763D01*
X0081562Y0159810D01*
X0081531Y0159860D01*
X0081502Y0159911D01*
X0081478Y0159964D01*
X0081457Y0160019D01*
X0081439Y0160075D01*
X0081426Y0160132D01*
X0081416Y0160190D01*
X0081410Y0160248D01*
X0081408Y0160307D01*
D12*
X0084543Y0041130D02*
X0084545Y0041197D01*
X0084551Y0041263D01*
X0084561Y0041329D01*
X0084575Y0041394D01*
X0084592Y0041458D01*
X0084614Y0041521D01*
X0084639Y0041583D01*
X0084668Y0041643D01*
X0084701Y0041701D01*
X0084736Y0041757D01*
X0084776Y0041811D01*
X0084818Y0041862D01*
X0084863Y0041911D01*
X0084911Y0041957D01*
X0084962Y0042000D01*
X0085015Y0042040D01*
X0085071Y0042077D01*
X0085129Y0042110D01*
X0085188Y0042140D01*
X0085249Y0042166D01*
X0085312Y0042189D01*
X0085376Y0042207D01*
X0085441Y0042222D01*
X0085507Y0042233D01*
X0085573Y0042240D01*
X0085639Y0042243D01*
X0085706Y0042242D01*
X0085772Y0042237D01*
X0085838Y0042228D01*
X0085904Y0042215D01*
X0085968Y0042198D01*
X0086031Y0042178D01*
X0086093Y0042153D01*
X0086154Y0042125D01*
X0086213Y0042094D01*
X0086269Y0042059D01*
X0086324Y0042021D01*
X0086376Y0041979D01*
X0086425Y0041934D01*
X0086472Y0041887D01*
X0086516Y0041837D01*
X0086556Y0041784D01*
X0086594Y0041729D01*
X0086628Y0041672D01*
X0086659Y0041613D01*
X0086686Y0041552D01*
X0086709Y0041490D01*
X0086729Y0041426D01*
X0086745Y0041361D01*
X0086757Y0041296D01*
X0086765Y0041230D01*
X0086769Y0041163D01*
X0086769Y0041097D01*
X0086765Y0041030D01*
X0086757Y0040964D01*
X0086745Y0040899D01*
X0086729Y0040834D01*
X0086709Y0040770D01*
X0086686Y0040708D01*
X0086659Y0040647D01*
X0086628Y0040588D01*
X0086594Y0040531D01*
X0086556Y0040476D01*
X0086516Y0040423D01*
X0086472Y0040373D01*
X0086425Y0040326D01*
X0086376Y0040281D01*
X0086324Y0040239D01*
X0086269Y0040201D01*
X0086212Y0040166D01*
X0086154Y0040135D01*
X0086093Y0040107D01*
X0086031Y0040082D01*
X0085968Y0040062D01*
X0085904Y0040045D01*
X0085838Y0040032D01*
X0085772Y0040023D01*
X0085706Y0040018D01*
X0085639Y0040017D01*
X0085573Y0040020D01*
X0085507Y0040027D01*
X0085441Y0040038D01*
X0085376Y0040053D01*
X0085312Y0040071D01*
X0085249Y0040094D01*
X0085188Y0040120D01*
X0085129Y0040150D01*
X0085071Y0040183D01*
X0085015Y0040220D01*
X0084962Y0040260D01*
X0084911Y0040303D01*
X0084863Y0040349D01*
X0084818Y0040398D01*
X0084776Y0040449D01*
X0084736Y0040503D01*
X0084701Y0040559D01*
X0084668Y0040617D01*
X0084639Y0040677D01*
X0084614Y0040739D01*
X0084592Y0040802D01*
X0084575Y0040866D01*
X0084561Y0040931D01*
X0084551Y0040997D01*
X0084545Y0041063D01*
X0084543Y0041130D01*
D13*
G36*
X0088857Y0039877D02*
X0092197Y0036537D01*
X0091641Y0035981D01*
X0088301Y0039321D01*
X0088857Y0039877D01*
G37*
G36*
X0090249Y0041269D02*
X0093589Y0037929D01*
X0093033Y0037373D01*
X0089693Y0040713D01*
X0090249Y0041269D01*
G37*
G36*
X0091641Y0042661D02*
X0094981Y0039321D01*
X0094425Y0038765D01*
X0091085Y0042105D01*
X0091641Y0042661D01*
G37*
G36*
X0093033Y0044052D02*
X0096373Y0040712D01*
X0095817Y0040156D01*
X0092477Y0043496D01*
X0093033Y0044052D01*
G37*
G36*
X0094425Y0045444D02*
X0097765Y0042104D01*
X0097209Y0041548D01*
X0093869Y0044888D01*
X0094425Y0045444D01*
G37*
G36*
X0095817Y0046836D02*
X0099157Y0043496D01*
X0098601Y0042940D01*
X0095261Y0046280D01*
X0095817Y0046836D01*
G37*
G36*
X0097209Y0048228D02*
X0100549Y0044888D01*
X0099993Y0044332D01*
X0096653Y0047672D01*
X0097209Y0048228D01*
G37*
G36*
X0098601Y0049620D02*
X0101941Y0046280D01*
X0101385Y0045724D01*
X0098045Y0049064D01*
X0098601Y0049620D01*
G37*
G36*
X0099993Y0051012D02*
X0103333Y0047672D01*
X0102777Y0047116D01*
X0099437Y0050456D01*
X0099993Y0051012D01*
G37*
G36*
X0101385Y0052404D02*
X0104725Y0049064D01*
X0104169Y0048508D01*
X0100829Y0051848D01*
X0101385Y0052404D01*
G37*
G36*
X0102777Y0053796D02*
X0106117Y0050456D01*
X0105561Y0049900D01*
X0102221Y0053240D01*
X0102777Y0053796D01*
G37*
G36*
X0104169Y0055188D02*
X0107509Y0051848D01*
X0106953Y0051292D01*
X0103613Y0054632D01*
X0104169Y0055188D01*
G37*
G36*
X0105561Y0056580D02*
X0108901Y0053240D01*
X0108345Y0052684D01*
X0105005Y0056024D01*
X0105561Y0056580D01*
G37*
G36*
X0106953Y0057972D02*
X0110293Y0054632D01*
X0109737Y0054076D01*
X0106397Y0057416D01*
X0106953Y0057972D01*
G37*
G36*
X0108345Y0059364D02*
X0111685Y0056024D01*
X0111129Y0055468D01*
X0107789Y0058808D01*
X0108345Y0059364D01*
G37*
G36*
X0109737Y0060756D02*
X0113077Y0057416D01*
X0112521Y0056860D01*
X0109181Y0060200D01*
X0109737Y0060756D01*
G37*
G36*
X0074103Y0085254D02*
X0077443Y0081914D01*
X0076887Y0081358D01*
X0073547Y0084698D01*
X0074103Y0085254D01*
G37*
G36*
X0075495Y0086646D02*
X0078835Y0083306D01*
X0078279Y0082750D01*
X0074939Y0086090D01*
X0075495Y0086646D01*
G37*
G36*
X0076887Y0088038D02*
X0080227Y0084698D01*
X0079671Y0084142D01*
X0076331Y0087482D01*
X0076887Y0088038D01*
G37*
G36*
X0078279Y0089430D02*
X0081619Y0086090D01*
X0081063Y0085534D01*
X0077723Y0088874D01*
X0078279Y0089430D01*
G37*
G36*
X0079671Y0090822D02*
X0083011Y0087482D01*
X0082455Y0086926D01*
X0079115Y0090266D01*
X0079671Y0090822D01*
G37*
G36*
X0072711Y0083862D02*
X0076051Y0080522D01*
X0075495Y0079966D01*
X0072155Y0083306D01*
X0072711Y0083862D01*
G37*
G36*
X0071319Y0082470D02*
X0074659Y0079130D01*
X0074103Y0078574D01*
X0070763Y0081914D01*
X0071319Y0082470D01*
G37*
G36*
X0069927Y0081078D02*
X0073267Y0077738D01*
X0072711Y0077182D01*
X0069371Y0080522D01*
X0069927Y0081078D01*
G37*
G36*
X0068535Y0079686D02*
X0071875Y0076346D01*
X0071319Y0075790D01*
X0067979Y0079130D01*
X0068535Y0079686D01*
G37*
G36*
X0067143Y0078294D02*
X0070483Y0074954D01*
X0069927Y0074398D01*
X0066587Y0077738D01*
X0067143Y0078294D01*
G37*
G36*
X0065751Y0076902D02*
X0069091Y0073562D01*
X0068535Y0073006D01*
X0065195Y0076346D01*
X0065751Y0076902D01*
G37*
G36*
X0064359Y0075510D02*
X0067699Y0072170D01*
X0067143Y0071614D01*
X0063803Y0074954D01*
X0064359Y0075510D01*
G37*
G36*
X0062967Y0074118D02*
X0066307Y0070778D01*
X0065751Y0070222D01*
X0062411Y0073562D01*
X0062967Y0074118D01*
G37*
G36*
X0061575Y0072726D02*
X0064915Y0069386D01*
X0064359Y0068830D01*
X0061019Y0072170D01*
X0061575Y0072726D01*
G37*
G36*
X0060183Y0071335D02*
X0063523Y0067995D01*
X0062967Y0067439D01*
X0059627Y0070779D01*
X0060183Y0071335D01*
G37*
G36*
X0058791Y0069943D02*
X0062131Y0066603D01*
X0061575Y0066047D01*
X0058235Y0069387D01*
X0058791Y0069943D01*
G37*
D14*
G36*
X0061575Y0060756D02*
X0062131Y0060200D01*
X0058791Y0056860D01*
X0058235Y0057416D01*
X0061575Y0060756D01*
G37*
G36*
X0062967Y0059364D02*
X0063523Y0058808D01*
X0060183Y0055468D01*
X0059627Y0056024D01*
X0062967Y0059364D01*
G37*
G36*
X0064359Y0057972D02*
X0064915Y0057416D01*
X0061575Y0054076D01*
X0061019Y0054632D01*
X0064359Y0057972D01*
G37*
G36*
X0065751Y0056580D02*
X0066307Y0056024D01*
X0062967Y0052684D01*
X0062411Y0053240D01*
X0065751Y0056580D01*
G37*
G36*
X0067143Y0055188D02*
X0067699Y0054632D01*
X0064359Y0051292D01*
X0063803Y0051848D01*
X0067143Y0055188D01*
G37*
G36*
X0068535Y0053796D02*
X0069091Y0053240D01*
X0065751Y0049900D01*
X0065195Y0050456D01*
X0068535Y0053796D01*
G37*
G36*
X0069927Y0052404D02*
X0070483Y0051848D01*
X0067143Y0048508D01*
X0066587Y0049064D01*
X0069927Y0052404D01*
G37*
G36*
X0071319Y0051012D02*
X0071875Y0050456D01*
X0068535Y0047116D01*
X0067979Y0047672D01*
X0071319Y0051012D01*
G37*
G36*
X0072711Y0049620D02*
X0073267Y0049064D01*
X0069927Y0045724D01*
X0069371Y0046280D01*
X0072711Y0049620D01*
G37*
G36*
X0074103Y0048228D02*
X0074659Y0047672D01*
X0071319Y0044332D01*
X0070763Y0044888D01*
X0074103Y0048228D01*
G37*
G36*
X0075495Y0046836D02*
X0076051Y0046280D01*
X0072711Y0042940D01*
X0072155Y0043496D01*
X0075495Y0046836D01*
G37*
G36*
X0076887Y0045444D02*
X0077443Y0044888D01*
X0074103Y0041548D01*
X0073547Y0042104D01*
X0076887Y0045444D01*
G37*
G36*
X0078279Y0044052D02*
X0078835Y0043496D01*
X0075495Y0040156D01*
X0074939Y0040712D01*
X0078279Y0044052D01*
G37*
G36*
X0079671Y0042661D02*
X0080227Y0042105D01*
X0076887Y0038765D01*
X0076331Y0039321D01*
X0079671Y0042661D01*
G37*
G36*
X0081063Y0041269D02*
X0081619Y0040713D01*
X0078279Y0037373D01*
X0077723Y0037929D01*
X0081063Y0041269D01*
G37*
G36*
X0082455Y0039877D02*
X0083011Y0039321D01*
X0079671Y0035981D01*
X0079115Y0036537D01*
X0082455Y0039877D01*
G37*
G36*
X0112521Y0069943D02*
X0113077Y0069387D01*
X0109737Y0066047D01*
X0109181Y0066603D01*
X0112521Y0069943D01*
G37*
G36*
X0111129Y0071335D02*
X0111685Y0070779D01*
X0108345Y0067439D01*
X0107789Y0067995D01*
X0111129Y0071335D01*
G37*
G36*
X0109737Y0072726D02*
X0110293Y0072170D01*
X0106953Y0068830D01*
X0106397Y0069386D01*
X0109737Y0072726D01*
G37*
G36*
X0108345Y0074118D02*
X0108901Y0073562D01*
X0105561Y0070222D01*
X0105005Y0070778D01*
X0108345Y0074118D01*
G37*
G36*
X0106953Y0075510D02*
X0107509Y0074954D01*
X0104169Y0071614D01*
X0103613Y0072170D01*
X0106953Y0075510D01*
G37*
G36*
X0105561Y0076902D02*
X0106117Y0076346D01*
X0102777Y0073006D01*
X0102221Y0073562D01*
X0105561Y0076902D01*
G37*
G36*
X0104169Y0078294D02*
X0104725Y0077738D01*
X0101385Y0074398D01*
X0100829Y0074954D01*
X0104169Y0078294D01*
G37*
G36*
X0102777Y0079686D02*
X0103333Y0079130D01*
X0099993Y0075790D01*
X0099437Y0076346D01*
X0102777Y0079686D01*
G37*
G36*
X0101385Y0081078D02*
X0101941Y0080522D01*
X0098601Y0077182D01*
X0098045Y0077738D01*
X0101385Y0081078D01*
G37*
G36*
X0099993Y0082470D02*
X0100549Y0081914D01*
X0097209Y0078574D01*
X0096653Y0079130D01*
X0099993Y0082470D01*
G37*
G36*
X0098601Y0083862D02*
X0099157Y0083306D01*
X0095817Y0079966D01*
X0095261Y0080522D01*
X0098601Y0083862D01*
G37*
G36*
X0097209Y0085254D02*
X0097765Y0084698D01*
X0094425Y0081358D01*
X0093869Y0081914D01*
X0097209Y0085254D01*
G37*
G36*
X0095817Y0086646D02*
X0096373Y0086090D01*
X0093033Y0082750D01*
X0092477Y0083306D01*
X0095817Y0086646D01*
G37*
G36*
X0094425Y0088038D02*
X0094981Y0087482D01*
X0091641Y0084142D01*
X0091085Y0084698D01*
X0094425Y0088038D01*
G37*
G36*
X0093033Y0089430D02*
X0093589Y0088874D01*
X0090249Y0085534D01*
X0089693Y0086090D01*
X0093033Y0089430D01*
G37*
G36*
X0091641Y0090822D02*
X0092197Y0090266D01*
X0088857Y0086926D01*
X0088301Y0087482D01*
X0091641Y0090822D01*
G37*
D15*
X0127091Y0042516D03*
D16*
X0048451Y0124574D03*
X0045625Y0139826D03*
M02*
